<svg width="52" height="45" viewBox="0 0 52 45" fill="none" xmlns="http://www.w3.org/2000/svg">
<path d="M27.8382 8.53901C28.5673 7.57013 29.209 6.65295 29.9202 5.78466C31.8783 3.39285 34.264 1.50749 37.3079 0.419163C38.0597 0.139603 38.8616 -0.00266584 39.6705 3.78226e-05C41.4757 0.019597 43.2808 -0.00415377 45.086 0.00841998C47.8687 0.0286777 49.8194 1.23226 50.9559 3.61988C51.6394 5.05608 52.0096 6.53769 51.9738 8.11639C51.9409 9.56377 51.9073 11.0153 51.9797 12.4606C52.1111 15.0774 51.5924 17.5998 50.7731 20.0705C49.5962 23.617 48.2754 27.1146 46.4165 30.4145C44.2524 34.2565 41.2914 37.4356 37.5796 40.0335C35.0342 41.8161 32.2925 43.26 29.3829 44.4406C28.4749 44.8198 27.4899 45.0104 26.4957 44.9994C24.5057 44.9719 22.5158 44.9719 20.5258 44.9994C18.849 45.0197 17.3535 44.5307 15.9469 43.7211C14.4544 42.8612 13.3253 41.6457 12.1664 40.4421C9.80849 37.9872 7.67472 35.3514 5.7876 32.5626C3.71903 29.5155 1.84896 26.3539 0.638558 22.8989C0.238575 21.7554 -0.0173879 20.5819 0.00126808 19.3587C0.0318638 17.3246 0.0363413 15.289 0.00126808 13.2556C-0.0233578 11.8194 0.313202 10.4432 0.79154 9.11251C1.26884 7.79226 2.1992 6.65685 3.4377 5.88315C5.84431 4.34636 8.42406 3.25454 11.4224 3.31392C13.3724 3.35234 15.3238 3.26223 17.2744 3.3698C21.5981 3.6087 25.0965 5.31175 27.8382 8.53901Z" fill="#FA8AA7"/>
</svg>
