<svg width="20" height="20" viewBox="0 0 20 20" fill="none" xmlns="http://www.w3.org/2000/svg">
<path fill-rule="evenodd" clip-rule="evenodd" d="M9.95692 17.9982C14.4226 17.9982 18.0427 14.378 18.0427 9.91236C18.0427 5.44669 14.4226 1.82654 9.95692 1.82654C5.49124 1.82654 1.87109 5.44669 1.87109 9.91236C1.87109 14.378 5.49124 17.9982 9.95692 17.9982ZM9.95693 4.00947L15.5034 8.19717L13.2759 14.5233H6.5043L4.56638 8.15262L9.95693 4.00947Z" fill="#B8B8B8"/>
<path fill-rule="evenodd" clip-rule="evenodd" d="M8.66857 0.0411491C8.2245 0.0777692 7.41769 0.239709 6.9215 0.391847C5.98457 0.679061 5.29756 1.16434 5.04175 1.71957C4.89233 2.04376 4.8599 2.44547 4.95951 2.73781C5.08577 3.10828 5.02701 3.18834 4.78635 2.9737C4.64299 2.84588 4.27995 2.70929 4.00779 2.68087C3.34547 2.61164 2.59524 3.07901 1.9478 3.96427C1.69293 4.31278 1.35101 4.85865 1.22658 5.11575C1.10576 5.36532 0.679104 6.41323 0.618961 6.60818C0.588712 6.70619 0.546924 6.8365 0.526164 6.89775C0.346761 7.42652 0.146865 8.26963 0.0614626 8.85795C-0.0206876 9.42414 -0.0204648 10.461 0.0619972 10.8529C0.281451 11.8961 0.849686 12.4632 1.6981 12.4857C1.84101 12.4895 1.95488 12.5118 1.95123 12.5352C1.94753 12.5587 1.88743 12.62 1.81762 12.6715C1.41823 12.9662 1.15392 13.4763 1.15713 13.9464C1.16078 14.4901 1.42483 15.1353 1.91884 15.8078C2.2466 16.2539 3.00038 17.0221 3.47212 17.3907C3.65589 17.5343 3.81627 17.6642 3.82852 17.6793C3.87187 17.7329 4.70308 18.2965 5.12047 18.5553C5.62384 18.8675 5.87773 18.9934 6.50143 19.2404C7.25068 19.5371 7.56364 19.6067 8.17215 19.6121C8.76319 19.6173 8.98456 19.5613 9.34582 19.3153C9.55685 19.1715 9.85832 18.7439 9.93945 18.4731C9.99104 18.3008 10.0655 18.2423 10.0655 18.374C10.0655 18.4133 10.1387 18.5847 10.2282 18.755C10.4936 19.2601 10.8774 19.5235 11.4732 19.6093C12.7339 19.7909 14.7631 18.8873 16.6821 17.2897C18.4338 15.8313 19.2261 14.2952 18.7381 13.3036C18.6243 13.0723 18.3381 12.7408 18.1402 12.6111C18.0851 12.5749 18.04 12.5305 18.04 12.5123C18.04 12.4941 18.1968 12.4685 18.3885 12.4554C18.9952 12.4138 19.4362 12.1036 19.7219 11.5176C19.9272 11.0965 20.0002 10.6649 20 9.87334C19.9998 9.11278 19.9339 8.61306 19.7279 7.81103C19.1661 5.62331 18.2294 3.872 17.2148 3.11247C16.5223 2.59409 15.8989 2.53836 15.2397 2.93588C15.0807 3.03184 14.9409 3.10076 14.9292 3.08904C14.9175 3.07732 14.9437 2.93561 14.9874 2.77407C15.1305 2.24535 14.9998 1.69752 14.6339 1.29247C14.0746 0.673403 12.7628 0.190035 11.2302 0.0382088C10.7031 -0.0140038 9.31855 -0.0124 8.66857 0.0411491ZM8.35668 1.2579C9.78593 1.51371 10.041 1.51776 11.2961 1.3049C13.1256 0.994564 13.9831 1.06437 14.5133 1.56676C14.8145 1.85215 14.939 2.28121 14.8731 2.80623C14.8295 3.15301 14.7652 3.308 14.6854 3.25868C14.656 3.24051 14.5216 3.1527 14.3869 3.06351C14.0212 2.82147 13.3296 2.47135 12.8626 2.29186C11.9396 1.93698 11.046 1.77267 10.029 1.77071C9.0104 1.7688 8.25301 1.88895 7.30342 2.20316C6.86639 2.34777 5.9871 2.78302 5.56597 3.0632C5.17478 3.32342 5.15763 3.31633 5.07837 2.86116C4.98513 2.32585 5.15139 1.8056 5.51024 1.50956C5.70132 1.35199 6.06529 1.20248 6.39015 1.14822C6.75724 1.08687 7.69243 1.13904 8.35668 1.2579ZM4.71952 3.04137C4.97368 3.17034 5.12047 3.27851 5.12047 3.33687C5.12047 3.35549 5.01525 3.45381 4.88659 3.55534C3.63691 4.54177 2.63721 6.04266 2.18547 7.61055C1.94147 8.45758 1.89764 8.79251 1.89394 9.83805C1.89046 10.839 1.9372 11.2495 2.13647 11.9687C2.27101 12.4542 2.27858 12.4398 1.90828 12.4053C0.915843 12.3131 0.401557 11.6716 0.535876 10.6935C0.608938 10.1613 0.761165 9.76628 1.32904 8.6352C1.93818 7.42206 2.01119 7.22034 2.13558 6.4077C2.39138 4.7365 2.46975 4.39747 2.72123 3.8745C2.93552 3.42887 3.1919 3.13577 3.4944 2.99063C3.68783 2.89778 3.767 2.88593 4.09582 2.90037C4.40077 2.91378 4.52221 2.94122 4.71952 3.04137ZM16.4829 3.0007C16.8665 3.19511 17.1427 3.55191 17.3733 4.15093C17.5154 4.52007 17.6444 5.1276 17.8194 6.25178C17.9499 7.0903 18.0753 7.47 18.4739 8.23425C18.9625 9.17083 19.004 9.25356 19.1335 9.54848C19.7123 10.8669 19.594 11.7832 18.7921 12.192C18.502 12.3399 18.0584 12.4302 17.833 12.3871C17.7202 12.3655 17.6954 12.2545 17.7715 12.1123C17.7954 12.0677 17.8691 11.7733 17.9354 11.4581C18.0455 10.9342 18.0559 10.7989 18.0567 9.8826C18.0576 8.96492 18.0476 8.83318 17.9392 8.32335C17.6515 6.96966 17.1479 5.87702 16.3306 4.83286C16.0444 4.46724 15.3754 3.79609 15.0185 3.51654L14.826 3.36574L14.8516 3.51681C14.8657 3.59989 14.9178 3.99866 14.9675 4.40295C15.0172 4.80724 15.087 5.34853 15.1227 5.6058C15.1583 5.86308 15.2474 6.52465 15.3205 7.07595C15.4398 7.97515 15.4679 8.10586 15.5936 8.34563C15.7485 8.64073 16.9615 11.0659 17.2537 11.6646C17.3554 11.8729 17.4497 12.0533 17.4634 12.0656C17.5023 12.1005 17.6084 12.3785 17.5894 12.3956C17.5799 12.404 17.3918 12.4963 17.1713 12.6006C16.9507 12.7048 16.5197 12.9103 16.2134 13.0572C15.9071 13.2041 15.451 13.4219 15.1999 13.5413C14.9488 13.6608 14.5278 13.861 14.2644 13.9863C14.0009 14.1116 13.6852 14.2598 13.5627 14.3156C13.4208 14.3801 13.3299 14.4351 13.1874 14.5691C13.0895 14.6611 12.9674 14.7904 12.7877 14.9857C12.6309 15.156 12.3302 15.476 12.1194 15.6968C11.7178 16.1175 10.8051 17.0886 10.3299 17.6009C10.1765 17.7663 10.0341 17.9016 10.0135 17.9016C9.99286 17.9016 9.58162 17.5157 9.09964 17.044C8.61765 16.5723 8.08946 16.0561 7.92588 15.8969C7.76233 15.7376 7.39836 15.3818 7.11712 15.1061C6.83587 14.8304 6.58399 14.6049 6.55735 14.6049C6.52658 14.5901 6.52658 14.5901 6.49408 14.5691C6.48593 14.5494 6.26875 14.4262 6.01147 14.2953C5.7542 14.1644 5.42341 13.9926 5.2764 13.9136C5.12938 13.8345 4.54801 13.5345 3.98445 13.2468C2.59039 12.5351 2.35837 12.4093 2.35837 12.3656C2.35837 12.345 2.41571 12.2239 2.48579 12.0966C2.55582 11.9692 2.71869 11.6646 2.84767 11.4196C2.97668 11.1746 3.11728 10.9139 3.16014 10.8404C3.20304 10.7669 3.31798 10.5564 3.41559 10.3727C3.5132 10.1889 3.82612 9.60751 4.11092 9.0807C4.48278 8.39285 4.63515 8.06639 4.65149 7.9224C4.66401 7.81214 4.6854 7.62169 4.69903 7.49918C4.71266 7.37667 4.74211 7.1361 4.76443 6.96458C4.80657 6.64083 4.8595 6.20821 5.07111 4.45779C5.14003 3.88764 5.20784 3.40971 5.22182 3.39577C5.23581 3.38178 5.68483 3.43158 6.21966 3.50647C6.75448 3.58136 7.34241 3.66347 7.52617 3.6889C7.70994 3.7143 8.30134 3.7968 8.8404 3.87223C9.37945 3.94761 9.88064 4.00837 9.95415 4.00726C10.0891 4.00516 11.0644 3.86987 12.4224 3.66485C13.5218 3.49885 14.0109 3.42713 14.4284 3.37059C14.7175 3.33148 14.8493 3.28925 15.0003 3.18732C15.4793 2.86406 16.0672 2.79006 16.4829 3.0007ZM6.79333 8.4501C6.81658 8.47081 7.1965 8.73473 7.63755 9.03664C8.07859 9.33852 8.46346 9.61468 8.49282 9.65032C8.53167 9.69745 8.54013 9.92252 8.52396 10.4782C8.51175 10.8979 8.51781 11.2614 8.53741 11.2859C8.55706 11.3104 8.86379 11.5502 9.21907 11.8188C9.57436 12.0873 9.89156 12.3329 9.9239 12.3645C10.004 12.4427 10.0771 12.4367 10.1796 12.3434C10.2272 12.3002 10.5467 12.0558 10.8897 11.8002C11.2327 11.5445 11.5286 11.3143 11.5471 11.2884C11.5657 11.2625 11.5785 11.2013 11.5756 11.1523C11.5727 11.1033 11.5726 10.7422 11.5753 10.3498C11.5799 9.68249 11.586 9.63361 11.6696 9.59245C11.7188 9.56826 12.1186 9.30791 12.558 9.01388L13.3569 8.47928L12.4658 8.44119C11.9757 8.42021 11.5645 8.41334 11.5519 8.42591C11.5394 8.43847 11.5174 9.09211 11.5032 9.87846L11.4772 11.3082H10.0363H8.59537V9.86033V8.41245H7.67319C7.16599 8.41245 6.77007 8.42938 6.79333 8.4501ZM2.39767 12.7818C2.90905 14.1384 4.031 15.5972 5.21282 16.4419C6.49083 17.3555 7.89264 17.8479 9.5687 17.972L9.98511 18.0029L9.96083 18.1243C9.91102 18.3733 9.69411 18.7499 9.4911 18.9398C9.28082 19.1365 8.87301 19.3272 8.66273 19.3272C8.25212 19.3272 7.62668 19.0615 7.15775 18.6878C6.99451 18.5577 6.49814 18.0958 6.05464 17.6613C5.58776 17.204 5.11825 16.7873 4.93942 16.6716C4.76955 16.5617 4.24462 16.2799 3.77288 16.0454C2.62438 15.4746 2.03895 15.0738 1.67333 14.6081C1.2289 14.0421 1.34321 13.2332 1.94397 12.6929C2.08341 12.5675 2.21826 12.4718 2.24361 12.4802C2.269 12.4887 2.33832 12.6244 2.39767 12.7818ZM18.0689 12.6707C18.3576 12.9174 18.5311 13.2001 18.6006 13.5377C18.7062 14.0503 18.554 14.4355 18.0532 14.9231C17.672 15.2942 17.3009 15.527 16.2475 16.0557C15.7265 16.3172 15.19 16.604 15.0553 16.6929C14.9206 16.7819 14.408 17.2475 13.9163 17.7277C13.4092 18.2228 12.8788 18.6971 12.691 18.8234C11.7617 19.4483 11.0418 19.4684 10.4957 18.8845C10.2975 18.6727 10.0655 18.2407 10.0655 18.0837C10.0655 17.9804 10.1824 17.9476 10.5556 17.9465C11.1898 17.9445 12.2937 17.6846 13.1165 17.3436C14.2434 16.8765 15.3909 16.0304 16.1989 15.0706C16.7114 14.4618 17.2806 13.4977 17.5324 12.8118C17.6857 12.3944 17.7314 12.3824 18.0689 12.6707Z" fill="#868686"/>
</svg>
