<svg width="166" height="53" viewBox="0 0 166 53" fill="none" xmlns="http://www.w3.org/2000/svg">
<path d="M117.169 12.1122C117.585 12.0965 117.796 11.913 118.038 11.7749C120.132 10.5716 122.453 9.81548 124.912 9.33229C125.437 9.22875 125.959 9.10796 126.484 9.01854C127.727 8.77171 129 8.648 130.277 8.64989C133.176 8.68284 136.07 8.62164 138.974 8.67027C143.085 8.73773 147.073 9.36526 150.866 10.727C152.946 11.4737 154.953 12.3287 156.566 13.7202C157.351 14.4008 158.06 15.1414 158.683 15.9322C159.415 16.8594 160.123 17.7991 160.901 18.7027C161.589 19.4996 162.121 20.3923 162.721 21.2426C162.897 21.4904 163.052 21.7509 163.25 21.9846C164.291 23.2193 164.825 24.6343 165.318 26.0635C165.426 26.4222 165.476 26.7917 165.466 27.1616C165.479 29.2654 165.544 31.3723 165.449 33.4729C165.371 35.1985 165.12 36.9117 164.302 38.5369C163.694 39.7449 162.85 40.7599 161.587 41.5459C159.97 42.5499 158.41 43.6025 156.616 44.4058C155.192 45.0501 153.713 45.6054 152.191 46.0671C150.522 46.566 148.842 47.0084 147.129 47.3786C146.368 47.5417 145.585 47.6213 144.8 47.6155C141.457 47.6155 138.115 47.6155 134.775 47.6155C134.588 47.6155 134.381 47.6265 134.185 47.6155C130.967 47.3739 127.723 47.3018 124.559 46.6978C123.123 46.4284 121.708 46.0815 120.325 45.6592C118.305 45.0317 116.279 44.3791 114.566 43.2229C114.227 42.9954 114.027 43.066 113.747 43.4017C113.16 44.1061 112.719 44.8827 111.989 45.5212C110.741 46.635 109.226 47.5149 107.545 48.1034C105.551 48.8004 103.5 49.374 101.406 49.8197C98.8857 50.3468 96.3611 50.8864 93.8403 51.3806C91.7356 51.7794 89.6057 52.0774 87.4607 52.2732C83.3964 52.667 79.319 52.4113 75.249 52.4882C73.5672 52.2121 71.82 52.3532 70.1363 52.0395C69.9418 52.0156 69.7491 51.9826 69.559 51.9407C67.012 51.1767 64.2856 50.9586 61.7648 50.1224C59.9765 49.9561 58.4479 49.1388 56.7605 48.7105C55.1049 48.2948 53.6885 47.4335 52.1898 46.7339C50.9821 46.181 49.8461 45.5244 48.8 44.7744C48.6598 44.657 48.4735 44.5864 48.2758 44.5757C48.0781 44.565 47.8826 44.615 47.7255 44.7164C44.2911 46.4831 40.6134 47.8923 36.7734 48.9129C34.772 49.4541 32.696 49.8055 30.6479 50.2213C30.3081 50.2664 29.9632 50.2785 29.6201 50.2574C26.5724 50.2574 23.5246 50.2981 20.4786 50.2448C18.2587 50.2071 16.1172 49.8652 14.142 48.8862C11.6885 47.6704 9.06303 46.7386 6.44504 45.8004C4.8978 45.2467 3.4552 44.5329 2.34522 43.4472C2.15835 43.2606 1.90979 43.0895 1.79767 42.873C1.17541 41.6635 0.517631 40.4649 0.526975 39.0985C0.541924 36.6653 0.441044 34.2353 0.555032 31.7974C0.66902 29.405 1.16795 27.0753 2.51712 24.8947C3.80287 22.8061 5.52728 20.9295 7.60734 19.3553C8.95091 18.3325 10.33 17.3363 11.6866 16.3244C13.5385 14.9439 15.665 14.07 17.969 13.4488C20.0242 12.8837 22.1749 12.6018 24.3374 12.6142C29.5454 12.666 34.7552 12.6236 39.965 12.6362C41.4338 12.6362 42.9081 12.6629 44.362 12.8841C44.8441 12.9578 45.3206 13.055 45.799 13.146C45.9902 13.1915 46.1946 13.1777 46.3747 13.1072C46.5548 13.0366 46.6987 12.914 46.78 12.7617C47.3406 11.9412 47.9143 11.127 48.4618 10.2971C49.153 9.25056 50.087 8.33091 51.2087 7.59253C52.5486 6.68577 53.9407 5.84958 55.3459 5.01969C57.9621 3.47914 60.851 2.52375 63.8969 1.80524C65.9743 1.31802 68.0799 0.920095 70.2055 0.612982C70.6886 0.541665 71.1782 0.50542 71.6687 0.504706C79.0399 0.498431 86.4111 0.498431 93.7824 0.504706C94.3714 0.495343 94.9587 0.56147 95.524 0.700805C96.6956 1.00515 97.9158 1.12911 99.0838 1.46797C100.662 1.90953 102.169 2.51452 103.569 3.26893C104.224 3.62976 104.908 3.95761 105.6 4.26823C106.607 4.72005 107.444 5.36641 108.298 5.9751C109.189 6.6136 110.098 7.23953 110.95 7.92195C111.721 8.54947 112.667 9.02011 113.547 9.53782C114.866 10.2987 116.201 11.0721 117.169 12.1122Z" fill="#029C54"/>
</svg>
