<svg width="249" height="133" viewBox="0 0 249 133" fill="none" xmlns="http://www.w3.org/2000/svg">
<path d="M65.7248 53.4381C65.4178 52.7444 64.9624 52.1204 64.389 51.6077C62.7173 49.9405 61.3865 48.0418 60.1114 46.1079C59.2393 44.728 58.629 43.21 58.3099 41.6268C58.0024 40.2365 57.7877 38.8249 57.6125 37.4134C57.3934 35.6938 57.4238 33.9557 57.7028 32.25C58.1965 29.2654 58.7504 26.2894 59.3277 23.3201C59.6878 21.4278 60.593 19.6788 61.9394 18.2742C64.2678 15.8322 67.0797 13.8691 70.2114 12.4991C71.7017 11.8393 73.2802 11.6849 74.8455 11.6165C76.0904 11.5589 77.385 11.6895 78.6489 11.7309C82.9578 11.8752 87.078 13.0976 91.3005 13.7036C92.6278 13.923 93.8752 14.4795 94.9152 15.3161C96.8387 16.7665 98.775 18.2001 100.927 19.3316C101.272 19.5006 101.589 19.7193 101.868 19.9802C103.164 21.2807 104.894 22.0752 106.141 23.4408C106.586 23.9298 107.042 23.8076 107.248 23.1362C107.747 21.5249 108.813 20.196 109.492 18.675C109.876 17.8116 110.61 17.1551 111.391 16.6503C112.49 15.9231 113.659 15.2998 114.883 14.7888C117.635 13.6784 120.436 12.6772 123.224 11.6448C124.644 11.1088 126.122 10.7222 127.631 10.4917C129.833 10.1764 132.034 9.83208 134.223 9.44501C135.676 9.18918 137.143 9.215 138.603 9.25147C140.127 9.29002 141.646 9.49969 143.171 9.57419C144.95 9.65926 146.732 9.74474 148.512 9.71774C151.061 9.6816 153.609 9.91798 156.111 10.4226C159.24 11.054 162.382 11.6256 165.536 12.1375C166.105 12.2065 166.655 12.3884 167.152 12.6717C167.648 12.9551 168.08 13.3338 168.421 13.7843C168.93 14.5015 169.57 15.1236 170.309 15.6197C170.922 15.2893 171.485 14.8805 171.984 14.404C174.371 12.2875 177.038 10.4864 179.916 9.04681C180.764 8.62812 181.58 8.15206 182.358 7.6221C184.03 6.50724 185.824 5.5708 187.707 4.82884C190.349 3.77223 192.98 2.69958 195.616 1.63473C196.673 1.2075 197.787 0.920378 198.926 0.781047C201.07 0.519449 203.197 0.0209915 205.374 0.161631C207.719 0.313787 210.076 0.236619 212.409 0.708954C215.476 1.33215 218.554 1.89235 221.645 2.38954C224.263 2.81816 226.648 3.84886 229.047 4.88218C230.811 5.62529 232.42 6.679 233.792 7.9893C234.134 8.26958 234.425 8.60333 234.652 8.97641C235.717 11.0487 236.547 13.2048 236.719 15.5156C237.012 19.3309 237.393 23.1548 237.236 26.9718C237.158 28.8671 237.144 30.7742 236.731 32.6659C236.111 35.5011 235.677 38.3748 235.143 41.2279C234.625 43.9979 233.144 46.2468 231.06 48.1232C230.591 48.5332 230.146 48.9688 229.729 49.4277C228.752 50.4756 227.715 51.4687 226.622 52.4024C223.872 54.8714 220.586 56.417 217.14 57.7209C216.252 58.0558 215.388 58.4477 214.519 58.8267C214.46 58.8486 214.409 58.8853 214.37 58.9332C214.331 58.981 214.306 59.0381 214.297 59.0988C214.288 59.1594 214.297 59.2214 214.321 59.2782C214.345 59.3351 214.385 59.3849 214.435 59.4225C216.449 60.7699 218.145 62.4654 219.914 64.0858C220.58 64.6737 221.111 65.3902 221.472 66.1882C221.706 66.6985 222.005 67.1788 222.363 67.6177C223.863 69.5067 224.836 71.6648 225.914 73.7826C226.362 74.6733 226.722 75.6004 227.19 76.4853C228.498 78.9289 229.064 81.6242 230.107 84.1556C230.252 84.502 230.324 84.8722 230.319 85.2444C230.3 86.124 230.543 86.9561 230.732 87.8044C231.31 90.2829 231.364 92.8435 230.891 95.3308C230.369 97.9975 229.848 100.667 229.432 103.35C228.961 106.423 227.934 109.313 226.822 112.185C225.594 115.353 224.099 118.399 222.633 121.462C222.092 122.575 221.405 123.614 220.589 124.554C219.73 125.55 218.604 126.298 217.332 126.716C216.619 126.965 215.922 127.255 215.246 127.584C213.686 128.301 211.998 128.621 210.292 128.81C207.32 129.138 204.317 129.017 201.337 128.94C199.565 128.894 197.782 128.749 196 128.732C195.491 128.707 194.984 128.64 194.486 128.531C190.338 127.776 186.192 127.005 182.04 126.281C180.847 126.07 179.717 125.592 178.742 124.886C177.085 123.72 175.511 122.436 173.856 121.29C171.721 119.81 169.81 118.047 167.559 116.726C167.275 116.579 167.016 116.39 166.792 116.166C165.699 114.941 164.289 114.021 163.207 112.805C161.736 111.145 159.864 109.9 158.4 108.242C158.163 107.96 157.822 108.032 157.613 108.362C156.494 110.144 155.321 111.9 154.273 113.721C152.963 115.996 151.225 117.909 149.421 119.818C147.965 121.36 146.433 122.809 144.892 124.264C143.565 125.515 142.02 126.477 140.572 127.569C140.38 127.737 140.15 127.859 139.9 127.925C138.215 128.219 136.652 128.911 134.93 129.137C131.843 129.545 128.786 130.134 125.718 130.657C122.715 131.168 119.725 131.686 116.675 131.986C112.992 132.352 109.307 132.35 105.62 132.517C104.921 132.536 104.221 132.475 103.535 132.335C98.9464 131.5 94.3557 130.679 89.7724 129.831C87.3594 129.43 85.1497 128.246 83.5077 126.474C82.7281 125.652 82.0067 124.779 81.3485 123.863C79.8704 121.757 78.0051 119.932 76.629 117.753C75.8631 116.535 75.0423 115.347 74.2652 114.137C74.0923 113.875 73.9645 113.588 73.8866 113.287C73.2934 110.876 72.8485 108.437 73.0646 105.96C73.1919 104.487 73.0139 102.996 73.3514 101.534C73.4404 101.14 73.2815 100.684 73.2232 100.258C73.2206 100.181 73.2012 100.106 73.1662 100.037C73.1312 99.9674 73.0815 99.9062 73.0204 99.8569C72.9592 99.8075 72.8881 99.7713 72.8117 99.7506C72.7353 99.7299 72.6554 99.7252 72.5774 99.7368C70.2354 99.9217 67.8954 100.109 65.5584 100.321C65.1768 100.349 64.8043 100.443 64.4587 100.599C62.6264 101.483 60.584 101.758 58.6593 102.377C56.5085 103.072 54.2081 103.326 51.8945 103.383C49.2874 103.45 46.6774 103.224 44.1168 102.71C40.6122 101.998 37.0817 101.415 33.563 100.768C32.6228 100.59 31.6688 100.497 30.7131 100.488C29.8181 100.479 28.9246 100.396 28.0424 100.241C24.771 99.6717 21.509 99.0519 18.2447 98.458C17.3096 98.2637 16.3927 97.9915 15.5043 97.6442C13.0966 96.7789 10.8224 95.6418 8.55294 94.5056C5.67855 93.0997 3.22042 91.0002 1.41837 88.412C0.74321 87.4221 0.402873 86.2557 0.4452 85.0769C0.466465 83.1642 0.668443 81.2593 1.0486 79.3864C1.66734 76.298 2.25542 73.2017 2.73991 70.0913C3.09483 67.788 4.02836 65.7237 5.09562 63.698C6.45508 61.1383 8.28833 58.987 10.9235 57.5569C11.2521 57.37 11.5575 57.1478 11.8341 56.8943C12.6393 56.2066 13.6118 55.727 14.6629 55.4995C17.7932 54.7132 20.958 54.0765 24.0956 53.3179C24.2203 53.2935 24.3428 53.26 24.462 53.2174C28.3534 51.6674 32.4383 51.2387 36.619 51.4504C38.2726 51.5341 39.9066 51.3731 41.5503 51.3356C44.4776 51.2667 47.4053 51.2187 50.3333 51.1913C50.9071 51.202 51.4791 51.2662 52.0415 51.3827C54.3692 51.792 56.6918 52.2289 59.0169 52.652C60.3337 52.8916 61.6456 53.1303 62.9967 53.0992C63.8036 53.0742 64.6302 53.2938 65.7248 53.4381Z" fill="#FFF258"/>
<path d="M214.586 104.417C215.22 105.267 216.099 105.77 216.97 106.269C218.064 106.892 219.291 107.172 220.5 107.462C221.189 107.627 221.9 107.511 222.596 107.438C223.1 107.385 223.603 107.323 224.107 107.271C226.155 107.063 227.936 106.276 229.421 104.858C229.618 104.671 229.813 104.48 230 104.283C230.929 103.307 230.924 103.309 230.095 102.21C229.721 101.716 229.358 101.213 229.005 100.701C228.381 99.7963 227.939 98.8165 227.836 97.7108C227.653 95.7454 227.549 93.7814 227.936 91.8248C228.181 90.5881 228.716 89.4825 229.469 88.4768C230.036 87.7214 230.751 87.2697 231.752 87.3104C232.725 87.3496 233.704 87.3104 234.679 87.3348C235.55 87.3593 236.297 87.7132 236.742 88.4583C237.034 88.947 237.272 89.495 237.348 90.0771C237.403 90.4985 237.488 90.9177 237.513 91.3405C237.597 92.8046 237.683 94.2694 237.726 95.735C237.787 97.8352 237.149 99.7652 236.191 101.609C235.601 102.743 235.386 102.572 236.565 103.409C237.635 104.169 238.775 104.468 240.078 104.328C240.852 104.242 241.618 104.094 242.368 103.884C243.532 103.566 244.706 103.281 245.886 103.007C246.808 102.793 247.749 102.893 248.684 102.918C248.851 102.922 248.99 103.023 248.993 103.202C249.002 103.896 249.002 104.59 248.993 105.285C248.993 105.458 248.858 105.557 248.698 105.597C248.207 105.721 247.711 105.828 247.221 105.956C246.204 106.221 245.196 106.524 244.171 106.758C242.989 107.026 241.78 107.109 240.568 107.114C239.595 107.119 238.616 107.114 237.64 107.114C236.282 107.119 235.005 106.862 233.901 106.019C233.666 105.839 233.485 105.91 233.308 106.121C232.984 106.507 232.66 106.895 232.308 107.254C230.811 108.782 228.989 109.607 226.859 109.9C224.268 110.249 221.648 110.351 219.037 110.206C216.401 110.067 214.022 109.141 212.091 107.266C211.952 107.13 211.815 106.992 211.667 106.868C211.608 106.816 211.534 106.786 211.455 106.782C211.377 106.777 211.299 106.799 211.235 106.844C210.836 107.086 210.433 107.323 210.047 107.585C209.208 108.156 208.302 108.607 207.397 109.061C206.45 109.536 205.468 109.88 204.396 109.956C202.563 110.086 200.733 110.15 198.915 109.834C197.953 109.666 197.034 109.338 196.122 108.994C195.544 108.776 195.49 108.79 195.128 109.245C193.775 110.948 192.328 112.566 190.717 114.037C190.488 114.246 190.258 114.455 190.019 114.653C189.748 114.881 189.402 115.004 189.046 114.998C188.222 114.998 187.406 115.006 186.587 114.991C186.114 114.983 186.016 114.893 186.009 114.462C185.996 113.69 185.997 112.917 186.013 112.144C186.02 111.816 186.193 111.671 186.527 111.633C186.565 111.626 186.604 111.623 186.643 111.627C187.608 111.802 188.226 111.285 188.864 110.659C189.92 109.622 190.867 108.494 191.85 107.396C192.294 106.899 192.278 106.86 191.803 106.34C191.384 105.881 190.952 105.435 190.525 104.983C189.063 103.423 187.862 101.642 186.968 99.7066C186.515 98.7194 186.278 97.6482 186.274 96.5637C186.261 95.7491 186.274 94.9404 186.274 94.1287C186.264 92.0218 186.929 90.1053 187.965 88.299C188.254 87.7962 188.592 87.3208 188.909 86.8342C189.188 86.4132 189.533 86.0384 189.93 85.7234C190.293 85.4324 190.731 85.247 191.195 85.1879C192.945 84.9198 194.704 85.0006 196.454 85.0569C197.641 85.0954 198.719 85.6138 199.664 86.3365C200.294 86.8097 200.71 87.5095 200.822 88.2842C201.126 90.1145 201.246 91.97 201.18 93.8236C201.122 95.6387 200.867 97.4424 200.42 99.2038C199.853 101.378 199.13 103.499 197.875 105.398C197.615 105.791 197.66 105.907 198.093 106.084C198.991 106.455 199.922 106.747 200.85 107.047C201.881 107.377 202.856 107.274 203.807 106.84C204.693 106.436 205.581 106.03 206.427 105.55C207.373 105.012 208.275 104.397 209.186 103.8C209.57 103.549 209.589 103.478 209.375 103.04C208.384 101.014 208.102 98.8646 208.046 96.6333C207.971 93.4022 209.079 90.5866 210.816 87.9436C211.241 87.2956 211.653 86.6431 212.233 86.1077C212.682 85.693 213.165 85.4508 213.805 85.4849C214.505 85.5227 215.21 85.5012 215.912 85.493C216.385 85.4791 216.848 85.6251 217.226 85.907C218.723 87.029 219.78 88.3879 219.709 90.3719C219.664 91.6441 219.8 92.9231 219.569 94.188C219.187 96.2823 218.671 98.3418 217.832 100.306C217.511 101.058 217.053 101.745 216.481 102.333C215.839 102.998 215.234 103.702 214.586 104.417ZM198.426 92.9505C198.351 92.3581 198.276 91.7834 198.218 91.208C198.104 90.0371 197.484 89.1981 196.49 88.6078C196.19 88.4279 195.877 88.2704 195.553 88.1369C193.95 87.4852 192.939 87.7384 191.853 89.0922C191.515 89.5136 191.254 89.9957 190.949 90.4415C190.103 91.6686 189.584 93.0268 189.218 94.4612C189.041 95.0965 189.081 95.7718 189.332 96.3823C190.443 99.1112 192.142 101.442 194.263 103.484C194.426 103.641 194.603 103.624 194.751 103.427C195.622 102.275 196.262 101.002 196.782 99.6622C197.467 97.8971 197.948 96.0613 198.217 94.1895C198.274 93.7703 198.357 93.3541 198.426 92.9505ZM210.867 96.6355C210.897 96.8651 210.906 97.0599 210.949 97.2472C211.174 98.2277 211.454 99.2001 211.89 100.105C212.408 101.178 212.439 101.331 213.312 100.275C213.411 100.155 213.517 100.041 213.626 99.9303C214.54 98.9964 215.123 97.8856 215.564 96.6637C216.053 95.3129 216.312 93.9088 216.721 92.5417C216.97 91.6997 216.771 91.028 216.328 90.3674C216.065 89.9842 215.774 89.6199 215.459 89.2773C214.986 88.7515 214.806 88.7589 214.352 89.284C214.301 89.3432 214.252 89.4032 214.202 89.4654C212.73 91.4212 211.649 93.6372 211.017 95.9942C210.961 96.2164 210.914 96.443 210.867 96.6355ZM233.024 99.894C233.339 99.3297 233.623 98.9113 233.821 98.4544C234.499 96.8518 235.208 95.2492 234.767 93.4348C234.722 93.2497 234.755 93.0468 234.72 92.8579C234.587 92.1292 234.346 91.4279 233.907 90.8325C233.402 90.1504 232.945 90.1482 232.388 90.7881C231.395 91.9285 230.829 93.2741 230.554 94.7412C230.452 95.2825 230.57 95.8068 230.764 96.3289C231.248 97.616 232.059 98.6913 233.024 99.8918V99.894Z" fill="#FA8AA7"/>
<path d="M54.8551 20.6708C54.1026 21.3218 53.468 21.8289 52.8776 22.3848C51.2353 23.9314 49.5767 25.463 47.9897 27.065C46.4274 28.6422 44.9589 30.3125 43.4201 31.9132C42.7815 32.5771 42.0681 33.1675 41.3866 33.7892C41.2128 33.9473 40.9609 34.0495 40.9479 34.3242C40.9283 34.7252 40.7096 34.8372 40.3438 34.8255C39.797 34.8079 39.2489 34.8352 38.7028 34.8137C38.182 34.7929 38.0356 34.6367 38.0082 34.1348C37.9985 33.9643 37.9991 33.7931 38.0043 33.6219C38.0186 33.1792 37.923 32.6858 38.0889 32.3089C38.2354 31.9763 38.6793 31.7771 38.9859 31.5122C40.168 30.4771 41.2889 29.374 42.3428 28.2087C43.381 27.0741 44.4479 25.9656 45.5155 24.8583C45.9184 24.4411 46.3617 24.0609 46.7815 23.6625C47.3023 23.1698 47.8328 22.6861 48.3438 22.181C49.3202 21.2228 50.2738 20.2438 51.3322 19.3735C51.6974 19.0734 52.0261 18.7304 52.336 18.4401C52.3041 18.1146 52.0951 18.1374 51.9454 18.1146C51.6102 18.0543 51.271 18.0184 50.9306 18.0072C49.7335 17.9948 48.5345 17.9564 47.3407 18.0157C45.8071 18.0912 44.2813 18.2572 42.7913 18.6816C42.1352 18.8691 41.4771 19.0526 40.8138 19.2114C40.5046 19.285 40.323 19.4256 40.3164 19.755C40.3156 19.8918 40.3076 20.0285 40.2924 20.1644C40.2683 20.3656 40.1335 20.4606 39.9454 20.4638C39.3641 20.473 38.7815 20.4964 38.2022 20.4684C37.4979 20.4339 37.0247 19.9151 37.0032 19.2095C36.996 18.9706 37.0032 18.731 37.0032 18.4935C37.0032 17.1454 36.9153 17.3328 38.1625 16.982C39.6707 16.5576 41.1679 16.0707 42.734 15.8611C43.6193 15.742 44.5052 15.7172 45.3924 15.7107C47.273 15.6964 49.1542 15.7062 51.0348 15.7055C51.3082 15.7055 51.5822 15.7055 51.8556 15.6957C51.9519 15.6925 52.0632 15.6957 52.116 15.5766C52.1856 15.4145 52.0782 15.3202 51.9786 15.2349C51.5627 14.8801 51.165 14.498 50.7171 14.1882C49.1718 13.12 47.713 11.9301 46.0955 10.9654C45.4914 10.6054 44.9094 10.3008 44.183 10.3958C44.0125 10.4075 43.8413 10.4042 43.6714 10.3861C43.6026 10.3863 43.5347 10.3697 43.4739 10.3376C43.413 10.3054 43.361 10.2588 43.3225 10.2018C43.0308 9.74618 42.7249 9.31201 42.7444 8.70859C42.8128 6.59565 42.4242 6.96343 44.5169 6.89899C45.1007 6.8815 45.6775 7.02954 46.1807 7.326C47.4826 8.07523 48.7799 8.83553 50.0271 9.66937C51.219 10.4668 52.3445 11.3618 53.4999 12.2139C53.5593 12.2503 53.6218 12.2815 53.6867 12.307C53.9223 12.2419 53.8442 12.0349 53.8299 11.8949C53.6828 10.4687 53.5213 9.04448 53.3645 7.61958C53.3235 7.24659 53.2759 6.87424 53.2453 6.50061C53.2011 5.95382 53.1757 5.38491 52.9381 4.89801C52.653 4.31217 52.6126 3.72632 52.6328 3.10663C52.6374 2.93609 52.6296 2.76488 52.6328 2.59369C52.653 2.07294 52.6979 2.02347 53.2427 2.00784C53.6867 1.99743 54.1326 2.02282 54.5758 2.00134C54.9911 1.98116 55.2086 2.18946 55.3225 2.55464C55.3726 2.71607 55.4455 2.87685 55.4637 3.04284C55.62 4.46644 55.7573 5.89263 55.9194 7.31558C56.183 9.65504 56.459 11.9926 56.7318 14.3307C56.7467 14.4609 56.7428 14.6197 56.9166 14.6497C57.0631 14.6751 57.1685 14.5742 57.2694 14.483C57.8019 14.002 58.3532 13.5405 58.8616 13.0347C60.0333 11.8708 61.4159 10.9797 62.7178 9.98442C63.0706 9.71493 63.4338 9.45717 63.7827 9.18313C63.9689 9.03732 64.2156 8.90778 64.2533 8.66238C64.3243 8.20021 64.6549 7.98084 64.9817 7.72698C65.4374 7.37156 65.8768 6.98816 66.3129 6.60606C66.5097 6.41493 66.7741 6.30919 67.0484 6.31184C67.6994 6.32356 68.3503 6.31184 68.9973 6.3242C69.3176 6.33136 69.399 6.43487 69.4257 6.77141C69.5559 8.40981 69.5337 8.46384 68.239 9.5496C68.0821 9.67978 67.9096 9.79955 67.7736 9.94992C66.5238 11.3319 64.9882 12.3649 63.4963 13.4468C62.4691 14.1921 61.5376 15.0428 60.6042 15.8943C60.5675 15.9274 60.5378 15.9675 60.5167 16.0122C60.4956 16.0569 60.4835 16.1053 60.4812 16.1546C60.4955 16.3213 60.653 16.3382 60.7884 16.3499C61.7407 16.4287 62.6833 16.5953 63.6453 16.5953C64.1882 16.5953 64.7311 16.6988 65.2727 16.7574C66.3578 16.8746 67.4423 17.0061 68.5274 17.105C69.1392 17.161 69.7557 17.1831 70.3702 17.187C72.0457 17.1975 73.7218 17.187 75.3974 17.1929C75.6694 17.1929 75.9572 17.1721 76.2097 17.2508C76.8086 17.4376 77.0234 17.5112 76.998 18.2435C76.9837 18.6536 76.998 19.0643 76.983 19.4738C76.9759 19.7185 76.8229 19.8539 76.5886 19.8468C75.7424 19.822 74.8838 19.9809 74.0499 19.6795C73.8026 19.5903 73.5109 19.6085 73.2389 19.6066C72.3158 19.5987 71.3915 19.5721 70.4691 19.6066C68.6882 19.6795 66.9202 19.4718 65.1477 19.3807C64.4681 19.3462 63.7918 19.2199 63.1194 19.1073C62.5533 19.0172 61.9793 18.9862 61.4068 19.0149C61.3039 19.242 61.4393 19.3677 61.5428 19.4946C62.4073 20.5537 63.2665 21.6166 64.1466 22.664C64.9368 23.6066 65.7609 24.5198 66.5466 25.463C67.2242 26.2793 67.9539 27.0468 68.679 27.8194C69.341 28.5257 70.1319 29.0653 70.9306 29.5893C71.7293 30.1133 72.4473 30.7486 73.1152 31.4367C73.2681 31.5942 73.3625 31.7569 73.356 31.9757C73.356 32.0102 73.356 32.0408 73.356 32.0785C73.3091 34.2858 73.7251 33.9298 71.5764 33.9617C71.1326 33.9742 70.6885 33.9596 70.2465 33.9181C69.8644 33.877 69.6945 33.711 69.7075 33.3107C69.7225 32.8336 69.5122 32.542 69.1464 32.3031C68.886 32.1358 68.6471 31.9438 68.3868 31.7823C67.0068 30.9192 65.8982 29.7644 64.8548 28.5348C62.619 25.9054 60.3852 23.275 58.1534 20.6435C57.9829 20.4424 57.8475 20.1879 57.5591 20.1345C57.3514 20.1996 57.4322 20.3493 57.4452 20.4717C57.6216 22.1348 57.7889 23.7979 57.9796 25.4591C58.1163 26.6458 58.2862 27.8279 58.4392 29.0126C58.5531 29.892 58.6436 30.7753 58.7796 31.6508C59.01 33.1324 59.0556 34.6451 59.4924 36.0928C59.9331 37.5568 59.8582 39.0663 59.8263 40.568C59.8191 40.8805 59.7104 40.9781 59.3707 40.9859C58.79 40.9996 58.2081 40.9892 57.6268 40.9924C57.354 40.9924 57.1711 40.8564 57.0702 40.6175C56.5189 39.3456 56.2058 38.0294 56.3542 36.6318C56.3646 36.5309 56.3594 36.3981 56.4193 36.3369C56.7923 35.9561 56.6556 35.5337 56.5886 35.0878C56.4069 33.8725 56.2696 32.6513 56.1101 31.4328C56.0047 30.6204 55.881 29.8106 55.7846 28.9976C55.6766 28.0824 55.5959 27.1646 55.4924 26.2487C55.2945 24.4606 55.0849 22.6653 54.8551 20.6708Z" fill="#FA8AA7"/>
<path d="M20.4375 33.3407C20.4375 33.1271 20.4375 32.9127 20.4375 32.6983C20.4414 32.2703 20.4329 31.8415 20.4544 31.4144C20.476 30.9741 21.0637 30.8566 21.0014 30.3465C20.9829 30.1945 21.1298 30.1255 21.2398 30.1058C21.4375 30.0702 21.6381 30.0576 21.8383 30.068C22.4329 30.1017 23.139 29.8216 23.5944 30.2019C24.0498 30.5822 24.0021 31.3634 24.1198 31.9795C24.3098 32.9727 24.7736 33.7456 25.4144 34.5022C26.6374 35.9455 28.0297 37.1399 29.5281 38.2168C30.0835 38.6152 30.6519 38.8181 31.325 38.7803C32.0442 38.7401 32.7673 38.7746 33.4888 38.7803C33.7688 38.7803 33.9434 38.9158 33.9503 39.2362C33.9549 39.536 33.9703 39.8367 33.9557 40.1349C33.9326 40.6015 34.1257 41.1543 33.8495 41.5116C33.5734 41.869 33.038 41.754 32.6119 41.8304C32.1857 41.9067 31.7527 41.9733 31.4035 42.3306C31.2088 42.5302 30.9288 42.651 30.6696 42.7602C29.4543 43.2745 28.4674 44.1468 27.492 45.0381C26.5997 45.8546 25.9236 46.8626 25.3197 47.928C24.9867 48.5161 24.8244 49.156 24.6844 49.8378C24.499 50.7514 24.3706 51.677 24.2998 52.6086C24.2805 52.855 24.1113 52.9914 23.8952 52.9947C23.2141 53.0045 22.5334 53.0007 21.8529 52.9832C21.7727 52.9793 21.6959 52.9475 21.6342 52.8926C21.5726 52.8377 21.5294 52.7628 21.5114 52.6792C21.2744 51.8635 20.9929 51.0495 21.1268 50.1763C21.2606 49.3031 20.9006 48.6977 20.2883 48.1966C19.0829 47.2067 17.8899 46.2013 16.6791 45.2197C16.5315 45.1005 16.3115 45.0603 16.1192 45.034C15.762 44.9846 15.4024 44.9572 15.0423 44.9519C14.5807 44.9469 14.2661 44.7941 14.2538 44.2306C14.2572 44.1445 14.2288 44.0605 14.1747 43.9966C14.1206 43.9327 14.0451 43.894 13.9646 43.8889C13.7669 43.8585 13.5692 43.8265 13.3738 43.7813C13.1631 43.7328 13.0015 43.6088 13 43.3574C13 42.6296 13 41.9018 13.0092 41.174C13.0062 41.0874 13.0346 41.003 13.0885 40.9382C13.1424 40.8735 13.2176 40.8335 13.2985 40.8265C14.4523 40.7099 15.5292 40.0872 16.7215 40.2614C17.0653 40.3107 17.3284 40.1546 17.5676 39.8876C18.4792 38.8633 19.2998 37.751 20.0191 36.5649C20.3792 35.9935 20.5443 35.3073 20.4868 34.6213C20.4568 34.1958 20.4814 33.7654 20.4814 33.3374L20.4375 33.3407Z" fill="#D3F44B"/>
</svg>
