<svg width="112" height="50" viewBox="0 0 112 50" fill="none" xmlns="http://www.w3.org/2000/svg">
<path d="M80.8095 18.7628C81.3753 18.3053 81.8632 17.9873 82.2239 17.6105C83.3172 16.4801 84.7244 15.5391 85.9309 14.4775C87.6576 12.9662 89.7019 11.6499 91.9928 10.5739C94.3406 9.46439 96.9727 8.71777 99.9131 8.73671C101.77 8.74967 103.629 8.76362 105.484 8.72972C106.616 8.70879 107.682 8.88324 108.767 9.07464C109.852 9.26603 110.577 9.74051 111.105 10.4094C111.708 11.1968 112.012 12.0807 111.987 12.9752C111.987 15.0686 112.016 17.1619 111.987 19.2552C111.948 22.0872 111.371 24.8764 110.648 27.6565C110.418 28.5397 110.017 29.3801 109.597 30.2144C108.749 31.8901 107.873 33.5578 106.924 35.2055C106.274 36.3767 105.443 37.4939 104.446 38.5369C102.757 40.2585 101.141 42.0149 99.4139 43.7205C97.926 45.1838 96.0788 46.4388 93.7749 47.2094C91.1711 48.0866 88.4385 48.7534 85.5405 49.0545C83.0244 49.3157 80.5069 49.2539 77.9851 49.2868C74.1211 49.3316 70.2726 49.2409 66.4454 48.8202C65.711 48.732 64.9607 48.732 64.2263 48.8202C62.8982 48.9997 61.5673 49.0196 60.2322 49.0136C58.7386 49.0136 57.279 49.1841 55.8067 49.3127C53.3061 49.536 50.7985 49.7164 48.2922 49.9108C47.9231 49.94 47.552 49.9553 47.1805 49.9566C42.946 49.9566 38.7044 50.0703 34.4797 49.9297C29.8364 49.7752 25.4279 48.9179 21.4026 47.1695C19.7054 46.4288 17.8668 45.8307 16.1356 45.129C15.0423 44.6864 13.9914 44.189 12.9519 43.6846C11.2547 42.8622 10.0864 41.7358 9.2845 40.416C8.89414 39.771 8.19969 39.3015 7.57455 38.7842C6.56471 37.9488 5.53364 37.1234 4.59451 36.2482C2.34994 34.1549 1.08976 31.7625 0.477343 29.2046C-0.242561 26.1962 0.00636606 23.1728 0.231248 20.1335C0.402384 17.8408 1.88038 15.9209 3.11228 13.9212C4.11646 12.2904 5.36109 10.7393 6.70331 9.22814C8.31142 7.41491 10.522 6.2227 13.4823 5.66547C15.6519 5.25577 17.8201 4.97865 20.0717 5.07534C20.8131 5.11771 21.558 5.11771 22.2993 5.07534C25.2582 4.86202 27.8337 5.57377 30.2791 6.64137C30.722 6.83276 31.179 7.00745 31.6482 7.16471C33.9875 7.96815 35.4994 9.24808 36.2066 11.0155C36.7879 12.4738 37.4088 13.9242 38.0283 15.3756C38.0594 15.4185 38.1044 15.4557 38.1597 15.4841C38.215 15.5125 38.279 15.5314 38.3465 15.5391C38.4115 15.5379 38.4749 15.5254 38.5312 15.5026C38.5876 15.4798 38.6349 15.4474 38.669 15.4085C38.7723 15.2151 38.8104 15.0038 38.8925 14.8044C40.1428 11.8359 41.7099 8.96797 44.0251 6.31241C44.9586 5.24182 45.8072 4.15927 47.1367 3.27807C48.7802 2.18155 50.6613 1.35916 52.6187 0.614529C53.7434 0.200207 54.9975 -0.00884813 56.2663 0.00646472C58.3468 0.00646472 60.4273 0.0214235 62.5078 0.000490069C63.4173 -0.00947823 64.2871 0.134065 65.1385 0.299539C68.2961 0.892054 71.369 1.68961 74.3177 2.68197C75.1097 2.95011 75.8056 3.36479 76.534 3.72365C77.5867 4.23608 78.3159 5.01664 78.5678 5.90072C79.1915 7.89438 79.7912 9.87808 79.8647 11.9345C79.9312 13.7617 80.1618 15.5869 80.3598 17.4111C80.405 17.8198 80.6158 18.2096 80.8095 18.7628Z" fill="#FA8AA7"/>
</svg>
