<svg width="324" height="117" viewBox="0 0 324 117" fill="none" xmlns="http://www.w3.org/2000/svg">
<path d="M192.606 77.7252C192.326 77.3657 191.973 77.3805 191.644 77.3393C191.001 77.2585 190.36 77.1744 189.715 77.1134C187.475 76.9023 185.234 76.7143 182.998 76.4949C178.908 76.0909 174.835 75.5615 170.794 74.7601C167.826 74.168 164.848 73.5958 161.873 73.0153C160.941 72.8184 159.999 72.6742 159.051 72.5832C158.404 72.5276 157.761 72.4273 157.128 72.2831C154.29 71.6514 151.429 71.2243 148.511 71.2936C148.163 71.3018 147.817 71.2936 147.471 71.2754C147.362 71.2774 147.256 71.2375 147.175 71.1639C147.094 71.0903 147.045 70.9886 147.037 70.8796C147.024 70.7945 147.016 70.7085 147.014 70.6224C147.014 68.8875 147.004 67.1592 147.014 65.4177C147.014 64.7317 147.136 64.6245 147.888 64.6179C149.45 64.6014 151.011 64.5866 152.571 64.6179C154.263 64.6278 155.948 64.4059 157.58 63.9582C160.893 63.1056 164.206 62.2563 167.513 61.3773C169.396 60.8826 171.258 60.3021 173.138 59.7892C175.612 59.1164 178.075 58.4699 180.546 57.8103L181.969 57.4227C181.144 56.928 180.282 56.7515 179.443 56.6064C178.031 56.3623 176.655 55.9781 175.262 55.673C173.232 55.2294 171.182 54.8748 169.187 54.2778C166.863 53.5835 164.51 52.9964 162.138 52.4968C160.532 52.1587 158.921 51.8371 157.267 51.7513C156.277 51.7019 155.304 51.4215 154.316 51.3044C151.089 50.9367 147.896 50.3496 144.722 49.6866C141.841 49.0841 138.987 48.3635 136.159 47.5246C134.84 47.1321 133.489 46.7924 132.145 46.4576C130.506 46.0486 128.829 45.8408 127.157 45.6083C126.256 45.4846 125.343 45.4154 124.454 45.2571C123.685 45.1257 122.906 45.0704 122.127 45.0921C121.38 45.1053 120.674 44.8679 119.948 44.7491C118.39 44.4952 116.235 43.8718 115.09 43.3704C115.054 43.292 115.029 43.2087 115.017 43.1231C115.008 41.3453 114.994 39.5659 115.003 37.7881C115.003 37.1516 115.125 37.051 115.784 37.0279C116.304 37.0097 116.825 37.0279 117.346 37.0279C118.126 37.0427 118.906 36.9831 119.675 36.8498C120.102 36.7861 120.535 36.7596 120.968 36.7706C122.831 36.7442 124.704 36.8861 126.556 36.6651C128.285 36.4606 130.02 36.6387 131.74 36.4045C133.287 36.1934 134.853 36.3039 136.39 36.0104C136.735 35.9704 137.083 35.9627 137.429 35.9873C140.553 35.9873 143.676 36.0104 146.798 35.9757C148.191 35.9592 149.565 36.1324 150.936 36.2957C153.038 36.548 155.133 36.8894 157.22 37.2456C158.118 37.3951 159.001 37.623 159.859 37.9267C161.871 38.6523 163.969 38.959 166.058 39.307C167.636 39.5708 169.223 39.7836 170.808 40.0112C171.931 40.1761 173.059 40.0425 174.183 40.0491C174.503 40.0491 174.66 39.7968 174.513 39.5247C174.202 38.9557 173.898 38.3703 173.537 37.8393C171.792 35.2501 170.013 32.6857 168.281 30.0883C167.176 28.4293 166.122 26.7356 165.065 25.0453C163.965 23.284 162.869 21.5227 161.602 19.8769C161.375 19.6137 161.248 19.2793 161.243 18.9319C161.251 17.197 161.243 15.4688 161.253 13.7273C161.253 13.1501 161.384 13.0148 161.932 13.0115C163.71 12.9967 165.489 13.0115 167.267 13C167.64 13 167.953 13.0956 168.166 13.4139C168.378 13.7322 168.725 13.78 169.083 13.7817C169.991 13.7817 170.907 13.724 171.8 13.9466C173.906 14.4875 175.923 15.228 177.808 16.351C181.052 18.2772 184.23 20.309 187.408 22.3308C189.814 23.8678 192.311 25.2663 194.859 26.574C198.249 28.3139 201.62 30.1048 204.834 32.1613C205.966 32.8853 207.155 33.5169 208.297 34.2211C209.846 35.1726 211.376 36.1555 212.915 37.1235C213.171 37.2884 213.425 37.4534 213.688 37.6018C213.727 37.6199 213.769 37.6281 213.812 37.6258C213.854 37.6234 213.895 37.6105 213.931 37.5882C213.967 37.566 213.998 37.535 214.019 37.4983C214.04 37.4615 214.052 37.42 214.053 37.3775C214.069 37.1169 214.071 36.858 214.076 36.5975C214.104 34.6911 214.096 32.783 214.173 30.8766C214.228 29.5358 214.417 28.2038 214.737 26.9005C215.15 25.2184 215.618 23.5495 216.081 21.8789C216.412 20.6161 217.068 19.4623 217.984 18.5328C218.31 18.1842 218.685 17.8853 219.098 17.6456C220.315 16.986 221.18 15.9717 222.051 14.9509C222.19 14.786 222.325 14.6211 222.455 14.4446C222.591 14.2493 222.774 14.0923 222.989 13.9891C223.203 13.886 223.44 13.8401 223.677 13.8559C225.326 13.8872 226.975 13.8707 228.625 13.8658C228.996 13.8658 229.306 13.9318 229.474 14.3177C229.539 14.4287 229.629 14.5226 229.738 14.5914C230.709 15.3187 231.661 16.0756 232.66 16.76C236.531 19.4267 240.005 22.5518 243.289 25.9012C244.197 26.8296 245.083 27.7762 245.927 28.7707C246.798 29.7964 247.875 30.6259 248.945 31.4291C251.406 33.2728 253.771 35.2485 256.408 36.8514C257.99 37.8394 259.433 39.0364 260.695 40.4103C261.663 41.4393 261.698 41.4509 262.809 40.595C263.99 39.7135 265.232 38.9183 266.527 38.2153C267.092 37.897 267.632 37.5325 268.186 37.1928C269.592 36.3342 271.05 35.5631 272.551 34.884C274.25 34.1139 275.918 33.2893 277.548 32.3806C278.27 31.9849 279.015 31.6347 279.781 31.3318C281.71 30.5534 283.559 29.5969 285.513 28.8696C287.263 28.21 289.044 27.6839 290.827 27.1496C291.487 26.9321 292.182 26.8365 292.876 26.8676C293.135 26.9025 293.397 26.8941 293.653 26.8428C294.847 26.513 296.064 26.6218 297.281 26.6152C299.625 26.6037 301.967 26.6152 304.308 26.6152C304.655 26.6152 305.003 26.6152 305.347 26.6433C305.457 26.645 305.561 26.689 305.639 26.7662C305.717 26.8434 305.762 26.9477 305.764 27.0572C305.78 27.2304 305.787 27.4044 305.783 27.5783C305.783 29.0955 305.773 30.6144 305.783 32.1316C305.793 32.342 305.754 32.5519 305.668 32.7442C305.582 32.9364 305.452 33.1057 305.288 33.2382C304.458 34.0044 303.686 34.8313 302.979 35.7119C301.947 37.0031 300.779 38.1559 299.6 39.307C298.142 40.7302 296.737 42.2078 295.296 43.6475C293.647 45.2966 291.963 46.9359 290.309 48.5949C289.758 49.1474 289.24 49.7328 288.722 50.3166C288.687 50.3663 288.663 50.4239 288.655 50.4844C288.646 50.5449 288.651 50.6067 288.671 50.6646C288.714 50.7078 288.766 50.7414 288.823 50.7633C288.879 50.7852 288.94 50.7948 289.001 50.7915C289.218 50.7923 289.434 50.7741 289.647 50.7371C291.443 50.4601 293.234 50.155 295.035 49.9126C296.831 49.6351 298.643 49.4808 300.459 49.4508C304.582 49.4409 308.705 49.4656 312.828 49.436C313.955 49.431 315.078 49.5549 316.177 49.8054C317.237 50.0212 318.28 50.315 319.297 50.6844C320.443 51.1247 321.621 51.344 322.817 51.5337C323.27 51.6046 323.379 51.6887 323.382 52.0812C323.394 53.8161 323.382 55.5443 323.382 57.2858C323.393 57.4375 323.361 57.5891 323.289 57.7231C323.217 57.8571 323.109 57.9679 322.976 58.0428C321.369 58.9993 320.008 60.3038 318.443 61.3097C318.158 61.5028 317.883 61.7103 317.618 61.9314C316.817 62.5952 315.959 63.1879 315.054 63.7026C314.597 63.95 314.163 64.2419 313.735 64.5272C312.016 65.6964 310.293 66.8591 308.591 68.053C307.333 68.9353 305.938 69.5208 304.491 69.9809C303.744 70.2013 303.013 70.4769 302.306 70.8054C302.195 70.873 302.078 70.9283 301.955 70.9703C300.172 71.3859 298.559 72.26 296.851 72.8734C294.851 73.5941 292.957 74.5605 291.046 75.4824C290.639 75.6786 290.616 75.8353 290.863 76.1882C291.009 76.4029 291.168 76.6088 291.338 76.805C292.059 77.6147 292.771 78.431 293.513 79.221C295.203 81.0235 296.889 82.8293 298.614 84.5988C301.185 87.2374 303.759 89.876 306.386 92.4635C308.951 94.9834 311.472 97.5544 314.284 99.812C314.858 100.274 315.379 100.802 315.933 101.296C316.18 101.507 316.373 101.774 316.497 102.074C316.621 102.374 316.672 102.699 316.645 103.023C316.598 104.408 316.632 105.798 316.632 107.185C316.632 107.36 316.632 107.533 316.624 107.706C316.593 108.201 316.477 108.333 316.006 108.345C315.181 108.363 314.356 108.345 313.532 108.356C313.186 108.356 312.838 108.356 312.491 108.368C312.326 108.368 312.119 108.368 312.034 108.556C311.776 109.107 311.284 109.05 310.811 109.05C309.291 109.05 307.773 109.05 306.256 109.05C305.823 109.067 305.391 108.998 304.984 108.848C302.356 107.792 299.567 107.347 296.818 106.752C293.553 106.073 290.325 105.226 287.147 104.215C283.895 103.15 280.617 102.164 277.35 101.145C277.226 101.104 277.099 101.074 276.971 101.054C276.864 101.031 276.752 101.051 276.66 101.109C276.567 101.167 276.501 101.259 276.476 101.366C276.411 101.661 276.379 101.962 276.382 102.264C276.372 103.349 276.382 104.433 276.382 105.518C276.403 105.864 276.399 106.211 276.369 106.557C275.983 109.144 276.161 111.748 276.123 114.344C276.123 114.692 276.123 115.038 276.11 115.386C276.114 115.451 276.104 115.516 276.082 115.577C276.06 115.638 276.025 115.694 275.979 115.74C275.934 115.787 275.88 115.823 275.82 115.848C275.759 115.872 275.695 115.883 275.63 115.881C275.457 115.893 275.284 115.896 275.11 115.896C273.592 115.896 272.074 115.886 270.555 115.896C269.902 115.909 269.265 115.691 268.758 115.279C267.289 114.135 265.789 113.022 264.342 111.854C263.466 111.15 262.663 110.353 261.805 109.623C260.685 108.67 259.544 107.739 258.413 106.798C258.274 106.695 258.144 106.581 258.024 106.456C256.732 104.934 255.191 103.653 253.901 102.119C252.873 100.891 251.757 99.7279 250.705 98.5257C250.115 97.8909 249.603 97.1878 249.179 96.4313C248.648 95.427 247.832 94.6288 247.158 93.7284C247.092 93.6417 247.008 93.5705 246.912 93.5197C246.816 93.469 246.71 93.44 246.602 93.4348C245.957 93.3804 245.312 93.3079 244.667 93.2699C244.148 93.232 243.962 93.4348 244.059 93.9791C244.255 95.0856 244.484 96.1873 244.699 97.2922C245.287 100.312 246.111 103.281 247.161 106.173C247.656 107.556 247.985 108.999 248.645 110.332C248.746 110.57 248.794 110.828 248.785 111.087C248.795 112.822 248.795 114.557 248.785 116.292C248.785 116.803 248.668 116.922 248.177 116.927C246.442 116.941 244.707 116.944 242.972 116.935C242.352 116.924 241.752 116.71 241.265 116.326C239.911 115.311 238.701 114.117 237.668 112.776C236.382 111.145 235.158 109.464 233.922 107.796C232.928 106.482 231.859 105.228 230.721 104.039C227.871 101.003 224.84 98.1464 221.98 95.1252C220.316 93.3672 218.575 91.662 217.163 89.6831C216.833 89.2131 216.695 89.1999 216.174 89.4324C215.857 89.5742 215.55 89.7358 215.239 89.8909C212.915 91.0551 210.6 92.2359 208.263 93.3771C206.546 94.2076 204.71 94.764 202.821 95.0263C200.123 95.4254 197.398 95.6184 194.671 95.6035C194.283 95.6035 193.895 95.6612 193.508 95.6942C192.861 95.7469 192.215 95.8591 191.569 95.8459C190.347 95.8261 189.159 96.0438 187.96 96.2252C186.38 96.4643 184.786 96.616 183.199 96.8288C181.055 97.1174 178.903 97.3614 176.777 97.7506C175.163 98.0458 173.581 98.5274 171.995 98.9545C171.67 99.0681 171.331 99.1369 170.987 99.159C169.338 99.159 167.689 99.159 166.04 99.159C165.344 99.159 165.252 99.0699 165.247 98.44C165.235 96.7051 165.247 94.9768 165.247 93.2353C165.247 92.9055 165.323 92.635 165.633 92.4717C166.787 91.8632 167.777 91.0321 168.802 90.2355C169.244 89.8868 169.709 89.5694 170.194 89.2856C172.938 87.7058 175.747 86.2529 178.587 84.8544C179.947 84.1849 181.268 83.4361 182.607 82.7237C185.02 81.4407 187.505 80.3077 189.98 79.1534C190.888 78.7396 191.765 78.2624 192.606 77.7252Z" fill="#FFF258"/>
<path d="M13.6618 37.3506C12.1741 37.3506 10.6871 37.3469 9.19942 37.3506C7.99021 37.3544 7.991 37.3732 8.0028 36.1513C8.0028 35.8741 7.9965 35.5968 8.0028 35.3226C8.02561 34.668 8.08146 34.6167 8.82021 34.5971C9.06803 34.5904 9.31585 34.5971 9.56367 34.5971H17.8685C18.1989 34.5971 18.5301 34.6024 18.8598 34.5851C19.2453 34.564 19.3995 34.4344 19.3617 34.0706C19.2673 33.1665 19.165 32.2625 19.01 31.3683C18.5695 28.8265 18.3523 26.2727 18.4711 23.6963C18.4955 23.1644 18.6112 23.0243 19.1076 23.0122C19.9329 22.9934 20.7597 22.9987 21.5858 23.0122C21.9611 23.0198 22.0862 23.1554 22.0972 23.5396C22.1129 24.0933 22.1098 24.6477 22.0972 25.1969C22.0972 25.3476 22.0775 25.5736 21.9784 25.6369C21.2703 26.0753 21.6039 26.7029 21.6637 27.249C21.7762 28.3082 21.9351 29.3644 22.1247 30.4131C22.2746 31.3115 22.3436 32.2206 22.3308 33.1304C22.3308 33.3278 22.3434 33.5259 22.3608 33.7225C22.4103 34.28 22.5102 34.3681 23.1373 34.3922C23.426 34.4035 23.7155 34.3968 24.0027 34.3968C26.0269 34.3968 28.052 34.4013 30.0763 34.3968C30.6207 34.3968 31.1376 34.4374 31.6151 34.7403C31.8433 34.8849 31.9983 35.0236 31.9936 35.291C31.9936 35.3309 31.9936 35.3663 31.9936 35.41C31.9432 37.9661 32.4286 37.5292 29.841 37.5947C28.8372 37.6211 27.8742 37.3928 26.9018 37.2549C25.6355 37.0657 24.3445 37.0879 23.0861 37.3205C22.7541 37.383 22.5732 37.5375 22.5763 37.8712C22.6007 40.1207 22.4048 42.3807 22.8698 44.6098C23.0672 45.5553 22.9634 46.5007 22.965 47.4462C22.965 47.804 22.7935 47.9554 22.4394 47.9811C22.1106 48.0044 21.7786 47.9976 21.4489 47.9991C19.5332 48.0067 20.1044 47.9991 19.6732 46.4397C19.6017 46.1806 19.6567 45.889 19.6567 45.611C19.6567 43.4354 19.6567 41.2595 19.6567 39.0833C19.6567 38.727 19.6567 38.3707 19.6284 38.0158C19.5859 37.4305 19.5183 37.3597 18.8629 37.3551C17.1274 37.3438 15.3926 37.3514 13.6571 37.3514L13.6618 37.3506Z" fill="#FA8AA7"/>
<path d="M115.337 25.0491C115.295 25.4608 115.247 25.8722 115.214 26.2847C115.193 26.5369 115.116 26.7776 115.055 27.0217C114.959 27.4021 114.762 27.7507 114.602 28.1107C114.505 28.3317 114.326 28.5118 114.155 28.693C114.026 28.8303 113.887 28.9624 113.745 29.0906C113.531 29.2827 113.324 29.4823 113.09 29.6563C112.365 30.1954 111.549 30.6117 110.61 30.8547C110.536 30.8723 110.464 30.894 110.394 30.9197C110.062 31.0478 109.707 31.117 109.355 31.1949C109.068 31.259 108.781 31.323 108.495 31.389C107.825 31.5458 107.144 31.6156 106.438 31.5368C105.726 31.4573 105.011 31.3925 104.298 31.3179C103.884 31.2742 103.478 31.1903 103.073 31.1009C102.818 31.0438 102.574 30.9544 102.349 30.8358C101.939 30.6241 101.522 30.4187 101.15 30.1615C100.855 29.958 100.561 29.7512 100.332 29.4865C100.091 29.2053 99.8346 28.9325 99.595 28.6502C99.4291 28.4555 99.2795 28.2517 99.1473 28.0402C99.0384 27.8648 98.9112 27.6974 98.8022 27.5224C98.5616 27.1355 98.2986 26.7581 98.1268 26.3437C98.0493 26.1579 97.9558 25.9757 97.8867 25.7876C97.6838 25.2289 97.5843 24.6566 97.5282 24.0796C97.5066 23.8603 97.4983 23.6424 97.4723 23.4227C97.4464 23.2029 97.4659 22.9847 97.4845 22.7673C97.5236 22.3144 97.565 21.8617 97.6217 21.4109C97.6914 20.8644 97.7881 20.3221 98.0165 19.8071C98.1339 19.5441 98.2762 19.2899 98.4419 19.0471C98.7949 18.5342 99.2198 18.06 99.7079 17.6343C99.76 17.5881 99.8169 17.5452 99.8735 17.5028C99.916 17.4708 99.967 17.4462 100.005 17.411C100.475 16.9812 101.031 16.6289 101.529 16.2243C102.034 15.813 102.583 15.4417 103.218 15.1734C103.654 14.992 104.111 14.8459 104.582 14.7369C105.06 14.6216 105.549 14.5369 106.045 14.4836C106.284 14.458 106.526 14.458 106.767 14.4836C107.307 14.5432 107.846 14.5968 108.387 14.6474C108.735 14.6838 109.072 14.7823 109.375 14.9362C109.638 15.0647 109.888 15.2131 110.12 15.3794C110.337 15.535 110.567 15.6771 110.787 15.829C111.191 16.1077 111.551 16.4242 111.904 16.7482C112.05 16.8824 112.2 17.0139 112.349 17.145C112.451 17.2344 112.561 17.3175 112.658 17.4104C112.962 17.7026 113.277 17.9896 113.563 18.2943C114.003 18.7619 114.355 19.283 114.604 19.838C114.901 20.5018 115.089 21.1869 115.236 21.8798C115.279 22.0807 115.328 22.2808 115.371 22.4826C115.388 22.5464 115.396 22.6117 115.392 22.6765C115.367 22.8647 115.404 23.048 115.451 23.2323C115.486 23.3847 115.494 23.5398 115.474 23.6924C115.428 24.145 115.382 24.5972 115.337 25.0491ZM103.261 22.8753C103.248 22.9831 103.251 23.0924 103.27 23.2006C103.324 23.5162 103.439 23.8225 103.523 24.1334C103.59 24.3727 103.685 24.6064 103.808 24.8309C104.006 25.1989 104.254 25.5447 104.495 25.8929C104.761 26.2742 105.131 26.569 105.54 26.8244C105.973 27.0996 106.464 27.3007 106.985 27.4156C107.068 27.4388 107.156 27.446 107.242 27.4366C107.543 27.3892 107.846 27.3476 108.145 27.2975C108.777 27.1929 109.29 26.9065 109.763 26.5676C110.083 26.34 110.359 26.076 110.637 25.8142C110.88 25.586 111.046 25.3152 111.227 25.0526C111.409 24.7883 111.501 24.4854 111.494 24.1754C111.493 23.8098 111.421 23.4473 111.396 23.0826C111.36 22.5457 111.2 22.0206 111.033 21.4988C110.997 21.3879 110.964 21.2769 110.924 21.1674C110.901 21.0961 110.87 21.0269 110.83 20.9609C110.443 20.3841 110.014 19.8336 109.375 19.4197C108.843 19.0767 108.248 18.8121 107.616 18.638C107.552 18.6153 107.483 18.6098 107.416 18.6222C107.188 18.6801 106.952 18.7284 106.753 18.8419C106.375 19.0571 106.002 19.2778 105.705 19.5734C105.608 19.6709 105.507 19.7667 105.4 19.8574C105.058 20.1488 104.783 20.4854 104.504 20.8176C104.222 21.1489 103.97 21.4977 103.749 21.8611C103.621 22.0755 103.494 22.291 103.386 22.5133C103.325 22.6474 103.27 22.7862 103.262 22.8754L103.261 22.8753Z" fill="#FA8AA7"/>
<path d="M47.3306 72.6198C46.2121 71.0329 45.0616 69.5736 44.0912 67.9846C42.3045 65.0595 40.1935 62.4089 38.2047 59.6567C37.6852 58.9502 37.1181 58.2861 36.508 57.6699C35.4895 56.6278 34.295 56.0225 32.8464 56.0441C30.7595 56.0765 28.6607 55.8993 26.5878 56.0895C23.5125 56.3684 20.7853 57.8191 18.2763 59.6762C15.5071 61.7344 13.1721 64.3244 10.9492 67.0268C9.56458 68.7045 8.30203 70.5054 7.0455 72.2998C3.37595 77.5361 1.51917 83.609 0.196609 89.9154C0.0863647 90.4674 0.0307312 91.0305 0.0305634 91.5952C-0.00944519 96.4467 -0.123505 101.3 0.630829 106.113C1.00618 108.571 1.94278 110.889 3.35596 112.858C4.35637 114.278 5.65491 115.02 7.38763 114.99C14.6927 114.903 22.0098 115.173 29.2969 114.774C36.49 114.384 43.683 114.462 50.8701 114.162C53.3671 114.058 55.8722 113.82 58.3452 113.481C65.0661 112.558 71.8669 112.449 78.5538 111.059C80.5926 110.627 82.6955 110.551 84.7704 110.335C88.9202 109.903 93.0659 109.28 97.2257 109.129C100.351 109.036 103.477 109.257 106.564 109.79C115.982 111.366 125.448 111.736 134.95 111.557C136.276 111.528 137.551 111.498 138.731 110.4C139.303 109.864 140.532 110.143 141.454 110.052C141.925 110.006 142.255 109.725 142.289 109.228C142.539 105.084 143.345 100.944 142.833 96.7948C142.507 94.142 141.723 91.552 141.104 88.9469C140.354 85.7947 138.503 83.6328 135.832 82.2275C132.08 80.2537 128.303 78.2949 124.227 77.255C119.147 75.9622 113.909 75.5499 108.709 76.0335C104.447 76.3741 100.243 77.2982 96.1973 78.7835C95.3509 79.0992 94.7446 78.7835 94.3345 78.0463C93.256 76.1006 91.8174 74.4661 90.4968 72.7257C88.508 70.1033 86.3631 67.6646 83.866 65.6151C81.7551 63.8855 79.4462 62.664 76.689 62.7246C74.4881 62.77 72.3051 62.7418 70.1142 62.7246C63.5514 62.6964 57.5849 64.6422 52.3067 68.9207C50.71 70.1855 49.0473 71.3399 47.3306 72.6198Z" fill="#D3F44B"/>
<path d="M47.5243 9.16111C48.6287 8.93932 49.7446 8.75891 50.8369 8.4857C52.7865 7.99996 54.7757 7.87125 56.7632 7.89261C58.2283 7.90953 59.6949 8.13476 61.1517 8.33669C62.2644 8.49167 63.3835 8.56126 64.4786 8.91322C64.9789 9.05234 65.4593 9.25488 65.9083 9.5159C67.6061 10.5828 69.1666 11.8034 70.3246 13.4817C71.3811 15.0155 72.4817 16.5169 73.5463 18.049C74.4119 19.2445 75.062 20.582 75.4671 22.0013C75.5027 22.1261 75.5448 22.2491 75.5932 22.3696C75.9996 23.4217 75.9986 23.4252 77.135 23.5889C77.7777 23.6819 78.4207 23.7764 79.067 23.8451C80.0988 23.9575 81.088 24.2516 82.0915 24.5412C83.9057 25.065 85.5348 25.9321 87.1559 26.8428C87.7573 27.187 88.3139 27.604 88.8131 28.0844C90.6679 29.8416 92.4183 31.7058 94.0555 33.6673C94.392 34.0629 94.7581 34.4325 95.1505 34.7728C95.6513 35.1867 96.1055 35.6538 96.5052 36.166C96.6543 36.3795 96.8253 36.5768 97.0154 36.7548C97.9119 37.5336 98.5272 38.5201 99.1745 39.4986C100.007 40.765 100.694 42.1211 101.223 43.5413C101.258 43.6667 101.312 43.7863 101.382 43.8963C102.089 44.7887 102.198 45.8821 102.415 46.9386C102.632 47.995 102.842 49.0647 103.055 50.127C103.111 50.3799 103.14 50.638 103.141 50.897C103.14 51.0281 103.098 51.1557 103.021 51.2617C102.944 51.3678 102.836 51.4469 102.711 51.4879C102.59 51.5338 102.465 51.5696 102.337 51.5949C100.68 51.9278 99.0228 52.269 97.3639 52.5938C96.7916 52.7087 96.7579 52.6583 96.5484 52.0595C95.9474 50.2981 95.1367 48.6154 94.1339 47.0475C92.9394 45.2432 91.5246 43.5949 89.9222 42.1407C89.07 41.348 88.3438 40.4207 87.5747 39.5391C86.233 38.0057 84.8032 36.5517 83.2923 35.1848C82.7589 34.7408 82.1746 34.3618 81.5517 34.0558C80.5632 33.5226 79.5447 33.0409 78.5339 32.5475C78.4131 32.5004 78.2827 32.4833 78.1538 32.4977C78.0274 32.5046 77.8871 32.5513 77.8762 32.7065C77.8573 32.8772 77.8659 33.0499 77.9015 33.2178C78.1734 34.2785 78.1539 35.3538 78.1648 36.4383C78.1809 37.9604 77.7964 39.46 77.0499 40.7866C76.0294 42.6484 74.9542 44.4808 73.6632 46.1766C72.6882 47.4523 71.64 48.6653 70.2464 49.5155C69.5143 49.9808 68.7035 50.3089 67.8538 50.4838C65.343 50.969 62.8352 51.4727 60.3307 51.9947C59.6088 52.1412 58.8659 52.1518 58.1401 52.026C56.4963 51.764 55.0078 51.1698 53.5384 50.3531C51.8455 49.4113 50.8059 48.0121 49.9456 46.3834C49.7252 45.9603 49.5669 45.5078 49.4755 45.0396C49.0741 43.0412 48.6922 41.0389 48.2636 39.0476C48.1312 38.4384 48.1845 37.95 48.7029 37.5498C48.871 37.4119 49.0124 37.2445 49.1201 37.0556C50.455 34.8497 52.3158 33.0765 53.9906 31.1557C55.1089 29.873 56.5454 28.9605 57.9778 28.0521C58.8905 27.4679 59.8515 26.9625 60.8501 26.5417C61.0835 26.427 61.3279 26.3362 61.5796 26.2707C63.3623 25.9345 65.0386 25.1353 66.8596 24.9226C67.0312 24.8971 67.2006 24.8586 67.3663 24.8074C67.6852 24.7198 67.794 24.4911 67.6059 24.2328C66.6177 22.8636 65.6598 21.4698 64.6122 20.1478C63.4645 18.6963 61.9132 17.7227 60.3481 16.789C60.0056 16.6012 59.6334 16.4734 59.2478 16.4112C56.7797 15.9397 54.2939 15.5558 51.7828 15.4647C50.7887 15.4483 49.7945 15.4857 48.8045 15.5768C48.5062 15.6267 48.2186 15.7271 47.9541 15.8737C46.1025 16.7277 44.4018 17.8765 42.9183 19.2754C42.1549 19.9804 41.4026 20.6983 40.6833 21.4467C40.4572 21.7069 40.1525 21.8862 39.8153 21.9574C38.1984 22.2822 36.5816 22.6069 34.9631 22.9235C34.2857 23.0596 34.1792 22.9901 34.0484 22.3638C33.701 20.7094 33.3823 19.0476 33.0349 17.3933C32.9751 17.1623 32.9809 16.9193 33.0517 16.6914C33.1224 16.4636 33.2552 16.26 33.4352 16.1035C35.0663 14.5513 36.654 12.9507 38.6246 11.7913C39.9419 11.0221 41.2894 10.3696 42.8148 10.1087C44.3845 9.82538 45.9544 9.47643 47.5243 9.16111ZM70.5975 31.4401C70.5155 31.1403 70.3475 31.0328 70.1104 31.0333C69.6541 31.0223 69.2872 31.2895 68.8863 31.4373C66.1494 32.43 63.6681 34.0201 61.6228 36.092C60.3192 37.4152 59.1266 38.8473 57.9003 40.2458C57.6544 40.548 57.4381 40.8731 57.2543 41.2166C56.9868 41.6774 57.0491 41.8701 57.5186 42.1728C58.0309 42.4954 58.5728 42.7735 59.0718 43.114C59.6522 43.4949 60.2832 43.7922 60.9464 43.9973C62.7487 44.5958 63.2495 44.4179 64.567 43.0044C65.3971 42.1127 66.0626 41.1044 66.8086 40.1539C68.0751 38.537 68.9785 36.7206 69.9312 34.9229C70.504 33.8138 70.5768 32.5931 70.5966 31.4352L70.5975 31.4401Z" fill="#FFF258"/>
</svg>
