<svg width="158" height="91" viewBox="0 0 158 91" fill="none" xmlns="http://www.w3.org/2000/svg">
<path d="M94.2241 31.0408C94.8837 30.2838 95.4527 29.7578 95.8732 29.1344C97.148 27.2643 98.7889 25.7075 100.196 23.9512C102.209 21.4511 104.593 19.2733 107.264 17.4932C110.001 15.6577 113.07 14.4225 116.499 14.4538C118.664 14.4753 120.831 14.4983 122.995 14.4423C124.314 14.4076 125.558 14.6962 126.822 15.0129C128.087 15.3295 128.933 16.1145 129.549 17.2211C130.251 18.5238 130.606 19.986 130.578 21.4659C130.578 24.9291 130.611 28.3923 130.578 31.8555C130.531 36.5407 129.859 41.1549 129.016 45.7544C128.747 47.2155 128.28 48.6057 127.791 49.986C126.801 52.7582 125.78 55.5172 124.674 58.2433C123.916 60.1808 122.947 62.0291 121.784 63.7547C119.815 66.6027 117.93 69.5085 115.917 72.3302C114.182 74.7511 112.028 76.8274 109.342 78.1021C106.306 79.5534 103.12 80.6566 99.7404 81.1547C96.8066 81.5867 93.8712 81.4845 90.9308 81.5389C86.4253 81.6131 81.938 81.4631 77.4755 80.7671C76.6192 80.6212 75.7443 80.6212 74.888 80.7671C73.3394 81.064 71.7876 81.097 70.2308 81.0871C68.4893 81.0871 66.7874 81.3691 65.0707 81.5818C62.155 81.9512 59.2311 82.2497 56.3088 82.5713C55.8784 82.6196 55.4457 82.645 55.0126 82.6471C50.0751 82.6471 45.1294 82.8351 40.2034 82.6026C34.7893 82.347 29.6489 80.9287 24.9555 78.0362C22.9765 76.8108 20.8327 75.8214 18.8141 74.6604C17.5394 73.9282 16.314 73.1053 15.1019 72.2708C13.123 70.9103 11.7608 69.0467 10.8257 66.8633C10.3706 65.7963 9.56086 65.0196 8.83194 64.1637C7.65446 62.7817 6.45223 61.4162 5.35721 59.9682C2.74003 56.5051 1.27066 52.5472 0.556583 48.3155C-0.282826 43.3384 0.00742283 38.3366 0.269635 33.3084C0.46918 29.5153 2.19252 26.3391 3.62892 23.031C4.7998 20.333 6.25104 17.7669 7.81607 15.2668C9.69114 12.2671 12.2687 10.2947 15.7204 9.37283C18.2501 8.69504 20.7783 8.23657 23.4037 8.39654C24.2681 8.46663 25.1367 8.46663 26.0011 8.39654C29.4511 8.04362 32.4541 9.22112 35.3055 10.9873C35.8219 11.304 36.3548 11.593 36.9018 11.8531C39.6295 13.1823 41.3924 15.2998 42.217 18.2237C42.8948 20.6364 43.6188 23.0359 44.3411 25.437C44.3773 25.5081 44.4298 25.5696 44.4943 25.6166C44.5588 25.6636 44.6334 25.6947 44.7121 25.7075C44.7878 25.7056 44.8619 25.6849 44.9275 25.6471C44.9932 25.6094 45.0484 25.5559 45.0881 25.4915C45.2085 25.1715 45.253 24.8219 45.3487 24.4921C46.8065 19.581 48.6338 14.8364 51.3334 10.4431C52.4218 8.67195 53.4113 6.881 54.9615 5.42316C56.8778 3.60912 59.0711 2.24857 61.3535 1.01666C62.6649 0.331217 64.1272 -0.0146381 65.6067 0.0106951C68.0325 0.0106951 70.4584 0.0354426 72.8843 0.00081076C73.9447 -0.0156806 74.9589 0.221795 75.9517 0.495551C79.6334 1.47579 83.2164 2.79525 86.6545 4.43698C87.5781 4.8806 88.3894 5.56663 89.2387 6.16032C90.4662 7.00807 91.3165 8.29943 91.6102 9.76202C92.3375 13.0603 93.0367 16.3421 93.1225 19.7442C93.2 22.7671 93.4688 25.7867 93.6997 28.8046C93.7524 29.4807 93.9981 30.1255 94.2241 31.0408Z" fill="#F55B1D"/>
<path d="M117.996 57.6794C118.919 56.4687 119.869 55.3554 120.671 54.1431C122.146 51.9115 123.889 49.8894 125.531 47.7897C125.96 47.2507 126.428 46.7441 126.932 46.274C127.773 45.479 128.759 45.0172 129.955 45.0337C131.679 45.0584 133.412 44.9231 135.123 45.0683C137.663 45.2811 139.915 46.3878 141.986 47.8046C144.273 49.3748 146.201 51.3507 148.036 53.4125C149.18 54.6924 150.222 56.0663 151.26 57.4353C154.29 61.43 155.823 66.0631 156.915 70.8743C157.006 71.2954 157.052 71.725 157.052 72.1559C157.085 75.8571 157.179 79.5599 156.556 83.2314C156.246 85.1068 155.473 86.8755 154.306 88.3774C153.48 89.4611 152.408 90.0268 150.977 90.0037C144.945 89.9377 138.903 90.1439 132.886 89.8388C126.947 89.5419 121.008 89.6013 115.073 89.372C113.011 89.2928 110.943 89.1114 108.901 88.8524C103.351 88.1482 97.7357 88.0657 92.2142 87.0051C90.5307 86.6753 88.7943 86.6176 87.0811 86.4526C83.6545 86.1228 80.2313 85.6477 76.7965 85.5323C74.2163 85.4613 71.6349 85.6302 69.086 86.037C61.3095 87.2394 53.4932 87.5214 45.6473 87.3845C44.5519 87.3631 43.4995 87.34 42.5248 86.5021C42.0523 86.093 41.0379 86.3058 40.2762 86.2366C39.888 86.2019 39.6154 85.9875 39.5873 85.6081C39.3808 82.4463 38.715 79.2878 39.1379 76.1226C39.4072 74.0988 40.0548 72.1229 40.5653 70.1354C41.1849 67.7306 42.7131 66.0813 44.9187 65.0092C48.0164 63.5033 51.1357 62.009 54.5011 61.2156C58.6959 60.2293 63.0212 59.9147 67.315 60.2837C70.8336 60.5436 74.305 61.2485 77.6457 62.3817C78.3446 62.6225 78.8452 62.3817 79.1839 61.8193C80.0744 60.3349 81.2623 59.0879 82.3527 57.7602C83.9949 55.7595 85.766 53.899 87.8278 52.3354C89.5708 51.0159 91.4774 50.084 93.754 50.1302C95.5714 50.1648 97.3738 50.1434 99.1829 50.1302C104.602 50.1088 109.529 51.5932 113.887 54.8573C115.205 55.8222 116.578 56.7029 117.996 57.6794Z" fill="#FFF258"/>
</svg>
