<svg width="673" height="377" viewBox="0 0 673 377" fill="none" xmlns="http://www.w3.org/2000/svg">
<mask id="mask0_520_4880" style="mask-type:alpha" maskUnits="userSpaceOnUse" x="0" y="0" width="673" height="377">
<rect width="673" height="377" fill="#1F2225"/>
</mask>
<g mask="url(#mask0_520_4880)">
<rect width="673" height="377" fill="#1F2225"/>
<path d="M274.27 264.372C277.347 262.445 280.491 260.618 283.475 258.568C286.952 256.178 290.447 255.43 294.014 256.109C297.581 256.787 301.179 257.454 304.615 258.409C311.512 260.324 318.099 262.726 324.047 266.137C333.591 271.61 343.247 276.949 352.83 282.372C360.317 286.609 367.988 290.645 374.203 296.314C374.757 296.859 375.396 297.328 376.105 297.711C383.672 301.442 387.469 308.129 391.284 314.792C393.354 318.41 392.675 320.294 388.229 323.229C385.002 325.359 381.681 327.356 378.39 329.392C377.777 329.776 377.085 330.408 376.518 330.431C370.444 330.689 364.721 334.891 358.474 334.605C352.536 334.342 346.319 335.013 340.198 335.473C333.394 335.981 326.571 336.509 319.731 337.411C311.948 338.437 304.893 337.243 298.406 335.114C288.515 331.873 279.17 327.716 271.644 321.298C270.765 320.554 269.677 319.894 269.085 318.949C264.77 311.939 259.368 305.511 257.173 297.328C255.278 290.223 255.199 282.824 260.082 275.067C261.234 273.102 262.957 271.381 265.024 270.129C268.153 268.277 271.199 266.3 274.27 264.372Z" fill="#004628"/>
<path d="M422.375 279.007C421.646 272.38 421.185 266.021 421.82 259.585C422.189 255.886 421.658 252.292 421.416 248.665C421.334 247.463 420.547 246.45 420.458 245.195C420.201 241.763 419.402 238.437 419.067 235.008C418.627 230.493 418.343 225.926 417.297 221.522C416.86 219.767 416.259 218.065 415.503 216.439C413.837 212.819 412.537 209.024 411.622 205.109C410.839 201.774 409.576 198.595 407.874 195.67C406.053 192.479 404.189 189.317 401.899 186.457C399.623 183.588 396.935 181.084 393.92 179.023C393.31 178.609 392.741 178.335 392.018 178.898C391.409 179.385 390.915 178.962 390.388 178.682C388.975 177.931 388.963 177.947 387.937 179.2C387.675 179.521 387.422 179.851 387.181 180.188C384.528 183.838 384.363 182.509 386.258 187.222C388.409 192.602 390.445 198.025 392.237 203.545C393.318 206.861 394.043 210.32 394.914 213.716C395.012 214.107 395.063 214.511 395.065 214.92C395.093 221.38 396.592 227.52 398.274 233.624C398.89 235.861 399.021 238.218 399.117 240.546C399.282 244.404 399.262 248.273 399.539 252.113C399.715 254.529 400.262 256.896 400.683 259.282C401.687 264.778 401.794 270.334 401.475 275.97C401.301 279.123 401.395 282.283 401.428 285.436C401.459 288.694 401.462 291.949 401.679 295.183C401.959 299.349 401.646 303.505 401.348 307.681C401.169 310.117 401.284 312.56 401.128 314.998C400.732 321.108 400.289 327.217 399.799 333.326C399.577 336.07 399.178 338.808 398.857 341.548C398.812 341.953 398.829 342.38 398.703 342.764C397.419 346.687 396.847 350.757 395.705 354.723C394.629 358.462 393.396 362.201 392.883 366.073C392.759 366.883 392.582 367.686 392.354 368.477C391.294 372.45 390.091 376.404 390.342 380.542C390.35 380.949 390.298 381.359 390.186 381.756C389.649 383.89 390.254 385.396 392.095 386.565C394.176 387.885 396.064 389.5 398.065 390.949C398.951 391.59 399.432 391.516 400.14 390.652C402.182 388.168 404.158 385.652 405.134 382.51C405.495 381.341 406.167 380.263 406.64 379.123C407.988 375.883 409.331 372.641 410.631 369.384C412.469 364.775 413.871 360.036 415.084 355.252C415.459 353.757 415.74 352.243 415.925 350.72C416.626 345.037 417.263 339.351 417.949 333.668C418.07 332.654 418.278 331.646 418.489 330.64C418.743 329.432 419.015 328.239 418.843 327C418.629 325.458 419.299 323.975 419.443 322.451C419.546 321.363 419.14 320.041 420.047 319.268C420.806 318.623 421.99 318.912 422.985 318.918C424.934 318.932 426.793 318.26 428.633 317.751C436.184 315.658 443.706 313.43 451.222 311.161C455.232 309.947 458.977 308.084 462.633 305.89C469.252 301.921 475.842 297.89 482.588 294.14C486.444 291.997 490.12 289.482 493.784 286.99C496.935 284.845 500.207 282.889 503.182 280.459C506.641 277.634 509.858 274.596 512.537 270.989C513.774 269.323 515.026 267.67 516.323 266.045C518.286 263.592 519.589 260.777 520.942 257.989C521.611 256.611 521.51 255.152 521.112 253.8C520.571 251.964 519.752 250.317 518.094 249.157C515.504 247.344 513.019 245.383 510.553 243.405C508.6 241.84 506.42 240.758 504.075 239.901C501.377 238.917 498.733 237.8 496 236.907C492.188 235.648 488.199 235.391 484.145 235.64C481.434 235.804 478.718 236.003 476.008 236.075C473.897 236.143 471.801 236.624 469.833 237.49C464.33 239.823 459.262 242.989 454.223 246.19C450.225 248.729 446.596 251.82 443.214 255.197C441.601 256.801 439.901 258.326 438.161 259.788C436.716 261 435.528 262.422 434.391 263.906C431.048 268.273 427.711 272.645 424.35 276.998C423.842 277.642 423.491 278.411 422.375 279.007Z" fill="#004628"/>
<path d="M261.151 127.983C260.581 126.929 259.837 126.037 258.97 125.368C256.398 123.13 254.206 120.4 252.076 117.594C250.605 115.58 249.436 113.253 248.624 110.726C247.877 108.515 247.243 106.24 246.66 103.952C245.942 101.167 245.541 98.2717 245.467 95.3515C245.346 90.2399 245.304 85.1236 245.294 80.0107C245.277 76.755 245.998 73.5642 247.373 70.8054C249.748 66.0127 252.866 61.8618 256.546 58.5941C258.295 57.0261 260.286 56.2691 262.281 55.659C263.867 55.1687 265.565 54.9748 267.2 54.6427C272.777 53.5157 278.385 54.2382 283.968 53.9051C285.73 53.8484 287.475 54.3766 289.024 55.4357C291.865 57.2335 294.718 58.9995 297.771 60.1955C298.258 60.3666 298.722 60.6291 299.146 60.9739C301.143 62.7218 303.567 63.4922 305.518 65.3636C306.213 66.0346 306.769 65.6869 306.864 64.5068C307.096 61.6738 308.131 59.1295 308.618 56.3889C308.894 54.8336 309.671 53.5109 310.547 52.4252C311.776 50.8694 313.121 49.4638 314.565 48.2274C317.822 45.511 321.171 42.9603 324.493 40.3623C326.184 39.0219 327.985 37.9115 329.867 37.0503C332.62 35.8282 335.362 34.5586 338.078 33.2218C339.883 32.336 341.775 31.9137 343.661 31.5113C345.63 31.092 347.637 30.9581 349.617 30.5983C351.926 30.1752 354.239 29.752 356.52 29.1426C359.789 28.2743 363.125 27.8584 366.47 27.9026C370.653 27.9585 374.838 27.9111 379.023 27.7605C379.773 27.6945 380.526 27.8219 381.236 28.1349C381.947 28.4478 382.598 28.9396 383.15 29.5795C383.987 30.6086 384.968 31.4384 386.043 32.0278C386.747 31.2849 387.368 30.4274 387.889 29.4782C390.422 25.2073 393.394 21.3715 396.73 18.0686C397.714 17.1045 398.643 16.0554 399.509 14.9289C401.377 12.5475 403.446 10.424 405.679 8.59489C408.808 6.00301 411.92 3.38748 415.039 0.783801C416.29 -0.260833 417.649 -1.09064 419.079 -1.68342C421.769 -2.7976 424.378 -4.29988 427.213 -4.75672C430.266 -5.24781 433.277 -6.12344 436.397 -6.07937C440.498 -6.01729 444.599 -6.06372 448.699 -6.21864C452.174 -6.33738 455.502 -5.38261 458.848 -4.42809C461.305 -3.75381 463.641 -2.51483 465.737 -0.774637C466.247 -0.417651 466.705 0.0442453 467.093 0.59145C468.987 3.69413 470.6 7.0104 471.407 10.7923C472.751 17.0333 474.209 23.261 474.975 29.6475C475.355 32.8189 475.821 35.9893 475.769 39.2609C475.691 44.1644 475.861 49.0729 475.897 53.979C475.932 58.7422 474.598 62.9453 472.393 66.7216C471.894 67.5511 471.433 68.4151 471.012 69.3096C470.023 71.3589 468.941 73.3366 467.772 75.2332C464.862 80.2044 461.028 83.8126 456.927 87.0705C455.87 87.9081 454.859 88.8326 453.838 89.7373C453.768 89.7924 453.711 89.8698 453.673 89.9615C453.635 90.0533 453.617 90.1561 453.621 90.2595C453.626 90.3629 453.652 90.4631 453.698 90.5498C453.743 90.6366 453.807 90.7067 453.881 90.7531C456.812 92.3514 459.422 94.6283 462.108 96.7574C463.113 97.5221 463.977 98.5433 464.644 99.7535C465.073 100.527 465.58 101.229 466.151 101.844C468.559 104.505 470.356 107.779 472.28 110.953C473.081 112.289 473.778 113.715 474.605 115.035C476.906 118.677 478.318 122.972 480.3 126.844C480.574 127.373 480.761 127.965 480.848 128.584C481.046 130.051 481.57 131.355 482.028 132.703C483.4 136.635 484.118 140.869 484.139 145.148C484.144 149.741 484.151 154.338 484.295 158.925C484.469 164.175 483.881 169.299 483.178 174.419C482.402 180.069 481.252 185.6 480.143 191.15C479.73 193.169 479.11 195.112 478.299 196.931C477.447 198.858 476.188 200.456 474.658 201.553C473.805 202.193 472.983 202.896 472.196 203.657C470.372 205.341 468.283 206.409 466.138 207.263C462.398 208.75 458.507 209.501 454.655 210.318C452.366 210.805 450.036 211.129 447.741 211.667C447.08 211.787 446.411 211.836 445.743 211.813C440.218 211.875 434.692 211.91 429.17 212.024C427.582 212.053 426.008 211.618 424.575 210.754C422.149 209.345 419.801 207.712 417.382 206.334C414.261 204.555 411.357 202.234 408.129 200.754C407.726 200.601 407.345 200.37 407 200.068C405.285 198.381 403.238 197.3 401.538 195.625C399.227 193.337 396.505 191.863 394.203 189.575C393.826 189.182 393.405 189.409 393.221 190.022C392.233 193.336 391.169 196.623 390.284 199.98C389.176 204.172 387.426 207.9 385.59 211.64C384.109 214.662 382.506 217.554 380.893 220.458C379.505 222.955 377.761 225.043 376.176 227.316C375.973 227.655 375.707 227.93 375.403 228.118C373.31 229.142 371.476 230.787 369.319 231.708C365.454 233.364 361.672 235.312 357.86 237.154C354.127 238.954 350.414 240.763 346.569 242.228C341.926 244.003 337.186 245.168 332.488 246.615C331.594 246.868 330.679 246.989 329.761 246.975C323.65 247.044 317.539 247.137 311.431 247.183C308.227 247.282 305.085 246.017 302.525 243.596C301.314 242.478 300.166 241.259 299.087 239.947C296.653 236.918 293.792 234.481 291.47 231.3C290.177 229.52 288.821 227.809 287.515 226.045C287.226 225.665 286.989 225.229 286.812 224.755C285.439 220.94 284.248 217.031 283.899 212.851C283.689 210.364 283.082 207.946 283.146 205.412C283.16 204.73 282.841 204.023 282.658 203.334C282.635 203.208 282.591 203.089 282.528 202.985C282.466 202.881 282.386 202.795 282.295 202.733C282.204 202.67 282.103 202.633 282 202.623C281.896 202.612 281.793 202.63 281.695 202.674C278.731 203.724 275.769 204.777 272.818 205.871C272.335 206.037 271.879 206.311 271.474 206.68C269.343 208.729 266.786 209.833 264.468 211.471C261.879 213.307 258.985 214.459 256.025 215.286C252.69 216.225 249.276 216.678 245.854 216.636C241.167 216.566 236.48 216.718 231.791 216.76C230.538 216.763 229.287 216.91 228.056 217.199C226.903 217.468 225.733 217.614 224.559 217.635C220.209 217.728 215.857 217.734 211.51 217.783C210.258 217.757 209.01 217.596 207.78 217.301C204.465 216.628 201.252 215.462 198.046 214.295C193.994 212.873 190.302 210.167 187.329 206.442C186.21 205.012 185.476 203.184 185.232 201.214C184.775 198.031 184.552 194.805 184.566 191.575C184.579 186.251 184.55 180.924 184.385 175.607C184.258 171.67 184.935 167.947 185.794 164.246C186.893 159.565 188.705 155.412 191.731 152.202C192.106 151.788 192.443 151.322 192.734 150.813C193.595 149.416 194.724 148.311 196.018 147.6C199.844 145.302 203.752 143.241 207.594 140.987C207.748 140.907 207.897 140.812 208.039 140.704C212.65 136.896 217.794 134.889 223.223 133.915C225.371 133.529 227.431 132.743 229.535 132.16C233.281 131.117 237.034 130.109 240.792 129.135C241.532 128.971 242.284 128.896 243.037 128.911C246.133 128.852 249.23 128.841 252.327 128.806C254.081 128.786 255.828 128.766 257.558 128.286C258.589 127.988 259.708 128.091 261.151 127.983Z" fill="#F55B1D"/>
<path d="M349.982 152.817C347.5 152.817 345.015 152.728 342.538 152.833C336.561 153.089 331.323 151 326.676 147.528C323.865 145.422 321.614 142.677 322.079 138.672C322.194 137.51 322.194 136.339 322.079 135.177C321.764 131.435 323.32 128.33 325.513 125.538C327.578 122.907 329.851 120.435 332.1 117.954C336.146 113.493 340.952 109.898 345.978 106.67C349.548 104.37 353.508 102.831 357.914 103.006C359.515 103.08 361.109 102.759 362.556 102.07C365.06 100.909 367.67 99.9701 370.267 99.0312C371.097 98.7619 371.966 98.6314 372.838 98.6451C376.926 98.6062 381.014 98.6451 385.1 98.6145C386.753 98.6145 388.255 99.0562 389.755 99.6646C392.572 100.809 395.279 102.104 398.46 102.32C401.399 102.52 404.813 106.737 405.311 110.073C405.432 111.087 405.478 112.108 405.451 113.129C405.467 116.482 405.292 119.843 405.504 123.182C405.712 126.477 404.78 129.541 403.981 132.627C403.305 135.238 401.159 136.941 399.15 138.624C394.592 142.439 389.132 144.608 383.639 146.45C377.16 148.614 370.503 150.267 363.9 152.056C361.357 152.707 358.73 152.973 356.108 152.845C354.073 152.758 352.028 152.817 349.982 152.817Z" fill="#FFF258"/>
<path d="M233.492 211.355C232.963 211.355 232.468 211.319 232.009 211.319C231.374 211.319 230.562 211.319 229.679 211.319C226.501 211.355 219.827 211.39 217.991 209.589C217.744 209.342 217.638 209.13 217.638 208.777C217.638 207.859 217.638 205.917 231.691 205.917C238.718 205.917 241.013 207.506 241.649 208.212C241.931 208.495 242.073 208.777 242.108 208.954H246.698C246.663 208.071 246.38 206.764 245.286 205.458C243.061 202.739 238.506 201.362 231.691 201.362C221.522 201.362 213.119 201.927 213.119 208.777C213.119 210.331 213.684 211.743 214.778 212.802C217.709 215.733 223.535 215.91 229.714 215.874C230.562 215.874 231.303 215.839 231.868 215.874C232.362 215.874 232.892 215.874 233.457 215.874C239.071 215.945 242.355 216.404 242.355 218.664C242.355 219.935 240.519 221.489 231.903 221.489C226.113 221.489 222.864 221.1 220.569 220.111C218.556 219.264 218.027 218.805 217.885 218.099H213.33C213.613 221.453 215.59 222.936 218.803 224.313C221.699 225.549 225.371 226.043 231.903 226.043C236.388 226.043 246.91 226.043 246.91 218.664C246.91 211.425 238.153 211.39 233.492 211.355ZM279.329 201.291L267.429 220.959L255.212 201.291H250.622V226.008H255.142V209.836L265.24 226.008H269.689L279.364 210.048V226.008H283.919V201.291H279.329ZM292.162 226.008V201.291H287.643V226.008H292.162ZM300.391 201.291H295.871V226.008H326.59V221.489H300.391V201.291ZM328.754 226.043H362.581V221.489H333.309V214.638H355.413V210.083H333.309V205.917H362.581V201.362H328.754V226.043Z" fill="white"/>
<path d="M256.087 258.199L247.965 237.79H247.93H243.057L235.113 258.199L226.991 237.79H222.119L231.97 262.507H238.326L245.529 244.004L252.909 262.507H259.3L268.904 237.79H263.996L256.087 258.199ZM277.141 262.507V237.79H272.622V262.507H277.141ZM280.85 242.345H296.386V262.507H300.941V242.345H316.513V237.79H280.85V242.345ZM349.7 246.723H324.701V237.79H320.181V262.507H324.701V251.278H349.7V262.507H354.255V237.79H349.7V246.723Z" fill="white"/>
<path d="M205.119 299.04H238.945V294.485H209.674V287.635H231.777V283.08H209.674V278.914H238.945V274.359H205.119V299.04ZM275.004 294.697L266.883 274.288H266.847H261.975L254.03 294.697L245.909 274.288H241.036L250.887 299.005H257.243L264.446 280.503L271.826 299.005H278.217L287.821 274.288H282.913L275.004 294.697ZM321.058 283.221H296.059V274.288H291.539V299.005H296.059V287.776H321.058V299.005H325.613V274.288H321.058V283.221ZM346.938 274.288L329.318 299.005H334.791L338.322 294.132H360.991L364.487 299.005H370.101L352.446 274.288H346.938ZM341.571 289.577L349.657 278.243L357.743 289.577H341.571Z" fill="white"/>
<path d="M241.717 192.043L241.843 193.025H247.419V192.043H243.265C245.002 190.483 247.268 188.608 247.268 186.682C247.268 184.983 246.11 183.787 244.461 183.787C243.291 183.787 242.108 184.58 241.617 185.7L242.611 186.141C242.951 185.348 243.718 184.794 244.461 184.794C245.468 184.794 246.16 185.574 246.16 186.682C246.16 188.28 243.542 190.294 241.717 192.043ZM251.38 192.132C250.058 192.132 249.152 190.621 249.152 188.457C249.152 186.292 250.058 184.794 251.38 184.794C252.689 184.794 253.595 186.292 253.595 188.457C253.595 190.621 252.689 192.132 251.38 192.132ZM248.045 188.457C248.045 191.188 249.429 193.101 251.38 193.101C253.331 193.101 254.702 191.188 254.702 188.457C254.702 185.738 253.331 183.812 251.38 183.812C249.429 183.812 248.045 185.738 248.045 188.457ZM255.459 192.043L255.585 193.025H261.161V192.043H257.007C258.744 190.483 261.01 188.608 261.01 186.682C261.01 184.983 259.852 183.787 258.203 183.787C257.033 183.787 255.85 184.58 255.359 185.7L256.353 186.141C256.693 185.348 257.461 184.794 258.203 184.794C259.21 184.794 259.902 185.574 259.902 186.682C259.902 188.28 257.284 190.294 255.459 192.043ZM266.532 188.306C267.262 187.815 267.689 186.997 267.689 186.304C267.689 184.845 266.519 183.825 264.883 183.825C263.222 183.825 262.064 184.857 262.064 186.342H263.171C263.171 185.436 263.876 184.807 264.883 184.807C265.89 184.807 266.594 185.436 266.594 186.33C266.594 187.198 265.865 187.815 264.832 187.815H264.165V188.784H264.832C265.94 188.784 266.733 189.451 266.733 190.407C266.733 191.402 265.94 192.106 264.807 192.106C263.687 192.106 262.907 191.402 262.907 190.407H261.799C261.799 191.981 263.045 193.088 264.807 193.088C266.582 193.088 267.815 191.993 267.815 190.445C267.815 189.677 267.35 188.796 266.532 188.306ZM276.353 182.856V184.266H273.307V185.184H276.353V186.367H273.307V187.299H276.353V191.074H277.498V182.856H276.353ZM268.952 189.476H269.808C271.444 189.476 272.942 189.401 274.679 189.086L274.565 188.129C272.98 188.419 271.583 188.507 270.11 188.52V183.636H268.952V189.476ZM270.337 193.73H277.775V192.786H271.482V190.357H270.337V193.73ZM289.048 182.843V193.982H290.194V182.843H289.048ZM281.472 187.588C281.472 189.967 282.655 191.49 284.316 191.49C285.965 191.49 287.16 189.967 287.16 187.588C287.16 185.197 285.965 183.699 284.316 183.699C282.655 183.699 281.472 185.197 281.472 187.588ZM282.579 187.588C282.579 185.826 283.297 184.731 284.316 184.731C285.335 184.731 286.053 185.826 286.053 187.588C286.053 189.35 285.335 190.458 284.316 190.458C283.297 190.458 282.579 189.35 282.579 187.588ZM298.993 182.869V193.969H300.151V188.494H301.799V187.525H300.151V182.869H298.993ZM291.404 190.949L291.567 191.905C293.48 191.905 296.06 191.905 298.439 191.452L298.351 190.621C297.445 190.747 296.463 190.823 295.494 190.873V189.778C296.74 189.602 297.558 188.847 297.558 187.764C297.558 186.518 296.476 185.7 294.915 185.7C293.354 185.7 292.272 186.518 292.272 187.764C292.272 188.847 293.09 189.602 294.336 189.778V190.911C293.279 190.949 292.272 190.949 291.404 190.949ZM291.605 185.096H298.212V184.177H295.494V182.894H294.336V184.177H291.605V185.096ZM293.367 187.764C293.367 187.034 293.984 186.581 294.915 186.581C295.846 186.581 296.463 187.034 296.463 187.764C296.463 188.482 295.846 188.935 294.915 188.935C293.984 188.935 293.367 188.482 293.367 187.764ZM312.645 182.856V187.261H311.21V183.095H310.14V193.39H311.21V188.217H312.645V193.957H313.74V182.856H312.645ZM304.691 191.276H305.421C307.019 191.276 308.152 191.225 309.498 190.961L309.373 190.017C308.215 190.244 307.183 190.307 305.823 190.319V185.134H308.794V184.203H304.691V191.276ZM314.748 188.28V189.212H324.779V188.28H320.324V187.097H323.609V186.166H317.14V184.291H323.533V183.372H316.007V187.097H319.179V188.28H314.748ZM315.932 191.955C315.932 193.239 317.366 193.957 319.745 193.957C322.111 193.957 323.558 193.239 323.558 191.955C323.558 190.672 322.111 189.942 319.745 189.942C317.366 189.942 315.932 190.672 315.932 191.955ZM317.089 191.955C317.089 191.238 318.071 190.835 319.745 190.835C321.419 190.835 322.388 191.238 322.388 191.955C322.388 192.685 321.419 193.076 319.745 193.076C318.071 193.076 317.089 192.685 317.089 191.955ZM333.516 182.856V193.957H334.61V182.856H333.516ZM325.008 190.923L325.712 191.779C326.795 191.1 327.537 189.854 327.927 188.394C328.318 189.74 329.048 190.873 330.092 191.515L330.784 190.672C329.249 189.778 328.481 187.865 328.481 185.952V185.058H330.382V184.115H325.335V185.058H327.361V185.952C327.361 187.953 326.568 189.967 325.008 190.923ZM329.551 187.752H331.288V193.403H332.358V183.108H331.288V186.808H329.551V187.752Z" fill="white"/>
</g>
</svg>
