<svg width="105" height="41" viewBox="0 0 105 41" fill="none" xmlns="http://www.w3.org/2000/svg">
<path d="M73.7368 9.15576C73.9994 9.14339 74.1325 8.99868 74.2845 8.88983C75.6048 7.94111 77.0677 7.3449 78.6177 6.96392C78.9486 6.88229 79.2772 6.78704 79.6082 6.71654C80.3917 6.52192 81.1941 6.42439 81.9992 6.42588C83.826 6.45185 85.6504 6.4036 87.4808 6.44194C90.072 6.49513 92.5854 6.98992 94.9764 8.06357C96.2873 8.65235 97.5523 9.32646 98.5688 10.4236C99.0641 10.9603 99.5108 11.5442 99.9032 12.1677C100.365 12.8987 100.811 13.6396 101.301 14.3521C101.735 14.9805 102.07 15.6843 102.449 16.3547C102.559 16.5502 102.657 16.7555 102.782 16.9398C103.438 17.9133 103.775 19.029 104.086 20.1558C104.154 20.4387 104.185 20.73 104.179 21.0217C104.187 22.6804 104.228 24.3416 104.168 25.9978C104.119 27.3585 103.961 28.7092 103.445 29.9907C103.062 30.9431 102.53 31.7434 101.734 32.3631C100.715 33.1547 99.7313 33.9847 98.6006 34.618C97.7028 35.126 96.7706 35.5639 95.8115 35.9279C94.7597 36.3213 93.7008 36.6701 92.6208 36.962C92.1413 37.0905 91.648 37.1533 91.1532 37.1488C89.0457 37.1488 86.9394 37.1488 84.8342 37.1488C84.7164 37.1488 84.5857 37.1574 84.462 37.1488C82.4338 36.9583 80.3891 36.9014 78.3951 36.4252C77.4896 36.2128 76.5981 35.9392 75.7261 35.6063C74.4529 35.1115 73.1761 34.597 72.0961 33.6854C71.8829 33.506 71.7569 33.5617 71.5802 33.8264C71.2104 34.3818 70.9324 34.994 70.4719 35.4975C69.6852 36.3757 68.7307 37.0695 67.671 37.5335C66.4144 38.083 65.1213 38.5353 63.8019 38.8867C62.213 39.3023 60.6217 39.7278 59.0329 40.1174C57.7063 40.4318 56.3638 40.6668 55.0118 40.8212C52.45 41.1317 49.88 40.9301 47.3147 40.9907C46.2547 40.773 45.1534 40.8843 44.0922 40.6369C43.9696 40.6181 43.8481 40.5921 43.7283 40.559C42.1229 39.9566 40.4045 39.7847 38.8156 39.1254C37.6884 38.9943 36.7249 38.3498 35.6614 38.0121C34.6178 37.6843 33.725 37.0053 32.7804 36.4536C32.0192 36.0177 31.3032 35.5 30.6438 34.9087C30.5554 34.8161 30.438 34.7604 30.3134 34.752C30.1888 34.7436 30.0656 34.783 29.9666 34.8629C27.8019 36.2559 25.4838 37.367 23.0634 38.1717C21.802 38.5984 20.4934 38.8755 19.2025 39.2033C18.9883 39.2389 18.771 39.2484 18.5547 39.2318C16.6337 39.2318 14.7126 39.2639 12.7928 39.2219C11.3935 39.1922 10.0438 38.9225 8.79881 38.1507C7.25233 37.1921 5.5975 36.4573 3.94738 35.7176C2.97214 35.281 2.06287 34.7182 1.36324 33.8623C1.24546 33.7151 1.08879 33.5802 1.01812 33.4095C0.625907 32.4558 0.211308 31.5108 0.217197 30.4335C0.22662 28.515 0.163035 26.599 0.234882 24.6768C0.306729 22.7905 0.621207 20.9536 1.47159 19.2343C2.28201 17.5875 3.3689 16.1079 4.67998 14.8667C5.52683 14.0602 6.39607 13.2748 7.25117 12.4769C8.41839 11.3884 9.75873 10.6995 11.211 10.2096C12.5064 9.76405 13.8619 9.54184 15.225 9.5516C18.5076 9.59242 21.7913 9.55901 25.0751 9.56891C26.0009 9.56891 26.9302 9.58995 27.8465 9.76435C28.1504 9.82249 28.4507 9.89917 28.7523 9.97091C28.8728 10.0068 29.0016 9.9959 29.1152 9.94026C29.2287 9.88462 29.3194 9.78793 29.3706 9.66787C29.724 9.02095 30.0856 8.37899 30.4307 7.72466C30.8663 6.89948 31.4551 6.17438 32.1621 5.59219C33.0066 4.87724 33.884 4.21794 34.7698 3.5636C36.4187 2.34894 38.2396 1.59565 40.1595 1.02913C41.4688 0.644974 42.796 0.331229 44.1358 0.089082C44.4403 0.0328516 44.7489 0.00427352 45.058 0.00371079C49.7041 -0.00123693 54.3502 -0.00123693 58.9963 0.00371079C59.3676 -0.00367152 59.7378 0.048467 60.0941 0.158327C60.8326 0.398292 61.6017 0.496026 62.3378 0.763203C63.3326 1.11136 64.2822 1.58837 65.1646 2.1832C65.578 2.46769 66.0091 2.72619 66.4449 2.97111C67.0797 3.32734 67.6074 3.83697 68.1457 4.3169C68.7075 4.82033 69.2799 5.31386 69.817 5.85192C70.3034 6.3467 70.8994 6.71778 71.4542 7.12597C72.2857 7.72588 73.1267 8.33568 73.7368 9.15576Z" fill="#029C54"/>
</svg>
