<svg width="18" height="15" viewBox="0 0 18 15" fill="none" xmlns="http://www.w3.org/2000/svg">
<path d="M6.279 6.05506C6.22667 5.94958 6.15681 5.93134 6.09585 5.90509C5.54035 5.67789 4.98722 5.44545 4.42806 5.22725C3.96912 5.04829 3.48611 4.94206 3.00493 4.83483C2.84401 4.79884 2.67708 4.80584 2.51223 4.82484C2.42824 4.83458 2.34608 4.84758 2.305 4.92881C2.25529 5.02729 2.16868 5.04679 2.06637 5.04604C1.88766 5.04604 1.70869 5.03929 1.53051 5.04804C1.32537 5.05828 1.16419 4.94981 0.988357 4.88007C0.947801 4.86383 0.911433 4.80134 0.902799 4.7551C0.887815 4.6642 0.883077 4.57203 0.888668 4.48016C0.895733 4.32495 0.827963 4.14449 0.930009 4.02027C1.04095 3.88555 1.23955 3.97878 1.39602 3.95028C1.98134 3.84306 2.57346 3.8848 3.16244 3.87355C3.54995 3.8663 3.92569 3.92754 4.30168 4.01427C4.84868 4.14181 5.38159 4.31925 5.89306 4.54415C5.99249 4.58764 6.0948 4.62563 6.19789 4.66112C6.21087 4.66465 6.22458 4.66493 6.2377 4.66192C6.25082 4.65892 6.2629 4.65273 6.27279 4.64396C6.28268 4.6352 6.29003 4.62415 6.29415 4.61187C6.29826 4.5996 6.29899 4.58652 6.29627 4.57389C6.28499 4.53635 6.27145 4.49947 6.25572 4.46342C5.79678 3.39591 5.36609 2.31715 4.82133 1.28439C4.81285 1.25948 4.80126 1.23564 4.78679 1.2134C4.50159 0.903719 4.567 0.529305 4.57354 0.166137C4.57511 0.0746575 4.62875 0.01892 4.72661 0.0161706C4.90506 0.0119216 5.08403 0.00966792 5.26248 0.0119174C5.58353 0.0161665 5.76302 0.156639 5.83995 0.453322C5.85982 0.542709 5.88855 0.630082 5.92577 0.714262C6.28607 1.4511 6.63224 2.19293 6.92241 2.95901C7.09039 3.40266 7.29972 3.83206 7.49805 4.26472C7.53992 4.35644 7.5598 4.46842 7.68618 4.52841C7.80811 4.20348 7.83271 3.86805 7.87509 3.53688C7.92193 3.17296 7.94182 2.80529 8.00017 2.44312C8.03636 2.2096 8.05437 1.97384 8.05407 1.73778C8.05642 1.30438 8.05407 0.871225 8.05407 0.438073C8.05407 0.346094 8.05407 0.254114 8.05799 0.163135C8.06192 0.0721551 8.10744 0.00992006 8.2053 0.00792051C8.45257 0.00292164 8.70087 -0.00707611 8.94709 0.00792051C9.19331 0.0229171 9.29666 0.149641 9.30163 0.398085C9.30503 0.568797 9.30163 0.739508 9.30163 0.91022C9.30163 0.995701 9.27049 1.06593 9.17473 1.08768C9.0596 1.11267 9.02585 1.18916 9.02585 1.29088C9.02585 1.50109 9.0214 1.71104 9.02585 1.92124C9.03893 2.68407 8.94735 3.43865 8.83196 4.19173C8.81234 4.32045 8.81339 4.45217 8.8058 4.58264C8.8037 4.61564 8.81993 4.63588 8.85185 4.63538C8.87779 4.63822 8.90403 4.63388 8.92747 4.62288C8.98186 4.58284 9.0336 4.5396 9.08237 4.49341C9.35841 4.23722 9.64414 3.98953 9.90658 3.72134C10.613 2.9995 11.4114 2.37764 12.2091 1.75503C12.273 1.70504 12.3661 1.6633 12.3902 1.59881C12.4661 1.39736 12.6519 1.30538 12.7937 1.16591C12.9726 0.988452 13.1697 0.922214 13.4195 0.944709C13.5831 0.959706 13.7492 0.948459 13.9141 0.951709C14.0056 0.953458 14.0789 0.990197 14.0815 1.08643C14.0873 1.30938 14.0857 1.53258 14.0855 1.75553C14.0855 1.84076 14.0331 1.90225 13.9745 1.95973C13.7751 2.15969 13.5747 2.35589 13.3413 2.52111C12.3162 3.25062 11.3639 4.06917 10.4966 4.9663C10.4885 4.9748 10.4885 4.9913 10.4843 5.00505C10.5105 5.07828 10.5686 5.04179 10.613 5.03179C11.4409 4.84633 12.2654 4.64512 13.0988 4.47891C13.486 4.40143 13.8874 4.38443 14.2835 4.35394C14.5292 4.33469 14.7757 4.34219 15.0217 4.2982C15.1951 4.26721 15.3778 4.28421 15.5562 4.27771C15.9654 4.25967 16.3732 4.21869 16.7774 4.15499C17.0322 4.11699 17.2975 4.13824 17.5579 4.14124C17.657 4.14249 17.6963 4.21473 17.6971 4.30321C17.6989 4.50016 17.7031 4.69712 17.6971 4.89382C17.6921 5.06278 17.6447 5.11877 17.482 5.12027C17.0011 5.12452 16.5254 5.19325 16.045 5.213C15.3605 5.24124 14.6697 5.25599 13.996 5.38796C13.2434 5.53443 12.4967 5.71014 11.7507 5.8866C11.2981 5.99382 10.8514 6.12529 10.4029 6.24852C10.3679 6.25826 10.3244 6.28226 10.3106 6.31075C10.2776 6.38249 10.3537 6.39223 10.3964 6.41648C10.4318 6.43698 10.4694 6.45374 10.5086 6.46647C11.4064 6.7539 12.2926 7.07208 13.2139 7.29303C13.7448 7.42025 14.2605 7.60396 14.7786 7.77892C15.0122 7.8579 15.2441 7.93514 15.485 7.98638C15.6053 8.0138 15.7234 8.04913 15.8385 8.0921C15.9212 8.12135 15.978 8.18258 15.9712 8.27156C15.9516 8.527 16.0434 8.7912 15.9076 9.03764C15.5813 9.08638 15.238 9.13312 14.933 9.02464C14.4957 8.86918 14.0386 8.77645 13.6077 8.60349C13.3303 8.49226 13.0396 8.40928 12.7515 8.32455C12.4501 8.23632 12.1442 8.16109 11.8405 8.08035C10.8462 7.81666 9.88224 7.47399 8.9204 7.12357C8.86965 7.10412 8.81709 7.0893 8.76341 7.07933C8.75294 7.07758 8.7205 7.11882 8.7239 7.13532C8.73845 7.19853 8.75769 7.26067 8.78146 7.32128C9.1033 8.17634 9.56643 8.96916 9.98507 9.78022C10.3017 10.3916 10.6429 10.9917 10.9642 11.6011C11.18 12.011 11.3828 12.4276 11.5867 12.843C11.7499 13.1747 11.9006 13.5119 12.0694 13.8416C12.1433 13.9825 12.1786 14.139 12.1722 14.2965C12.1652 14.4799 12.1699 14.6641 12.1665 14.8478C12.1649 14.9418 12.1073 14.9923 12.0113 14.9941C11.8054 14.9978 11.5987 15.004 11.393 14.9963C11.1314 14.9866 10.9349 14.8316 10.9328 14.5844C10.9307 14.3212 10.8224 14.1023 10.718 13.8746C10.2818 12.9248 9.74985 12.0202 9.26919 11.0907C8.89293 10.3606 8.51039 9.63276 8.1323 8.90442C8.10273 8.84768 8.08756 8.77945 8.00147 8.75046C7.89472 8.99015 7.86907 9.24884 7.82093 9.50029C7.74662 9.8867 7.70188 10.2781 7.64615 10.6675C7.57733 11.1479 7.51924 11.6298 7.43839 12.1084C7.40364 12.3156 7.38614 12.525 7.38606 12.7348C7.38606 13.05 7.38606 13.3652 7.38606 13.6803C7.38789 14.0365 7.30992 14.3822 7.23273 14.7274C7.19767 14.8841 7.1668 14.9058 7.01504 14.9096C6.80885 14.9146 6.60267 14.9148 6.39649 14.9096C6.25022 14.9053 6.18324 14.8526 6.17774 14.7269C6.16832 14.5042 6.17146 14.2807 6.17303 14.0575C6.17138 14.0181 6.18194 13.9792 6.20339 13.9455C6.41506 13.6733 6.38654 13.3502 6.41271 13.0412C6.42597 12.8577 6.42666 12.6735 6.4148 12.4899C6.38157 11.8168 6.5035 11.1569 6.59665 10.4946C6.66782 9.98818 6.75365 9.48354 6.81278 8.97591C6.83371 8.7962 6.92006 8.62198 6.88656 8.43653C6.77562 8.42303 6.72591 8.49576 6.67018 8.54875C6.02755 9.15961 5.36845 9.75523 4.80563 10.4391C4.64497 10.6343 4.45318 10.8072 4.26793 10.9827C4.00418 11.2326 3.74933 11.4898 3.5353 11.781C3.35024 12.0259 3.14214 12.2541 2.91361 12.4629C2.7956 12.5738 2.66922 12.6891 2.6216 12.8378C2.57686 12.9788 2.50595 13.026 2.36152 13.022C2.11426 13.0147 1.86647 13.0197 1.61921 13.0162C1.52449 13.0162 1.46561 12.9685 1.45933 12.8733C1.45672 12.834 1.45515 12.7945 1.45541 12.7551C1.45777 12.5583 1.43762 12.3579 1.47006 12.1657C1.50251 11.9735 1.69744 11.876 1.82565 11.744C2.47979 11.0712 3.02534 10.3079 3.7373 9.68374C3.88775 9.55177 4.00444 9.38381 4.13841 9.23509C4.73666 8.56625 5.3849 7.93975 6.07805 7.36052C6.10947 7.33511 6.13665 7.30527 6.15864 7.27203C6.16859 7.25629 6.16021 7.2273 6.15341 7.2063C6.15079 7.1983 6.12934 7.19105 6.11704 7.1918C6.06225 7.19405 6.00769 7.19998 5.95377 7.20955C5.29702 7.34577 4.64131 7.48599 3.9843 7.62021C3.06615 7.80792 2.20139 8.14209 1.34787 8.50351C1.21705 8.55875 1.09773 8.59899 0.958269 8.59624C0.752347 8.59199 0.546164 8.59224 0.340242 8.58624C0.322844 8.58677 0.305509 8.58399 0.289253 8.57804C0.272998 8.57209 0.258149 8.5631 0.245575 8.55161C0.233001 8.54011 0.222955 8.52633 0.216027 8.51108C0.209099 8.49582 0.205428 8.4794 0.205228 8.46277C0.198163 8.23982 0.200778 8.01662 0.200255 7.79342C0.200255 7.70369 0.251278 7.64571 0.334484 7.61471C1.19114 7.29678 2.03157 6.93061 2.93245 6.73841C4.00314 6.50996 5.0801 6.308 6.15419 6.09405C6.19056 6.08455 6.22746 6.07031 6.279 6.05506Z" fill="#029C54"/>
</svg>
