<svg width="349" height="356" viewBox="0 0 349 356" fill="none" xmlns="http://www.w3.org/2000/svg">
<path d="M0.165016 269.878C0.165016 255.149 0.446205 244.058 0.106842 232.982C-0.659149 208.698 2.85083 184.673 5.61422 160.561C8.00656 139.314 12.261 118.232 18.3452 97.4763C23.106 81.3391 30.6786 66.351 44.5925 53.7088C53.319 45.7661 60.8916 36.9654 69.5115 28.9283C79.5081 19.608 90.5908 11.2481 104.747 6.02905C114.511 2.42374 124.479 -0.0401214 135.367 0.101572C149.01 0.290496 162.681 0.518782 176.295 0.0543427C193.078 -0.520302 208.166 3.51008 222.545 9.88627C243.217 19.0412 261.514 30.3531 273.934 47.1516C277.289 51.6937 282.03 55.543 285.841 59.8804C300.569 76.6159 307.328 95.957 312.68 115.652C323.418 155.734 331.41 196.268 336.619 237.068C338.064 248.088 340.711 258.983 341.981 269.996C344.464 291.58 350.611 312.929 348.604 334.828C348.012 341.299 348.264 341.323 340.624 343.33C318.528 349.149 295.08 350.765 272.092 348.053C255.773 346.242 238.805 347.707 222.186 348.486C200.031 349.517 177.982 351.997 155.719 351.863C151.18 351.773 146.639 351.992 142.145 352.516C116.014 355.917 89.8733 355.429 63.6066 353.422C54.5892 352.729 45.4264 353.217 36.3314 353.17C32.7924 353.17 29.2436 353.319 25.7239 353.107C6.07962 351.926 0.853435 346.148 0.737082 332.64C0.620729 320.336 1.32853 308.017 1.24127 295.713C1.1637 285.897 0.436507 276.057 0.165016 269.878Z" fill="#BEE6EE"/>
<path d="M200.982 288.132C201.938 287.01 202.908 285.9 203.851 284.766C205.261 283.062 206.844 281.527 208.449 280.017C208.575 279.899 208.693 279.771 208.802 279.636C210.021 278.109 211.437 276.768 212.814 275.393C214.161 274.049 215.563 272.753 216.862 271.374C218.849 269.263 221.001 267.318 223.042 265.268C223.276 265.034 223.29 264.829 223.055 264.607C222.538 264.143 222.01 263.692 221.483 263.243C220.641 262.56 219.863 261.803 219.158 260.979C218.861 260.613 218.463 260.33 218.102 260.02C217.277 259.317 216.461 258.606 215.783 257.753C215.643 257.586 215.486 257.436 215.314 257.303C213.871 256.116 212.668 254.693 211.397 253.337C210.658 252.549 209.883 251.793 209.141 251.008C207 248.749 204.879 246.471 202.731 244.219C202.271 243.759 201.781 243.329 201.266 242.933C199.67 241.633 198.448 240.008 197.231 238.374C197.134 238.231 197.05 238.079 196.982 237.919C196.079 236.003 196.013 236.672 197.254 235.156C197.969 234.284 198.717 233.439 199.448 232.582C199.645 232.351 199.843 232.119 200.05 231.899C200.257 231.679 200.504 231.582 200.735 231.794C201.209 232.232 201.817 232.322 202.388 232.514C203.29 232.812 204.192 233.11 205.095 233.407C205.295 233.489 205.504 233.552 205.717 233.592C207.275 233.772 208.75 234.315 210.27 234.657C211.198 234.865 212.1 235.19 213.018 235.444C215.65 236.171 218.289 236.865 220.913 237.624C222.073 237.963 223.179 238.473 224.332 238.86C225.314 239.197 226.318 239.469 227.306 239.792C228.66 240.237 230.075 240.484 231.406 241.023C231.816 241.17 232.243 241.267 232.677 241.311C233.02 241.359 233.355 241.454 233.671 241.593C234.267 241.852 234.891 242.04 235.531 242.156C236.578 242.353 236.574 242.395 236.946 241.49C237.746 239.519 238.777 237.661 239.803 235.808C241.348 233.007 242.934 230.218 244.598 227.484C245.366 226.223 246.039 224.92 246.721 223.619C247.768 221.629 248.829 219.645 249.895 217.657C250.021 217.43 250.169 217.216 250.338 217.02C251.718 215.402 253.096 213.786 254.475 212.168C254.532 212.102 254.582 212.043 254.644 211.97C255.047 211.546 255.194 211.529 255.626 211.853C255.691 211.909 255.751 211.96 255.824 212.023C257.143 213.147 258.447 214.283 259.79 215.391C259.995 215.549 260.165 215.749 260.289 215.977C260.412 216.206 260.486 216.458 260.506 216.716C260.588 217.621 260.702 218.52 260.569 219.438C260.475 220.08 260.478 220.732 260.43 221.381C260.313 222.719 260.112 224.05 259.826 225.363C259.32 227.867 258.806 230.371 258.284 232.875C257.72 235.601 257.568 238.367 257.475 241.14C257.434 242.351 257.386 243.565 257.314 244.775C257.268 245.858 257.3 246.943 257.409 248.021C257.423 248.198 257.476 248.372 257.674 248.412C257.761 248.423 257.849 248.412 257.93 248.379C258.011 248.347 258.082 248.294 258.137 248.225C258.699 247.621 259.22 246.982 259.826 246.414C261.342 244.994 262.607 243.335 264.156 241.945C265.059 241.141 265.858 240.224 266.733 239.388C268.14 238.043 269.557 236.709 270.998 235.402C271.353 235.083 271.688 234.748 272.011 234.4C273.608 232.675 275.477 231.273 277.367 229.898C278.558 229.032 279.796 228.229 280.955 227.323C282.058 226.462 283.365 225.961 284.504 225.167C284.76 225.001 285.056 224.906 285.362 224.893C287.284 224.798 288.787 223.758 290.213 222.627C291.534 221.586 292.814 220.478 294.155 219.452C294.734 219.009 295.21 218.431 295.734 217.916C296.166 217.489 296.293 217.461 296.713 217.814C298.04 218.931 299.348 220.061 300.673 221.191C300.941 221.419 300.978 221.65 300.854 221.996C300.416 223.232 299.738 224.342 299.074 225.462C297.926 227.398 296.744 229.312 295.571 231.233C293.878 234.001 292.191 236.77 290.48 239.527C288.538 242.656 286.841 245.917 285.199 249.211C284.196 251.223 283.264 253.278 282.071 255.193C281.77 255.675 281.704 256.103 282.1 256.607C283.112 257.903 283.85 259.384 284.918 260.65C285.75 261.639 286.377 262.8 287.296 263.725C288.368 264.803 289.247 266.038 290.204 267.208C290.859 268.008 291.61 268.731 292.326 269.482C293.519 270.734 294.68 272.018 295.933 273.208C296.805 274.04 297.687 274.881 298.772 275.47C299.219 275.735 299.638 276.046 300.021 276.397C302.47 278.474 304.9 280.57 307.357 282.634C308.259 283.392 308.981 284.313 309.778 285.164C310.3 285.739 310.852 286.286 311.431 286.803C311.498 286.86 311.564 286.917 311.629 286.972C312.123 287.432 312.136 287.545 311.751 288.045C311.722 288.079 311.694 288.111 311.667 288.144C310.653 289.332 309.63 290.512 308.634 291.713C308.507 291.887 308.336 292.026 308.139 292.114C307.942 292.202 307.725 292.237 307.51 292.215C306.515 292.14 305.515 292.168 304.525 292.297C303.281 292.461 302.043 292.68 300.805 292.892C296.57 293.616 292.316 294.106 288.015 294.195C285.541 294.242 283.079 293.967 280.637 293.586C279.608 293.433 278.562 293.44 277.536 293.608C276.034 293.845 274.551 294.138 273.056 294.389C272.586 294.468 272.108 294.485 271.632 294.534C269.825 294.727 268.025 294.998 266.235 295.323C265.498 295.455 265.008 295.815 264.577 296.427C263.057 298.583 261.579 300.769 260.044 302.91C258.224 305.448 256.7 308.164 255.015 310.783C254.221 312.019 253.405 313.243 252.623 314.488C251.264 316.653 249.919 318.823 248.588 321C247.009 323.584 245.442 326.175 243.885 328.773C242.93 330.371 242.039 332.006 240.966 333.529C240.888 333.634 240.827 333.751 240.788 333.875C240.477 334.954 239.747 335.756 239.035 336.574C238.265 337.457 237.515 338.356 236.748 339.241C236.313 339.736 236.21 339.742 235.677 339.294C234.384 338.207 233.104 337.1 231.811 336.008C231.675 335.904 231.568 335.766 231.499 335.61C231.429 335.453 231.401 335.281 231.415 335.11C231.469 333.073 231.678 331.044 232.04 329.039C232.301 327.635 232.468 326.212 232.742 324.81C233.033 323.324 233.361 321.844 233.781 320.383C234.391 318.258 234.854 316.092 235.165 313.903C235.32 312.786 235.383 311.659 235.356 310.533C235.304 307.756 235.365 304.988 235.87 302.246C235.977 301.687 236.018 301.128 236.08 300.568C236.248 299.059 236.472 297.56 236.753 296.068C237.05 294.494 237.236 292.9 237.457 291.312C237.533 290.767 237.317 290.609 236.776 290.781C236.569 290.847 236.373 290.942 236.168 291.012C235.185 291.351 234.198 291.677 233.217 292.022C230.188 293.094 227.067 293.832 223.961 294.626C222.874 294.904 221.735 294.973 220.631 295.189C218.124 295.681 215.632 296.245 213.119 296.701C211.204 297.049 209.325 297.623 207.363 297.686C206.669 297.708 205.977 297.722 205.285 297.705C204.029 297.671 202.775 297.582 201.558 298.04C201.354 298.118 201.131 298.136 200.917 298.092C200.703 298.047 200.506 297.943 200.35 297.79C199.073 296.679 197.775 295.594 196.497 294.487C196.087 294.137 196.081 293.916 196.433 293.492C197.349 292.392 198.29 291.314 199.215 290.229L200.982 288.132Z" fill="#FFF258"/>
<path d="M120.01 236.809C122.89 231.888 125.461 227.092 127.178 221.893C128.163 218.904 129.833 216.278 131.282 213.536C131.764 212.628 132.747 212.087 133.252 211.14C134.647 208.554 136.439 206.22 137.895 203.661C139.811 200.291 141.62 196.832 143.984 193.737C144.942 192.511 146.013 191.376 147.182 190.349C149.773 188.059 152.13 185.517 154.219 182.762C156.002 180.416 158.116 178.341 160.494 176.602C163.06 174.692 165.651 172.819 168.479 171.314C171.299 169.797 174.323 168.693 177.457 168.035C178.089 167.904 178.641 167.869 179.026 168.533C179.347 169.102 179.889 168.928 180.409 168.876C181.803 168.734 181.807 168.75 182.197 170.045C182.296 170.376 182.385 170.711 182.462 171.049C183.328 174.714 183.92 173.734 180.768 176.803C177.179 180.309 173.668 183.885 170.319 187.613C168.304 189.851 166.524 192.311 164.65 194.677C164.436 194.95 164.255 195.248 164.112 195.565C161.854 200.576 158.526 204.876 155.063 209.093C153.794 210.637 152.873 212.427 151.99 214.206C150.522 217.152 149.199 220.164 147.648 223.061C146.671 224.883 145.412 226.551 144.248 228.272C141.54 232.228 139.531 236.511 137.837 240.989C136.884 243.494 135.715 245.919 134.598 248.359C133.445 250.88 132.317 253.408 131.023 255.853C129.356 259.001 128.169 262.329 126.963 265.666C126.263 267.615 125.325 269.476 124.607 271.419C122.809 276.29 121.05 281.175 119.329 286.075C118.558 288.276 117.93 290.528 117.239 292.757C117.135 293.086 116.974 293.412 116.942 293.75C116.615 297.2 115.665 300.541 115.209 303.979C114.779 307.221 114.474 310.511 113.546 313.68C113.365 314.348 113.229 315.027 113.138 315.713C112.613 319.132 112.21 322.58 110.577 325.716C110.429 326.03 110.33 326.365 110.282 326.709C109.974 328.535 108.968 329.515 107.085 329.847C104.958 330.221 102.883 330.885 100.776 331.385C99.8434 331.606 99.483 331.398 99.2132 330.505C98.434 327.936 97.7188 325.363 98.0237 322.617C98.1378 321.596 97.9719 320.548 97.9871 319.513C98.0262 316.574 98.0706 313.636 98.1545 310.699C98.2748 306.543 98.7899 302.422 99.4718 298.326C99.6887 297.047 99.9873 295.783 100.366 294.542C101.77 289.907 103.227 285.29 104.643 280.661C104.897 279.834 105.079 278.986 105.258 278.139C105.472 277.121 105.667 276.109 106.234 275.2C106.94 274.069 106.914 272.708 107.327 271.478C107.62 270.601 108.404 269.701 107.944 268.816C107.558 268.077 106.508 267.932 105.707 267.625C104.138 267.026 102.878 265.922 101.577 264.951C96.2409 260.962 90.9748 256.877 85.7279 252.762C82.93 250.564 80.5685 247.945 78.3936 245.096C74.4549 239.941 70.5606 234.747 66.4449 229.723C64.0917 226.851 62.0114 223.747 59.9334 220.664C58.1463 218.012 56.197 215.468 54.6509 212.649C52.8523 209.372 51.3218 206.005 50.42 202.364C50.0034 200.683 49.5708 199.007 49.0928 197.338C48.3658 194.818 48.2947 192.224 48.1737 189.634C48.1136 188.354 48.6994 187.253 49.4868 186.327C50.557 185.07 51.7843 184.047 53.5169 183.664C56.2226 183.065 58.8964 182.32 61.56 181.555C63.6688 180.951 65.7932 180.792 67.9721 180.86C70.4784 180.94 72.9871 180.9 75.4893 181.061C78.9846 181.276 82.2754 182.324 85.4436 183.786C87.5621 184.762 89.6731 185.767 91.8239 186.671C93.4939 187.384 95.0105 188.414 96.29 189.703C99.8996 193.237 102.872 197.283 105.807 201.346C108.138 204.57 109.981 208.107 111.526 211.789C112.265 213.54 113.102 215.257 113.993 216.937C114.733 218.331 115.194 219.808 115.593 221.316C116.765 225.755 117.929 230.196 119.121 234.63C119.305 235.289 119.321 235.996 120.01 236.809Z" fill="#029C54"/>
<path d="M109.139 77.032H116.004C118.061 77.032 120.117 76.9599 122.153 77.4619C122.757 77.56 123.369 77.5779 123.977 77.5152C124.827 77.487 124.978 77.2956 125.016 76.2885C125.039 75.7112 125.016 75.1339 125.016 74.5566C125.016 68.8622 125.03 63.1678 125.016 57.4765C125.026 56.159 125.188 54.8479 125.497 53.5736C126.367 49.6706 128.067 46.2132 130.111 42.9064C131.379 40.842 132.594 38.7587 134.294 37.0676C134.777 36.5417 135.313 36.0755 135.892 35.6778C137.542 34.655 139.227 33.6949 140.909 32.738C142.059 32.0945 143.286 31.6288 144.555 31.3544C146.185 30.9811 147.745 30.3065 149.378 29.8924C151.752 29.2763 154.187 28.9771 156.629 29.0014C162.195 29.0641 167.766 29.0453 173.335 29.0014C176.215 29.0014 178.918 29.6069 181.429 31.1976C183.204 32.3145 185.139 33.1772 186.804 34.4604C189.153 36.2739 191.496 38.1124 193.616 40.2647C195.02 41.6922 196.055 43.377 197.198 45.0178C199.872 48.8486 201.241 53.3006 202.889 57.6334C203.068 58.104 203.321 58.2609 203.759 58.0507C204.719 57.5487 205.673 57.0342 206.636 56.5353C209.619 55.0362 212.871 54.2701 216.16 54.2921C222.492 54.2262 228.823 54.292 235.154 54.2638C236.082 54.2638 236.958 54.5117 237.857 54.6842C240.853 55.2584 243.864 55.7541 246.869 56.2875C248.299 56.5325 249.703 56.9362 251.057 57.4922C253.542 58.5307 256.08 59.4155 258.493 60.6736C261.596 62.2925 264.639 64.0745 267.098 66.6723C269.152 68.8402 271.237 71.0866 272.545 73.9323C273.321 75.5394 273.959 77.2197 274.453 78.9521C275.181 81.7099 275.959 84.4583 276.138 87.3761C276.272 89.5064 276.324 91.6681 276.6 93.7639C277.301 99.0975 276.803 104.469 276.997 109.815C277.024 110.969 276.875 112.12 276.556 113.222C275.468 117.175 273.831 120.926 271.701 124.347C270.528 126.173 269.228 127.9 267.812 129.512C267.31 130.108 267.275 130.632 267.655 131.272C268.757 133.12 269.073 135.203 269.395 137.343C270.059 141.779 269.729 146.225 269.804 150.667C269.854 153.472 269.784 156.28 269.822 159.085C269.853 162.874 269.394 166.649 268.458 170.301C267.762 173.084 267.127 175.883 266.182 178.584C265.494 180.682 264.532 182.663 263.325 184.467C262.058 186.286 260.303 187.218 258.421 187.874C256.816 188.414 255.141 188.67 253.461 188.63C247.971 188.573 242.478 188.586 236.987 188.63C235.69 188.649 234.399 188.418 233.176 187.946C229.592 186.547 226.074 185.012 223.057 182.371C222.062 181.502 220.859 180.902 219.728 180.222C219.665 180.173 219.592 180.143 219.515 180.137C219.438 180.131 219.361 180.148 219.293 180.187C219.224 180.225 219.167 180.283 219.128 180.355C219.088 180.426 219.068 180.508 219.069 180.592C219.017 181.495 219.119 182.421 218.979 183.309C218.637 185.505 218.689 187.739 218.498 189.944C218.225 193.308 216.758 196.219 214.919 198.902C211.729 201.848 208.315 204.094 203.857 203.997C197.604 203.859 191.348 203.934 185.092 203.978C183.179 204.037 181.289 203.511 179.64 202.46C178.48 201.697 177.233 201.038 176.017 200.351C172.737 198.488 170.014 195.871 167.522 192.956C166.975 192.276 166.489 191.541 166.072 190.76C164.993 188.878 164.86 189.439 163.825 190.189C163.457 190.482 163.069 190.743 162.664 190.97C161.234 191.735 159.66 192.132 158.065 192.131C152.879 192.021 147.69 192.062 142.504 192.103C139.305 192.166 136.106 191.971 132.933 191.519C129.163 190.936 125.393 190.381 121.648 189.7C119.54 189.317 117.472 188.758 115.381 188.332C111.03 187.416 107.799 184.765 105.389 180.761C102.805 176.466 101.691 171.769 101.694 166.706C101.694 162.165 101.694 157.626 101.694 153.089C101.694 152.512 101.712 151.935 101.694 151.357C101.642 150.262 101.544 150.143 100.555 149.829C99.1044 149.368 97.6339 148.888 96.1606 148.462C92.7295 147.492 90.0091 145.324 87.5119 142.701C84.7943 139.831 82.8337 136.426 81.1748 132.784C79.1647 128.431 77.5026 123.899 76.2065 119.24C75.4728 116.554 74.7767 113.856 74.04 111.17C73.3247 108.736 72.9742 106.194 73.0017 103.64C73.08 100.672 73.0452 97.6982 73.0017 94.7302C72.9744 93.826 73.274 92.9458 73.837 92.2767C76.8002 88.3943 80.3418 85.0742 84.3158 82.4535C86.1186 81.2311 88.0077 80.1642 89.9656 79.2627C93.3777 77.8172 97.009 77.0724 100.673 77.0665C103.493 76.9944 106.317 77.032 109.139 77.032Z" fill="#FA8AA7"/>
<path d="M179.987 139.854C176.873 139.844 173.765 139.93 170.664 139.372C167.564 138.815 164.65 137.832 162.133 135.855C161.386 135.268 160.585 134.747 159.824 134.166C156.655 131.72 154.336 128.678 153.296 124.751C153.233 124.592 153.19 124.426 153.165 124.256C153.084 120.628 152.73 117 153.404 113.387C153.531 112.706 153.756 112.043 153.869 111.362C154.767 105.949 158.007 102.181 162.387 99.2226C164.487 97.8044 166.815 96.9006 169.236 96.1701C171.215 95.5714 173.105 94.6859 175.214 94.5407C175.709 94.5061 176.204 94.2109 176.637 93.9421C177.864 93.1654 179.2 92.9774 180.617 93.0021C182.782 93.04 184.949 93.0285 187.116 93.0021C189.339 92.9823 191.377 93.4704 193.228 94.7963C194.227 95.4823 195.299 96.0569 196.424 96.5098C198.188 97.2635 199.78 98.3156 201.406 99.2968C202.676 100.064 203.614 101.223 204.349 102.531C204.984 103.662 205.624 104.795 206.345 105.87C206.935 106.754 207.257 107.735 207.587 108.715C207.945 109.78 208.212 110.874 208.761 111.87C209.06 112.403 209.21 113.007 209.195 113.618C209.106 116.9 209.452 120.19 208.805 123.463C208.583 124.596 208.268 125.658 207.697 126.62C206.274 129.019 204.542 131.125 202.169 132.721C198.78 134.992 195.37 137.174 191.509 138.596C189.483 139.363 187.344 139.787 185.178 139.851C183.453 139.884 181.72 139.854 179.987 139.854Z" fill="#D3F44B"/>
</svg>
