<svg width="352" height="377" viewBox="0 0 352 377" fill="none" xmlns="http://www.w3.org/2000/svg">
<path d="M3.68784 118.475C-0.474915 139.27 0.165497 160.119 0.0916138 181.002C0.0916138 192.627 -0.130035 204.252 0.116272 215.822C0.588654 230.346 3.75626 244.697 9.48862 258.284C20.1049 284.178 36.3987 307.052 53.3576 329.782C65.2793 345.698 81.0066 357.312 98.9261 366.858C106.106 370.685 114.038 372.798 122.499 374.291C146.946 378.627 171.516 376.304 196.024 376.901C200.588 377.002 205.097 375.997 209.079 373.992C216.518 370.309 224.683 368.517 232.639 366.117L233.261 365.929C240.369 363.781 247.47 361.635 253.884 357.788C261.914 352.954 270.375 348.663 278.824 344.404C288.59 339.471 297.248 333.177 302.975 324.661C310.303 313.755 318.16 303.081 323.789 291.246C327.171 283.703 331.462 276.515 336.585 269.81C346.487 257.4 348.469 242.637 349.984 228.818C351.5 215 351.782 202.156 349.984 185.227C346.689 154.194 326.326 108.896 326.326 108.896C320.87 92.6591 314.121 77.0412 303.529 62.9607C281.434 33.5831 253.293 11.8484 212.872 5.83134C207.786 5.06814 202.835 3.56393 197.748 2.71224C170.764 -1.81165 143.67 0.566487 116.575 1.10847C115.31 1.27126 114.07 1.56437 112.88 1.98219C83.556 8.96159 60.8333 24.5133 42.5689 45.7722C38.2337 50.8713 34.3419 56.2468 29.9575 61.2574C15.1908 78.1363 7.85059 97.6808 3.68784 118.475Z" fill="#BEE6EE"/>
<path d="M135.077 270.244C135.077 267.92 135.01 265.688 135.077 263.46C135.163 261.324 135.673 260.818 137.666 260.612C138.408 260.557 139.152 260.539 139.895 260.559C141.414 260.559 142.156 259.9 142.47 258.313C143.03 255.49 143.151 255.515 145.447 255.408C145.633 255.419 145.818 255.419 146.004 255.408C158.128 253.568 167.528 259.455 176.604 266.225C184.98 272.476 192.362 279.78 199.223 287.625C199.936 288.448 200.617 289.878 201.719 289.579C203.37 289.131 202.714 287.39 202.678 286.212C202.521 281.396 202.211 276.601 201.965 271.768C201.341 258.75 202.126 245.808 203.691 232.873C204.804 223.668 205.421 214.399 206.287 205.162C206.929 198.327 207.664 191.5 208.263 184.662C208.52 181.708 208.555 178.732 208.666 175.764C208.723 174.279 208.687 172.791 208.766 171.307C208.826 170.068 209.44 169.089 210.752 169.057C214.097 168.983 217.445 168.979 220.787 169.057C221.071 169.056 221.352 169.112 221.614 169.222C221.875 169.333 222.112 169.496 222.308 169.701C222.504 169.906 222.657 170.148 222.756 170.414C222.855 170.68 222.898 170.963 222.883 171.246C222.744 175.824 223.479 180.37 222.053 184.997C220.983 188.457 221.289 192.333 220.944 196.031C219.931 206.746 218.872 217.456 217.884 228.17C216.928 238.518 215.862 248.858 215.188 259.227C214.849 264.392 215.288 269.61 215.359 274.804C215.452 281.118 215.509 287.429 215.619 293.744C215.648 295.196 216.661 295.652 217.848 294.68C222.331 291.021 227.234 288.049 232.344 285.347C236.431 283.148 240.658 281.217 244.996 279.566C249.518 277.879 253.911 275.897 258.337 273.925C261.61 272.458 264.945 271.575 268.568 271.889C269.867 271.963 271.171 271.949 272.469 271.846C273.207 271.807 274.024 271.629 274.216 270.778C274.633 268.945 275.892 268.532 277.536 268.553C280.51 268.596 283.484 268.553 286.451 268.628C287.731 268.657 288.641 269.479 288.687 270.685C288.887 276.064 289.4 281.506 288.416 286.807C287.703 290.637 285.349 293.926 283.131 297.129C279.922 301.789 275.586 305.348 271.363 308.918C263.536 315.507 255.031 321.124 245.542 325.168C240.057 327.503 234.516 329.574 228.685 330.863C224.699 331.749 220.69 332.625 217.074 334.657C216.083 335.216 215.063 335.743 213.929 335.608C211.076 335.273 210.363 336.782 210.42 339.246C210.449 340.338 209.646 340.936 208.637 340.947C202.161 341.018 195.775 341.41 189.591 338.245C185.173 335.985 180.195 334.743 175.848 332.219C169.267 328.398 162.743 324.483 156.274 320.473C152.782 318.282 149.977 315.157 148.179 311.453C144.335 303.842 140.523 296.239 137.838 288.095C135.88 282.247 134.675 276.349 135.077 270.244Z" fill="#D3F44B"/>
<path d="M261.764 115.927C260.946 114.72 260.511 113.305 260.192 111.926C259.271 107.955 257.598 104.253 255.958 100.584C253.9 95.9821 251.712 91.3924 248.903 87.1904C247.316 84.8231 245.714 82.4172 243.754 80.2985C241.167 77.505 238.319 74.972 235.642 72.2732C234.55 71.1724 233.416 70.11 232.291 69.0388C231.963 68.7059 231.571 68.4423 231.138 68.2639C230.706 68.0855 230.242 67.9958 229.774 68.0002C226.74 68.0209 223.702 68.0002 220.665 68.0179C219.652 68.0179 219.38 68.2043 219.184 69.1483C218.364 73.2527 217.21 77.2979 217.07 81.5265C217.018 83.3131 216.834 85.0935 216.52 86.8531C216.249 88.463 216.128 90.0946 216.159 91.7268L216.215 122.304C216.235 122.457 216.218 122.612 216.165 122.757C216.102 122.863 215.868 122.996 215.812 122.958C215.402 122.742 215.015 122.486 214.655 122.194C210.853 118.858 206.777 115.849 202.469 113.199C200.824 112.159 199.278 110.97 197.85 109.648C195.002 107.12 192.145 104.599 189.185 102.208C187.562 100.897 185.709 99.8705 183.98 98.6868C180.765 96.4881 177.36 94.615 173.955 92.7359C171.67 91.4782 169.218 90.8539 166.693 90.4573C165.855 90.3242 165.006 90.4366 164.381 89.6554C164.239 89.4778 163.789 89.4956 163.493 89.4956C160.236 89.4956 156.953 89.4778 153.684 89.4956C152.675 89.4956 152.355 89.7738 152.346 90.697C152.308 93.887 152.322 97.077 152.319 100.267C152.297 100.461 152.313 100.658 152.367 100.846C152.421 101.034 152.511 101.209 152.633 101.362C153.385 102.137 153.459 103.167 153.77 104.12C154.874 107.517 155.843 110.961 157.355 114.217C158.673 117.031 159.863 119.904 161.106 122.754C161.326 123.251 161.601 123.742 161.536 124.307C161.534 124.365 161.52 124.421 161.493 124.472C161.467 124.523 161.429 124.567 161.382 124.601C161.336 124.635 161.283 124.658 161.226 124.668C161.169 124.678 161.111 124.675 161.056 124.659C160.762 124.574 160.484 124.443 160.23 124.272C159.599 123.813 158.981 123.34 158.392 122.834C156.378 121.091 154.057 119.821 151.775 118.484C148.472 116.593 145.004 115.008 141.413 113.749C139.808 113.157 138.257 112.408 136.59 112.024C134.325 111.5 132.084 110.861 129.754 110.642C129.138 110.586 128.531 110.435 127.918 110.328C124.33 109.704 120.742 109.112 117.071 109.239C114.738 109.319 112.399 109.239 110.066 109.263C108.183 109.29 107.019 110.429 107.011 112.299C106.987 118.134 107.011 123.97 107.011 129.808C107.008 130.274 107.063 130.738 107.173 131.19C107.801 133.673 108.358 136.174 109.335 138.559C109.743 139.568 110.161 140.577 110.492 141.61C111.117 143.566 112.42 145.161 113.328 146.957C114.273 148.827 115.371 150.62 116.419 152.44C116.79 153.124 117.206 153.781 117.666 154.408C118.715 155.76 119.666 157.185 120.511 158.672C120.897 159.254 121.325 159.807 121.793 160.326C122.326 160.995 122.927 161.62 123.391 162.333C124.851 164.585 126.799 166.357 128.848 168.041C129.402 168.468 129.926 168.933 130.417 169.432C131.897 171.056 133.644 172.355 135.406 173.634C138.366 175.776 141.303 177.951 144.323 180.005C147.343 182.059 150.451 183.976 153.616 185.808C156.991 187.761 160.621 189.193 164.037 191.043C165.733 191.989 167.531 192.741 169.396 193.283C171.039 193.741 172.694 194.17 174.429 194.105C175.519 194.076 176.605 194.076 177.665 194.431C178.04 194.535 178.428 194.579 178.817 194.561C181.392 194.561 183.906 195.111 186.449 195.375C188.915 195.629 191.364 196.044 193.871 195.996C198.54 195.905 203.212 195.922 207.884 195.996C210.548 196.035 213.136 195.662 215.753 195.274C217.97 194.946 220.194 194.499 222.462 194.564C223.082 194.548 223.7 194.481 224.309 194.366C224.84 194.257 225.377 194.177 225.917 194.126C229.419 194.047 232.877 193.33 236.122 192.01C238.061 191.235 240.122 190.764 242.123 190.143C246.422 188.811 250.815 187.793 255.034 186.193C257.136 185.397 259.318 184.831 261.402 183.958C263.966 182.884 266.601 181.982 269.215 181.038C270.474 180.636 271.657 180.025 272.712 179.23C273.565 178.551 274.468 177.938 275.415 177.398C277.723 176.078 279.601 174.12 280.821 171.758C281.292 170.87 281.925 170.059 282.372 169.157C282.819 168.254 283.556 167.633 284.424 167.05C285.786 166.141 286.775 164.786 287.618 163.398C289.362 160.528 290.502 157.406 291.441 154.177C292.983 148.883 294.146 143.492 295.63 138.18C296.086 136.546 296.251 134.827 296.518 133.149C296.704 132.001 296.814 130.838 297.006 129.69C297.302 127.915 297.323 126.139 297.524 124.364C298.365 116.986 297.821 109.597 297.889 102.217C297.912 99.761 297.436 97.2782 297.001 94.8428C296.204 90.3123 294.582 86.0097 293.093 81.6775C292.942 81.2395 292.722 80.8223 292.539 80.3932C292.453 80.1753 292.3 79.9904 292.102 79.8658C291.904 79.7412 291.671 79.6833 291.438 79.7007C288.089 79.7007 284.741 79.7007 281.392 79.7007C281.201 79.6881 281.01 79.7213 280.834 79.7974C280.659 79.8736 280.504 79.9906 280.383 80.1387C277.612 83.4737 274.423 86.4388 271.883 89.9839C271.157 90.9847 270.549 92.0661 270.071 93.2064C269.124 95.4968 268.12 97.7754 267.486 100.199C266.894 102.454 266.021 104.638 265.349 106.86C264.517 109.606 263.149 112.163 262.516 114.98C262.492 115.192 262.409 115.394 262.276 115.561C262.143 115.729 261.965 115.856 261.764 115.927Z" fill="#F55B1D"/>
<path d="M66.3131 218.951C65.9832 218.255 65.5429 218.135 65.1587 217.962C61.6576 216.463 58.1713 214.929 54.6471 213.489C51.7545 212.309 48.7102 211.608 45.6775 210.9C44.6632 210.663 43.6111 210.709 42.5721 210.834C42.0428 210.899 41.5249 210.984 41.266 211.52C40.9527 212.17 40.4068 212.299 39.762 212.294C38.6357 212.294 37.5076 212.249 36.3846 212.307C35.0917 212.375 34.0758 211.659 32.9676 211.199C32.7119 211.092 32.4827 210.679 32.4283 210.374C32.3339 209.774 32.304 209.166 32.3393 208.56C32.3838 207.536 31.9566 206.345 32.5998 205.526C33.299 204.637 34.5507 205.252 35.5369 205.064C39.226 204.357 42.958 204.632 46.6702 204.558C49.1126 204.51 51.4807 204.914 53.8505 205.486C57.2981 206.328 60.6569 207.498 63.8806 208.982C64.5073 209.269 65.1521 209.52 65.8018 209.754C65.8836 209.777 65.97 209.779 66.0527 209.759C66.1354 209.74 66.2116 209.699 66.2739 209.641C66.3362 209.583 66.3826 209.51 66.4085 209.429C66.4344 209.348 66.439 209.262 66.4219 209.179C66.3508 208.931 66.2654 208.688 66.1663 208.45C63.2737 201.406 60.5592 194.289 57.1257 187.474C57.0723 187.31 56.9992 187.153 56.908 187.006C55.1105 184.963 55.5228 182.492 55.564 180.096C55.5739 179.493 55.912 179.125 56.5287 179.107C57.6534 179.079 58.7815 179.064 59.9062 179.079C61.9297 179.107 63.061 180.034 63.5458 181.991C63.671 182.581 63.8522 183.157 64.0867 183.713C66.3576 188.574 68.5394 193.469 70.3683 198.524C71.427 201.451 72.7463 204.284 73.9964 207.139C74.2602 207.744 74.3856 208.483 75.1821 208.879C75.9506 206.735 76.1056 204.521 76.3728 202.336C76.668 199.935 76.7933 197.509 77.1611 195.12C77.3892 193.579 77.5027 192.023 77.5008 190.466C77.5156 187.606 77.5008 184.748 77.5008 181.89C77.5008 181.284 77.5008 180.677 77.5255 180.076C77.5503 179.476 77.8372 179.065 78.454 179.052C80.0124 179.019 81.5774 178.953 83.1293 179.052C84.6811 179.151 85.3325 179.987 85.3639 181.627C85.3853 182.753 85.3639 183.879 85.3639 185.006C85.3639 185.57 85.1676 186.033 84.564 186.177C83.8384 186.341 83.6257 186.846 83.6257 187.517C83.6257 188.904 83.5976 190.289 83.6257 191.676C83.7081 196.71 83.1309 201.688 82.4037 206.657C82.28 207.506 82.2866 208.376 82.2387 209.236C82.2255 209.454 82.3278 209.588 82.529 209.584C82.6925 209.603 82.8579 209.574 83.0056 209.502C83.3484 209.238 83.6745 208.952 83.9819 208.648C85.7217 206.957 87.5226 205.323 89.1767 203.553C93.6293 198.791 98.6608 194.688 103.689 190.58C104.091 190.25 104.678 189.974 104.83 189.549C105.308 188.22 106.479 187.613 107.373 186.693C108.501 185.522 109.743 185.085 111.318 185.233C112.349 185.332 113.396 185.258 114.435 185.279C115.012 185.291 115.474 185.533 115.49 186.168C115.526 187.639 115.517 189.112 115.515 190.583C115.515 191.145 115.185 191.551 114.816 191.93C113.559 193.25 112.296 194.544 110.825 195.634C104.364 200.448 98.3615 205.848 92.8954 211.768C92.8443 211.824 92.8443 211.933 92.8179 212.023C92.9828 212.507 93.349 212.266 93.6293 212.2C98.8472 210.976 104.044 209.649 109.296 208.552C111.737 208.041 114.267 207.929 116.763 207.727C118.312 207.6 119.865 207.65 121.416 207.36C122.509 207.155 123.66 207.267 124.785 207.224C127.364 207.105 129.934 206.835 132.481 206.415C134.088 206.164 135.76 206.304 137.401 206.324C138.026 206.332 138.273 206.809 138.278 207.393C138.289 208.692 138.316 209.992 138.278 211.29C138.247 212.404 137.948 212.774 136.922 212.784C133.891 212.812 130.893 213.265 127.865 213.395C123.551 213.582 119.197 213.679 114.951 214.55C110.208 215.516 105.501 216.676 100.8 217.84C97.9467 218.547 95.1317 219.415 92.3051 220.228C92.0841 220.292 91.8103 220.45 91.7229 220.638C91.5151 221.112 91.995 221.176 92.2638 221.336C92.487 221.471 92.7242 221.582 92.9713 221.666C98.6295 223.562 104.215 225.662 110.022 227.12C113.368 227.959 116.618 229.171 119.884 230.325C121.356 230.847 122.817 231.356 124.336 231.694C125.094 231.875 125.838 232.108 126.564 232.392C127.085 232.585 127.443 232.989 127.4 233.576C127.277 235.261 127.855 237.004 127 238.631C124.943 238.952 122.779 239.26 120.857 238.545C118.101 237.519 115.22 236.907 112.504 235.766C110.756 235.032 108.923 234.485 107.108 233.926C105.208 233.343 103.28 232.847 101.365 232.314C95.0987 230.574 89.0233 228.314 82.9611 226.001C82.6412 225.873 82.3099 225.775 81.9716 225.71C81.9056 225.698 81.7011 225.97 81.7226 226.079C81.8143 226.496 81.9355 226.906 82.0854 227.306C84.1138 232.948 87.0328 238.179 89.6714 243.53C91.6668 247.564 93.8173 251.523 95.8424 255.544C97.203 258.249 98.4811 260.998 99.7657 263.739C100.795 265.927 101.745 268.152 102.808 270.327C103.274 271.257 103.497 272.289 103.456 273.328C103.412 274.539 103.442 275.754 103.42 276.966C103.41 277.586 103.048 277.919 102.442 277.931C101.144 277.956 99.8416 277.997 98.5454 277.946C96.8962 277.882 95.6577 276.859 95.6446 275.228C95.6314 273.492 94.9486 272.047 94.2906 270.545C91.5415 264.278 88.1888 258.31 85.1594 252.176C82.7879 247.359 80.3769 242.557 77.9939 237.752C77.8075 237.377 77.7119 236.927 77.1693 236.736C76.4965 238.317 76.3348 240.024 76.0314 241.683C75.563 244.233 75.2811 246.815 74.9298 249.385C74.4961 252.554 74.1299 255.734 73.6204 258.892C73.4013 260.258 73.291 261.64 73.2905 263.024C73.2905 265.104 73.2905 267.184 73.2905 269.263C73.3021 271.613 72.8106 273.894 72.3241 276.171C72.1032 277.205 71.9086 277.349 70.9521 277.374C69.6526 277.407 68.353 277.408 67.0535 277.374C66.1317 277.346 65.7095 276.998 65.6748 276.168C65.6155 274.699 65.6353 273.224 65.6452 271.752C65.6347 271.492 65.7013 271.235 65.8365 271.013C67.1706 269.217 66.9909 267.085 67.1558 265.046C67.2393 263.835 67.2437 262.62 67.169 261.408C66.9595 256.967 67.728 252.614 68.3151 248.243C68.7637 244.902 69.3046 241.573 69.6773 238.223C69.8092 237.037 70.3534 235.888 70.1423 234.664C69.4431 234.575 69.1298 235.055 68.7785 235.405C64.7282 239.435 60.5741 243.365 57.0268 247.877C56.0142 249.165 54.8054 250.306 53.6378 251.464C51.9755 253.113 50.3692 254.81 49.0202 256.731C47.8539 258.347 46.5423 259.853 45.1019 261.23C44.3581 261.962 43.5616 262.723 43.2615 263.704C42.9795 264.634 42.5326 264.946 41.6222 264.919C40.0638 264.872 38.5021 264.905 36.9436 264.881C36.3467 264.881 35.9756 264.566 35.936 263.938C35.9195 263.679 35.9096 263.419 35.9113 263.158C35.9261 261.86 35.7991 260.538 36.0036 259.269C36.2081 258.001 37.4367 257.358 38.2448 256.487C42.3676 252.048 45.8061 247.011 50.2934 242.894C51.2416 242.023 51.9771 240.915 52.8215 239.933C56.5921 235.52 60.6778 231.387 65.0465 227.565C65.2445 227.397 65.4158 227.2 65.5545 226.981C65.6171 226.877 65.5643 226.686 65.5215 226.547C65.505 226.495 65.3697 226.447 65.2922 226.452C64.9469 226.466 64.603 226.506 64.2632 226.569C60.1239 227.468 55.9911 228.393 51.8501 229.278C46.0633 230.517 40.613 232.722 35.2335 235.106C34.4089 235.471 33.6569 235.736 32.7779 235.718C31.4801 235.69 30.1805 235.692 28.8827 235.652C28.773 235.656 28.6638 235.637 28.5613 235.598C28.4589 235.559 28.3653 235.5 28.286 235.424C28.2068 235.348 28.1434 235.257 28.0998 235.156C28.0561 235.056 28.033 234.947 28.0317 234.838C27.9872 233.366 28.0037 231.894 28.0004 230.421C28.0004 229.829 28.322 229.447 28.8464 229.242C34.2456 227.144 39.5427 224.728 45.2206 223.46C51.9689 221.953 58.7567 220.62 65.5264 219.209C65.7556 219.146 65.9882 219.052 66.3131 218.951Z" fill="#FA8AA7"/>
<path d="M31.5443 161.36C31.581 160.234 31.6607 159.106 31.6446 157.98C31.6177 155.971 31.9475 154.005 32.423 152.076C32.7746 150.653 33.3294 149.277 33.8592 147.905C34.2647 146.857 34.5884 145.784 35.1816 144.798C35.4315 144.343 35.7385 143.922 36.0953 143.544C37.5223 142.136 39.0676 140.896 40.9663 140.152C42.7011 139.475 44.4144 138.747 46.1495 138.061C47.5113 137.492 48.9621 137.165 50.4364 137.095C50.5661 137.089 50.6954 137.076 50.8237 137.057C51.9409 136.902 51.9442 136.904 52.3635 135.835C52.601 135.23 52.8401 134.626 53.0548 134.013C53.4003 133.034 53.9129 132.138 54.4244 131.228C55.3493 129.581 56.5661 128.194 57.8236 126.824C58.2961 126.317 58.8294 125.871 59.4113 125.495C61.5463 124.091 63.7614 122.814 66.0454 121.669C66.5076 121.432 66.9511 121.16 67.3722 120.856C67.8897 120.463 68.4483 120.128 69.0383 119.856C69.2802 119.759 69.5115 119.638 69.7283 119.494C70.6914 118.799 71.7926 118.426 72.8932 118.019C74.3164 117.499 75.7938 117.14 77.2973 116.95C77.4275 116.944 77.5561 116.92 77.6792 116.877C78.7098 116.393 79.799 116.537 80.8771 116.567C81.9553 116.597 83.0446 116.638 84.1275 116.673C84.3865 116.677 84.6443 116.708 84.8967 116.766C85.0242 116.797 85.1388 116.866 85.2244 116.966C85.31 117.065 85.3622 117.189 85.3736 117.319C85.3905 117.448 85.3968 117.578 85.3923 117.708C85.3372 119.397 85.2903 121.089 85.2269 122.778C85.2079 123.361 85.1511 123.383 84.5203 123.449C82.6681 123.632 80.8445 124.036 79.0888 124.653C77.0591 125.403 75.1308 126.404 73.3486 127.631C72.382 128.279 71.3132 128.774 70.2789 129.321C68.4792 130.276 66.7368 131.336 65.0604 132.494C64.5062 132.911 64.0036 133.393 63.5632 133.93C62.818 134.77 62.1161 135.651 61.4045 136.522C61.331 136.629 61.2845 136.752 61.2691 136.881C61.2469 137.006 61.2602 137.153 61.4089 137.199C61.5707 137.257 61.7407 137.288 61.9124 137.291C63.0071 137.269 64.0495 137.534 65.1077 137.772C66.5931 138.104 67.965 138.822 69.0856 139.852C70.6646 141.271 72.2024 142.737 73.5579 144.382C74.5767 145.623 75.5178 146.921 76.0266 148.472C76.3121 149.291 76.446 150.155 76.4218 151.023C76.3198 153.578 76.2364 156.134 76.1717 158.692C76.1491 159.428 75.9895 160.154 75.701 160.831C75.0699 162.372 74.1509 163.685 73.0197 164.928C71.7157 166.361 70.1157 167.053 68.3333 167.518C67.8711 167.636 67.3944 167.686 66.9177 167.668C64.8805 167.602 62.8439 167.515 60.8073 167.477C60.184 167.467 59.7207 167.303 59.4497 166.707C59.354 166.512 59.2233 166.336 59.0641 166.188C57.2221 164.383 55.9216 162.166 54.4348 160.097C53.4421 158.714 52.8823 157.107 52.3257 155.505C51.9658 154.483 51.6937 153.432 51.5125 152.363C51.4542 152.11 51.4218 151.851 51.4155 151.591C51.4961 149.779 51.1016 147.964 51.3111 146.143C51.3255 145.97 51.3268 145.796 51.3149 145.623C51.3025 145.293 51.1048 145.135 50.8103 145.259C49.2513 145.907 47.6754 146.521 46.1488 147.238C44.4732 148.024 43.1706 149.311 41.9036 150.621C41.6423 150.911 41.4328 151.244 41.284 151.606C40.2604 153.9 39.3181 156.232 38.6549 158.656C38.4115 159.62 38.2205 160.597 38.0827 161.581C38.063 161.883 38.095 162.186 38.1772 162.477C38.585 164.475 39.3142 166.393 40.3366 168.157C40.8483 169.062 41.3751 169.958 41.939 170.83C42.1406 171.109 42.2454 171.447 42.2376 171.792C42.1839 173.44 42.1301 175.088 42.0681 176.736C42.0456 177.427 41.9536 177.514 41.3139 177.499C39.624 177.458 37.9334 177.388 36.2434 177.348C36.0049 177.353 35.7696 177.292 35.564 177.171C35.3584 177.05 35.1905 176.874 35.0794 176.663C33.9415 174.72 32.7466 172.809 32.0687 170.625C31.6213 169.167 31.2944 167.706 31.3893 166.161C31.4726 164.568 31.4921 162.96 31.5443 161.36ZM58.5109 143.995C58.2003 144.006 58.0572 144.145 58.0034 144.376C57.8884 144.818 58.0645 145.236 58.1166 145.66C58.457 148.552 59.4373 151.331 60.9863 153.796C61.9762 155.368 63.0975 156.856 64.1784 158.37C64.4163 158.679 64.6832 158.964 64.9756 159.221C65.363 159.587 65.5648 159.57 65.9669 159.182C66.3982 158.758 66.7928 158.294 67.2385 157.886C67.742 157.408 68.1758 156.862 68.5272 156.263C69.5222 154.645 69.4635 154.117 68.3889 152.511C67.7108 151.499 66.8814 150.621 66.1268 149.677C64.8426 148.074 63.281 146.779 61.7489 145.44C60.8002 144.629 59.6286 144.279 58.5059 143.995L58.5109 143.995Z" fill="#029C54"/>
</svg>
