<svg width="350" height="363" viewBox="0 0 350 363" fill="none" xmlns="http://www.w3.org/2000/svg">
<path d="M37.4919 140.097C29.3178 136.522 21.8911 131.455 15.5973 125.16C10.1996 119.886 6.66006 114.159 7.54494 106.047C8.24653 99.5673 7.77891 92.9495 7.6525 86.4007C7.59103 82.7871 8.53822 79.2273 10.3892 76.116C17.6389 63.4328 26.8228 52.583 38.7497 43.824C53.0089 33.3572 68.9367 26.5385 85.4018 20.6238C101.203 14.9729 117.156 9.79286 133.438 5.61744C145.892 2.446 158.667 0.687165 171.52 0.37463C184.338 0.0355742 197.206 -0.479293 210.031 0.958555C214.929 1.50481 219.91 1.25994 224.84 1.58644C231.104 1.99456 237.317 2.8422 243.075 5.5107C245.477 6.59953 248.102 7.11761 250.742 7.02389C255.027 6.97366 259.312 6.97366 263.598 7.02389C275.499 7.17458 286.39 9.90587 295.03 18.8155C296.572 20.404 298.822 21.3898 300.876 22.4007C311.621 27.7189 320.59 35.423 329.072 43.7487C337.03 51.5281 341.676 61.2603 345.202 71.5638C345.949 74.0761 346.31 76.6863 346.271 79.3056C346.416 85.8607 346.214 92.4158 346.346 98.9709C346.473 105.287 344.052 110.499 339.571 114.731C335.778 118.335 331.638 121.637 327.663 125.066C326.462 126.102 325.008 126.949 324.585 129.015C329.717 132.28 335.184 135.25 339.723 139.658C346.473 146.225 349.835 154.036 349.899 163.322C349.937 168.565 349.703 173.821 349.949 179.051C350.461 189.838 347.029 199.771 343.174 209.497C339.318 219.223 332.58 226.701 323.997 232.653C321.21 234.587 321.247 235.736 323.611 238.034C325.508 239.861 327.65 241.487 329.199 243.559C333.788 249.713 337.08 256.305 336.512 264.399C336.167 270.292 336.167 276.2 336.512 282.092C337.226 297.381 330.134 308.501 317.815 316.626C305.96 324.356 293.319 330.826 280.101 335.927C260.134 343.794 239.428 349.113 218.494 353.621C206.919 356.132 195.31 358.46 183.668 360.603C176.236 362.081 168.682 362.869 161.103 362.957C145.934 362.926 130.764 363.108 115.595 362.895C104.736 362.744 93.7701 362.932 83.0568 361.482C65.2264 359.077 50.7335 350.877 42.2703 334.163C40.2983 330.27 39.1415 326.32 39.3248 321.919C39.5144 317.335 39.4512 312.739 39.3248 308.156C38.9519 291.831 45.6137 278.269 56.3397 266.496C61.8576 260.443 67.8939 254.874 73.5571 249.229C72.7228 245.977 70.3209 246.975 68.6333 246.994C58.3751 247.107 48.2432 246.366 38.2946 243.685C29.0649 241.161 20.2787 237.248 12.2412 232.082C4.0245 226.927 -0.134524 219.656 0.143581 209.93C0.298463 206.983 0.298463 204.03 0.143581 201.083C-0.842428 188.35 3.3039 177.431 10.9202 167.284C17.4936 158.525 24.5599 150.489 33.9586 144.681C35.2733 143.839 36.8661 143.098 37.4919 140.097Z" fill="#BEE6EE"/>
<path d="M210.961 308.281C209.993 309.679 209.46 310.476 208.901 311.255C207.316 313.451 205.592 314.233 203.563 313.686C201.079 313.016 198.982 311.542 196.338 311.195C195.716 311.115 195.153 310.806 194.516 310.836C190.472 311.014 188.028 308.362 185.149 306.479C184.328 305.944 184.28 305.063 184.603 303.929C184.972 302.593 185.268 301.265 185.612 299.935C186.683 295.787 187.214 291.733 187.597 287.616C188.318 279.899 189.191 272.117 191.103 264.245C194.227 251.379 197.109 238.508 200.559 225.643C201.15 223.422 201.552 221.199 201.76 219.006C202.285 213.615 203.026 208.188 202.84 202.918C202.72 199.552 203.205 195.977 203.53 192.478C203.774 189.707 203.842 186.973 203.732 184.295C203.479 177.525 203.422 170.712 203.909 163.718C204.275 158.379 203.669 153.241 203.463 148.024C203.336 144.783 203.093 141.58 203.001 138.326C202.828 132.251 202.429 126.253 201.508 120.448C201.389 119.626 201.319 118.8 201.233 117.975C201.147 117.149 201.287 116.269 201.895 115.417C203.44 113.186 204.97 110.94 206.553 108.735C206.949 108.251 207.411 107.837 207.912 107.519C208.273 107.262 208.85 107.251 209.063 106.943C211.24 103.799 213.922 103.851 216.556 103.34C220.558 102.555 224.568 101.665 228.571 100.848C229.769 100.604 230.97 100.418 232.158 100.279C233.219 100.12 234.209 100.333 234.989 100.889C236.528 102.033 238.122 103.099 239.717 104.164C240.439 104.664 240.724 105.302 240.72 106.454C240.7 115.622 239.386 125.03 238.417 134.378C237.962 138.759 237.632 143.127 237.474 147.447C237.224 154.08 236.525 160.814 235.383 167.598C234.244 174.4 234.294 180.985 233.366 187.744C232.862 191.414 232.429 195.086 231.741 198.769C231.086 202.169 230.62 205.554 230.345 208.905C230.201 210.789 229.963 212.586 230.67 214.252C231.312 215.77 230.852 217.876 230.526 219.786C230.099 222.287 229.474 224.808 229.003 227.316C226.866 238.686 224.778 250.049 222.616 261.42C222.085 264.224 221.564 267.068 220.642 269.842C219.279 273.946 218.933 278.117 216.99 282.172C216.799 282.569 216.817 283.047 216.779 283.484C216.381 287.853 215.81 292.257 215.316 296.638C214.856 300.801 214.116 305.233 210.961 308.281Z" fill="#FA8AA7"/>
<path d="M202.025 93.5515C202.355 91.2658 201.593 89.0989 201.275 86.8824C200.693 82.8585 200.148 78.8412 199.86 74.7761C199.53 70.1025 199.634 65.4338 199.53 60.7585C199.464 57.8049 199.776 54.8826 199.982 51.9488C200.175 49.2294 201.491 46.9849 203.186 44.9829C204.469 43.4673 205.968 42.1365 207.375 40.7265C207.618 40.4793 207.911 40.287 208.235 40.1625C208.559 40.0379 208.905 39.9839 209.252 40.0042C210.637 40.0388 212.025 39.9943 213.411 40.0322C214.379 40.0586 214.478 40.2499 214.631 41.3136C214.979 43.7229 214.946 46.1439 214.951 48.5698C214.964 54.0284 214.926 59.4887 215.038 64.9456C215.116 68.7502 215.368 72.5531 215.619 76.3511C215.968 81.5271 216.666 86.6737 217.708 91.7556C217.758 91.998 217.819 92.3246 218.142 92.3015C218.386 92.2847 218.613 92.172 218.774 91.9881C220.918 88.8465 223.281 85.8352 225.014 82.4232C226.935 78.6401 228.839 74.847 230.728 71.0441C232.003 68.4731 232.9 65.7405 233.586 62.9782C234.782 58.1793 236.691 53.6178 237.981 48.86C238.109 48.4473 238.281 48.0493 238.492 47.6726C238.603 47.4349 238.78 47.2339 239.001 47.0936C239.223 46.9533 239.48 46.8795 239.742 46.881C241.302 46.8645 242.862 46.8645 244.421 46.881C245.325 46.881 245.816 47.4945 246.172 48.2251C246.87 49.6532 247.116 51.2232 247.162 52.7586C247.378 58.9906 247.477 65.2244 246.085 71.3707C245.615 73.4684 245.171 75.5892 244.842 77.7198C244.319 80.9884 243.192 84.0789 242.229 87.2205C240.602 92.5142 239.002 97.8162 237.394 103.115C237.325 103.365 237.27 103.619 237.229 103.875C237.22 103.959 237.233 104.043 237.267 104.12C237.302 104.196 237.356 104.262 237.425 104.31C237.493 104.359 237.574 104.388 237.657 104.395C237.741 104.401 237.825 104.385 237.9 104.348C239.993 103.524 242.092 102.699 244.167 101.833C250.058 99.3466 255.878 96.6849 261.498 93.5664C264.136 92.097 266.925 90.8684 269.682 89.6084C276.7 86.4012 283.205 82.1726 288.984 77.0602C289.381 76.7106 289.749 76.3626 290.321 76.3675C291.97 76.3791 293.62 76.3675 295.257 76.4005C295.367 76.3959 295.476 76.414 295.578 76.4538C295.68 76.4936 295.773 76.5541 295.851 76.6317C295.928 76.7092 295.989 76.802 296.028 76.9041C296.068 77.0063 296.086 77.1156 296.082 77.2251C296.108 79.646 296.327 82.0719 295.917 84.4813C295.844 84.9068 295.684 85.3355 295.702 85.7577C295.798 87.9577 294.817 89.8311 293.747 91.5907C291.458 95.3606 289.243 99.1767 286.454 102.64C283.212 106.652 279.498 110.016 274.935 112.564C267.362 116.795 259.145 119.754 250.613 121.323C243.817 122.585 237.049 124.024 230.214 125.08C223.88 126.058 217.467 126.426 211.062 126.18C209.164 126.107 207.269 125.906 205.378 125.715C204.415 125.619 203.45 125.594 202.543 125.879C201.024 126.364 199.469 126.386 197.914 126.397C194.101 126.424 190.288 126.374 186.475 126.417C183.944 126.445 181.49 125.863 179.002 125.569C175.655 125.174 172.319 124.671 168.995 124.125C166.087 123.648 163.2 122.98 160.502 121.798C156.959 120.244 154.047 117.809 151.562 114.837C148.819 111.553 146.604 107.998 145.016 103.995C144.096 101.678 142.735 99.5263 141.471 97.3594C140.306 95.3328 139.292 93.2234 138.436 91.0481C138.246 90.5715 138.042 90.0587 138.029 89.5639C137.983 87.7499 137.999 85.9259 138.029 84.1069C138.029 83.5001 138.393 83.1455 139.018 83.1372C140.405 83.1175 141.792 83.1372 143.177 83.1043C143.938 83.0861 144.497 83.4061 144.991 83.9288C147.48 86.5806 150.034 89.1747 152.442 91.8974C153.661 93.2761 155.163 94.3002 156.456 95.5783C160.848 99.9172 165.825 103.53 170.969 106.908C174.671 109.327 178.686 111.231 182.902 112.568C186.53 113.722 190.115 115.005 193.875 115.689C194.298 115.769 194.726 115.821 195.156 115.843C195.278 115.843 195.409 115.696 195.643 115.548C195.212 114.766 194.489 114.289 193.855 113.734C192.239 112.294 190.625 110.851 188.979 109.446C187.727 108.381 186.489 107.281 185.133 106.359C182.669 104.683 180.67 102.544 178.677 100.371C176.622 98.1295 174.679 95.829 173.182 93.1623C172.116 91.2792 171.18 89.326 170.378 87.3162C169.059 84.0179 167.86 80.6866 167.08 77.2103C166.642 75.2693 166.33 73.3022 166.145 71.3212C165.889 68.4814 165.558 65.6498 165.281 62.8117C165.203 62.0366 165.17 61.2549 165.169 60.4765C165.157 56.8369 165.169 53.1972 165.157 49.5576C165.158 47.4721 165.688 45.421 166.697 43.596C167.08 42.8786 167.573 42.5949 168.346 42.6065C169.646 42.6246 170.947 42.6477 172.247 42.6065C173.083 42.5752 173.52 42.9874 173.805 43.6916C174.585 45.6178 175.327 47.5588 176.158 49.4636C177.613 52.7948 179.112 56.1079 180.611 59.4178C181.068 60.4254 181.389 61.522 182.532 62.0828C182.862 62.2477 183.035 62.7638 183.233 63.1431C183.713 64.065 184.191 64.9902 184.622 65.9351C187 71.148 189.777 76.1218 193.123 80.7889C195.946 84.7287 198.621 88.7756 201.369 92.7682C201.58 93.0335 201.811 93.2826 202.06 93.5136C202.082 93.5791 202.112 93.6417 202.149 93.6999C202.17 93.728 202.233 93.723 202.276 93.7313L202.025 93.5515Z" fill="#FFF258"/>
<path d="M191.198 284.833C192.005 282.669 191.72 280.39 191.878 278.156C192.162 274.1 192.482 270.059 193.061 266.025C193.729 261.388 194.82 256.847 195.709 252.256C196.271 249.355 197.194 246.565 198.018 243.742C198.782 241.125 200.544 239.211 202.625 237.613C204.2 236.404 205.947 235.421 207.621 234.341C207.911 234.151 208.238 234.025 208.581 233.972C208.924 233.919 209.274 233.94 209.608 234.033C210.955 234.36 212.321 234.611 213.667 234.942C214.607 235.173 214.663 235.381 214.588 236.453C214.417 238.881 213.872 241.24 213.363 243.612C212.219 248.949 211.025 254.277 209.978 259.634C209.248 263.369 208.688 267.139 208.128 270.904C207.373 276.036 206.964 281.214 206.906 286.401C206.903 286.649 206.893 286.981 207.214 287.027C207.456 287.062 207.702 287 207.898 286.854C210.659 284.238 213.607 281.796 216.023 278.829C218.702 275.539 221.367 272.235 224.019 268.919C225.81 266.677 227.266 264.196 228.522 261.642C230.707 257.205 233.54 253.152 235.809 248.776C236.021 248.4 236.273 248.047 236.56 247.724C236.718 247.515 236.934 247.356 237.18 247.266C237.426 247.176 237.693 247.158 237.949 247.215C239.477 247.53 241.001 247.86 242.521 248.206C243.405 248.398 243.755 249.102 243.948 249.891C244.327 251.435 244.235 253.021 243.955 254.531C242.845 260.668 241.621 266.781 238.958 272.493C238.054 274.443 237.171 276.422 236.397 278.434C235.194 281.518 233.438 284.299 231.831 287.165C229.119 291.994 226.432 296.836 223.738 301.674C223.617 301.904 223.509 302.14 223.415 302.382C223.388 302.462 223.383 302.547 223.401 302.629C223.418 302.711 223.457 302.787 223.514 302.849C223.571 302.911 223.643 302.956 223.724 302.98C223.804 303.005 223.889 303.007 223.971 302.987C226.191 302.625 228.417 302.264 230.628 301.857C236.912 300.675 243.164 299.307 249.317 297.45C252.207 296.573 255.193 295.964 258.155 295.317C265.693 293.669 272.946 290.915 279.677 287.144C280.14 286.886 280.573 286.624 281.131 286.75C282.74 287.111 284.354 287.449 285.948 287.828C286.056 287.847 286.159 287.888 286.25 287.948C286.341 288.009 286.419 288.088 286.479 288.18C286.538 288.272 286.577 288.376 286.595 288.484C286.612 288.592 286.606 288.703 286.579 288.809C286.091 291.18 285.792 293.598 284.88 295.865C284.719 296.266 284.472 296.651 284.4 297.067C284.027 299.238 282.671 300.86 281.252 302.353C278.216 305.553 275.243 308.813 271.784 311.606C267.765 314.84 263.423 317.341 258.423 318.864C250.126 321.394 241.469 322.544 232.798 322.27C225.889 322.063 218.97 322.036 212.066 321.618C205.668 321.232 199.323 320.233 193.116 318.635C191.276 318.162 189.467 317.564 187.659 316.976C186.738 316.678 185.801 316.45 184.854 316.536C183.267 316.688 181.742 316.38 180.22 316.061C176.488 315.279 172.773 314.423 169.037 313.657C166.557 313.148 164.283 312.059 161.913 311.245C158.727 310.149 155.573 308.95 152.439 307.712C149.699 306.63 147.018 305.366 144.632 303.638C141.5 301.37 139.169 298.372 137.37 294.941C135.386 291.151 133.975 287.207 133.271 282.959C132.863 280.499 131.989 278.108 131.212 275.722C130.503 273.495 129.959 271.218 129.584 268.911C129.5 268.405 129.409 267.861 129.501 267.374C129.84 265.592 130.242 263.813 130.657 262.041C130.786 261.448 131.217 261.179 131.829 261.303C133.189 261.578 134.54 261.891 135.901 262.152C136.648 262.296 137.127 262.727 137.499 263.343C139.369 266.462 141.316 269.538 143.092 272.709C143.991 274.315 145.242 275.634 146.235 277.157C149.607 282.328 153.706 286.914 158.017 291.305C161.123 294.453 164.643 297.165 168.48 299.365C171.781 301.262 175.013 303.275 178.542 304.741C178.939 304.909 179.346 305.05 179.762 305.162C179.881 305.188 180.04 305.072 180.3 304.977C180.045 304.122 179.438 303.503 178.937 302.825C177.663 301.076 176.391 299.324 175.08 297.602C174.083 296.295 173.105 294.958 171.976 293.77C169.923 291.61 168.423 289.096 166.935 286.549C165.402 283.924 163.991 281.264 163.093 278.34C162.45 276.274 161.949 274.167 161.592 272.033C161.001 268.53 160.535 265.02 160.51 261.457C160.493 259.468 160.605 257.479 160.844 255.504C161.196 252.675 161.472 249.837 161.803 247.005C161.891 246.231 162.025 245.46 162.188 244.699C162.948 241.139 163.73 237.585 164.49 234.025C164.934 231.987 165.886 230.095 167.259 228.526C167.785 227.905 168.327 227.733 169.08 227.908C170.347 228.201 171.613 228.499 172.892 228.734C173.716 228.881 174.056 229.377 174.185 230.125C174.539 232.173 174.853 234.227 175.262 236.265C175.978 239.829 176.74 243.384 177.504 246.936C177.737 248.018 177.819 249.158 178.817 249.948C179.104 250.179 179.164 250.72 179.277 251.133C179.551 252.136 179.822 253.141 180.043 254.156C181.262 259.754 182.922 265.203 185.203 270.474C187.127 274.922 188.884 279.444 190.723 283.928C190.873 284.232 191.046 284.525 191.24 284.803C191.248 284.872 191.264 284.939 191.288 285.004C191.303 285.036 191.365 285.045 191.405 285.062L191.198 284.833Z" fill="#FFF258"/>
<path d="M200.59 188.039C201.199 185.812 200.71 183.567 200.668 181.328C200.586 177.264 200.542 173.21 200.757 169.14C201.006 164.461 201.685 159.841 202.158 155.189C202.457 152.25 203.127 149.388 203.693 146.502C204.22 143.827 205.803 141.762 207.732 139.985C209.192 138.639 210.844 137.503 212.414 136.277C212.686 136.062 213.001 135.907 213.337 135.824C213.674 135.74 214.024 135.729 214.365 135.792C215.736 135.997 217.119 136.124 218.489 136.333C219.447 136.478 219.521 136.68 219.542 137.755C219.591 140.189 219.259 142.587 218.965 144.995C218.305 150.414 217.594 155.828 217.032 161.257C216.64 165.042 216.421 168.847 216.201 172.647C215.909 177.826 215.967 183.02 216.375 188.191C216.394 188.438 216.414 188.77 216.738 188.786C216.982 188.8 217.221 188.716 217.403 188.553C219.918 185.7 222.635 183.003 224.776 179.831C227.148 176.314 229.506 172.785 231.85 169.244C233.432 166.85 234.659 164.249 235.681 161.592C237.459 156.977 239.917 152.686 241.783 148.124C241.961 147.73 242.181 147.356 242.437 147.008C242.576 146.786 242.777 146.608 243.014 146.496C243.251 146.385 243.515 146.343 243.775 146.377C245.326 146.553 246.873 146.745 248.418 146.954C249.315 147.065 249.727 147.735 249.99 148.504C250.507 150.007 250.557 151.595 250.413 153.125C249.859 159.336 249.188 165.534 247.049 171.462C246.324 173.486 245.622 175.535 245.032 177.609C244.11 180.788 242.611 183.716 241.268 186.715C239 191.768 236.758 196.832 234.509 201.892C234.41 202.131 234.324 202.377 234.252 202.626C234.232 202.707 234.235 202.793 234.26 202.873C234.284 202.953 234.33 203.026 234.392 203.082C234.454 203.138 234.53 203.177 234.613 203.194C234.695 203.211 234.78 203.206 234.86 203.178C237.038 202.618 239.223 202.059 241.389 201.455C247.541 199.714 253.645 197.791 259.607 195.389C262.406 194.256 265.325 193.381 268.217 192.471C275.577 190.154 282.553 186.759 288.919 182.399C289.356 182.101 289.764 181.801 290.331 181.876C291.967 182.091 293.604 182.283 295.226 182.518C295.335 182.527 295.441 182.558 295.537 182.61C295.634 182.662 295.719 182.734 295.786 182.82C295.853 182.907 295.902 183.007 295.929 183.113C295.956 183.219 295.96 183.33 295.942 183.438C295.67 185.844 295.588 188.278 294.883 190.618C294.759 191.032 294.547 191.437 294.513 191.859C294.337 194.054 293.132 195.792 291.853 197.406C289.116 200.865 286.448 204.378 283.253 207.471C279.541 211.053 275.441 213.934 270.598 215.899C262.561 219.163 254.042 221.086 245.382 221.591C238.482 222.005 231.588 222.599 224.675 222.803C218.269 222.993 211.859 222.568 205.534 221.533C203.659 221.227 201.804 220.793 199.95 220.37C199.006 220.156 198.052 220.013 197.117 220.184C195.55 220.478 194.004 220.307 192.459 220.127C188.672 219.683 184.894 219.164 181.105 218.736C178.59 218.452 176.227 217.571 173.793 216.973C170.521 216.168 167.273 215.257 164.041 214.305C161.214 213.474 158.431 212.455 155.9 210.949C152.576 208.97 149.986 206.194 147.886 202.938C145.57 199.342 143.81 195.54 142.728 191.372C142.101 188.959 141.016 186.656 140.028 184.349C139.122 182.195 138.376 179.976 137.795 177.712C137.666 177.216 137.526 176.682 137.574 176.189C137.752 174.383 137.993 172.575 138.247 170.774C138.322 170.171 138.727 169.865 139.349 169.933C140.727 170.085 142.101 170.276 143.48 170.414C144.237 170.489 144.752 170.876 145.179 171.456C147.321 174.394 149.536 177.284 151.59 180.282C152.629 181.801 153.994 183.002 155.119 184.43C158.942 189.278 163.435 193.477 168.123 197.463C171.499 200.32 175.248 202.705 179.267 204.552C182.725 206.145 186.125 207.86 189.772 209.003C190.182 209.134 190.6 209.238 191.024 209.313C191.145 209.328 191.293 209.199 191.544 209.08C191.213 208.251 190.553 207.689 189.993 207.06C188.567 205.432 187.143 203.8 185.683 202.203C184.572 200.992 183.479 199.747 182.247 198.665C180.009 196.699 178.289 194.329 176.579 191.927C174.816 189.449 173.172 186.927 172.015 184.096C171.19 182.095 170.501 180.042 169.954 177.948C169.051 174.512 168.272 171.059 167.927 167.513C167.732 165.533 167.665 163.542 167.725 161.553C167.822 158.704 167.842 155.853 167.917 153.002C167.936 152.223 168 151.444 168.094 150.671C168.532 147.058 168.992 143.447 169.429 139.834C169.688 137.765 170.467 135.795 171.693 134.108C172.161 133.443 172.686 133.223 173.452 133.329C174.739 133.508 176.027 133.691 177.322 133.81C178.156 133.882 178.539 134.345 178.735 135.079C179.271 137.087 179.768 139.105 180.358 141.098C181.391 144.583 182.47 148.056 183.549 151.525C183.878 152.581 184.062 153.709 185.127 154.407C185.434 154.611 185.542 155.144 185.692 155.545C186.054 156.519 186.415 157.496 186.726 158.487C188.442 163.954 190.585 169.232 193.33 174.276C195.646 178.534 197.801 182.88 200.035 187.181C200.212 187.47 200.411 187.746 200.629 188.006C200.643 188.074 200.665 188.139 200.694 188.202C200.712 188.232 200.775 188.235 200.816 188.248L200.59 188.039Z" fill="#FFF258"/>
<path d="M106.351 128.173C106.827 128.048 107.103 127.637 107.47 127.362C108.267 126.767 109.039 126.133 109.81 125.504C110.144 125.226 110.432 124.88 110.774 124.61C112.3 123.401 113.58 121.952 114.863 120.501C115.345 119.955 115.911 119.482 116.435 118.972C116.729 118.685 117.018 118.393 117.305 118.099C117.676 117.72 118.025 117.316 118.212 116.815C118.323 116.511 118.538 116.436 118.828 116.438C119.971 116.443 121.113 116.438 122.256 116.445C122.396 116.445 122.599 116.457 122.663 116.545C122.924 116.893 123.281 116.822 123.624 116.831C123.653 116.835 123.683 116.835 123.712 116.831C124.596 116.637 125.217 117.105 125.798 117.666C126.179 118.035 126.551 118.418 126.753 118.917C127.225 120.083 127.756 121.229 127.973 122.485C128.031 122.773 128.063 123.064 128.071 123.357C128.071 124.562 128.049 125.768 128.078 126.972C128.092 127.589 127.865 128.033 127.395 128.414C126.302 129.299 125.145 130.102 123.933 130.815C122.845 131.446 121.81 132.168 120.842 132.973C120.062 133.628 119.282 134.299 118.367 134.781C118.239 134.854 118.121 134.941 118.013 135.041C117.332 135.64 116.649 136.238 115.976 136.846C115.714 137.083 115.428 137.284 115.154 137.501C114.143 138.303 112.974 138.874 111.998 139.724C111.799 139.897 111.593 140.06 111.397 140.238C111.258 140.364 111.286 140.507 111.457 140.574C112.037 140.778 112.61 141 113.199 141.171C114.157 141.45 115.08 141.816 116.007 142.177C116.683 142.456 117.373 142.701 118.074 142.91C118.753 143.084 119.442 143.221 120.137 143.319C121.001 143.461 121.869 143.578 122.738 143.696C123.695 143.825 124.66 143.833 125.622 143.89C126.848 143.963 128.073 144.106 129.253 144.443C130.298 144.73 131.276 145.224 132.128 145.896C132.234 145.998 132.353 146.085 132.483 146.154C132.9 146.326 133.008 146.635 132.999 147.064C132.977 148.122 133 149.181 132.987 150.24C132.987 150.716 132.933 150.798 132.459 150.895C131.92 151.006 131.591 151.315 131.325 151.773C130.839 152.61 130.312 153.422 129.819 154.254C129.682 154.512 129.562 154.779 129.46 155.054C129.399 155.249 129.325 155.44 129.237 155.625C128.71 156.489 128.91 156.4 127.96 156.408C127.009 156.415 126.026 156.402 125.063 156.408C124.713 156.411 124.366 156.332 124.052 156.176C122.628 155.496 121.198 154.829 119.761 154.174C119.414 154.019 119.056 153.889 118.691 153.784C117.487 153.423 116.267 153.113 115.072 152.718C113.601 152.234 112.091 151.876 110.641 151.326C110.587 151.309 110.529 151.314 110.478 151.338C110.377 151.391 110.404 151.491 110.436 151.57C110.605 151.975 110.77 152.382 110.957 152.783C111.933 154.918 112.912 157.051 113.893 159.184C114.703 160.945 115.523 162.7 116.328 164.461C117.06 166.062 117.776 167.673 118.511 169.268C118.687 169.64 118.774 170.047 118.765 170.457C118.751 171.516 118.749 172.575 118.765 173.632C118.772 174.013 118.628 174.226 118.275 174.36C117.727 174.567 117.196 174.814 116.655 175.04C116.25 175.209 115.826 175.341 115.439 175.545C114.79 175.884 114.06 176.039 113.329 175.992C112.452 175.949 111.572 175.973 110.693 175.985C110.359 175.985 110.172 175.845 110.03 175.538C108.981 173.242 107.914 170.955 106.854 168.663C105.566 165.866 104.28 163.066 102.997 160.264C101.98 158.051 100.961 155.839 99.9405 153.628C99.8425 153.416 99.7266 153.214 99.6063 152.986C99.3835 153.062 99.3969 153.268 99.369 153.402C99.1596 154.375 98.9724 155.355 98.7775 156.332C98.5792 157.338 98.4945 158.354 98.2383 159.35C98.0154 160.224 97.9274 161.138 97.8595 162.045C97.7748 163.192 97.5253 164.306 97.3292 165.432C97.2765 165.691 97.1923 165.943 97.0785 166.182C96.282 167.989 95.8799 169.919 95.334 171.804C95.3258 171.833 95.3169 171.861 95.3072 171.888C95.2103 172.134 95.3607 172.457 95.1546 172.643C94.9218 172.853 94.5976 172.742 94.3057 172.745C93.3688 172.755 92.4308 172.745 91.4928 172.745C91.2301 172.757 90.9677 172.714 90.723 172.617C90 172.302 89.2669 172.011 88.5372 171.711C88.3699 171.657 88.2071 171.59 88.0504 171.51C87.0478 170.891 87.1815 171.13 87.1726 170.11C87.1659 169.404 87.1982 168.698 87.1647 167.994C87.1222 166.816 87.3382 165.643 87.7975 164.559C88.0429 163.963 88.2491 163.351 88.4147 162.728C88.5395 162.247 88.7489 161.79 88.8993 161.313C89.3238 159.909 89.7582 158.506 90.1403 157.088C90.4523 155.93 90.6973 154.753 90.9692 153.584C90.9889 153.529 90.9962 153.471 90.9904 153.413C90.9846 153.355 90.9659 153.299 90.9357 153.249C90.8782 153.243 90.8201 153.249 90.765 153.267C90.71 153.285 90.6593 153.314 90.616 153.353C89.9476 153.83 89.2881 154.317 88.6108 154.781C87.6928 155.411 86.7459 155.994 85.7789 156.546C84.7049 157.148 83.706 157.876 82.8033 158.715C82.2273 159.258 81.6046 159.749 81.0008 160.257C79.5655 161.462 78.2466 162.799 77.0616 164.252C77.0179 164.311 76.9613 164.359 76.8962 164.393C76.8311 164.426 76.7593 164.445 76.6861 164.446C76.5981 164.446 76.5101 164.453 76.4221 164.453C75.2802 164.453 74.1372 164.444 72.9942 164.458C72.8339 164.467 72.6736 164.438 72.5259 164.375C72.3782 164.312 72.2468 164.216 72.142 164.094C71.3209 163.176 70.5467 162.222 69.9718 161.124C69.7958 160.788 69.5953 160.453 69.4482 160.106C69.1378 159.408 68.9856 158.648 69.0026 157.883C69.036 156.943 69.0394 156.001 69.0026 155.062C68.9781 154.476 69.1196 154.065 69.6599 153.763C70.2169 153.45 70.7294 153.047 71.2585 152.68C72.1765 152.044 72.9742 151.266 73.7752 150.492C74.0326 150.254 74.312 150.041 74.6096 149.856C75.5598 149.229 76.5034 148.594 77.3523 147.823C77.9034 147.336 78.5149 146.923 79.1715 146.593C79.7687 146.282 80.3602 145.945 80.9885 145.711C81.7617 145.424 82.4825 145.041 83.2166 144.675C84.2917 144.145 85.4124 143.699 86.3827 142.97C86.4941 142.883 86.6334 142.819 86.7503 142.732C87.0634 142.5 87.0544 142.285 86.708 142.173C86.1862 141.981 85.6516 141.825 85.1082 141.707C83.6154 141.432 82.1003 141.281 80.6164 140.95C80.1321 140.838 79.6403 140.761 79.1448 140.719C78.4095 140.667 77.7099 140.449 76.9914 140.318C76.5583 140.236 76.1411 140.085 75.7559 139.871C74.487 139.174 73.1023 138.791 71.7365 138.358C70.9809 138.123 70.2735 137.754 69.6477 137.268C69.4944 137.155 69.3719 137.005 69.2913 136.832C69.2108 136.659 69.1747 136.469 69.1864 136.278C69.2031 135.131 69.1931 133.985 69.192 132.838C69.1866 132.602 69.2484 132.37 69.3703 132.168C69.8227 131.377 70.1603 130.525 70.3729 129.638C70.511 129.104 70.6492 128.564 70.7717 128.023C70.8096 127.852 70.8776 127.688 70.9266 127.519C71.0123 127.219 71.2118 127.106 71.5159 127.107C72.6589 127.114 73.8019 127.107 74.9438 127.114C75.4083 127.114 75.5398 127.277 75.5676 127.769C75.5866 128.09 75.6044 128.412 75.6222 128.733C75.933 128.89 76.2361 129.068 76.5558 129.201C79.254 130.339 81.98 131.398 84.8119 132.162C86.6548 132.641 88.4418 133.316 90.1426 134.174C90.2985 134.255 90.4556 134.335 90.6149 134.408C90.7185 134.455 90.8377 134.513 90.9413 134.431C91.0449 134.35 91.0026 134.208 90.9569 134.114C90.0924 132.249 89.2201 130.389 88.359 128.525C87.4978 126.66 86.6456 124.79 85.7878 122.923C85.2241 121.697 84.6574 120.472 84.0878 119.248C83.9106 118.877 83.8222 118.469 83.8293 118.058C83.8449 116.97 83.8293 115.881 83.8393 114.794C83.8393 114.439 83.9006 114.393 84.246 114.358C84.3329 114.349 84.422 114.358 84.5089 114.35C84.94 114.307 84.9835 114.262 85.0046 113.8C85.0146 113.565 85.0113 113.329 85.0147 113.095C85.0103 113.006 85.0356 112.918 85.0867 112.845C85.1378 112.772 85.2116 112.718 85.2965 112.692C86.1822 112.388 87.0689 112.084 87.9579 111.798C88.101 111.765 88.2483 111.754 88.3946 111.765C89.5087 111.765 90.6227 111.778 91.7368 111.756C92.1256 111.75 92.3071 111.922 92.4564 112.256C93.1482 113.811 93.8612 115.357 94.5731 116.905C95.549 119.04 96.5264 121.174 97.5052 123.308C97.6389 123.601 97.7615 123.9 97.894 124.194C97.9542 124.326 98.0132 124.465 98.1848 124.496C98.4399 123.988 98.4845 123.423 98.5569 122.878C98.819 120.866 99.4095 118.911 100.305 117.092C100.751 116.199 101.133 115.276 101.449 114.329C101.702 113.546 101.973 112.771 101.957 111.93C101.951 111.638 102.045 111.554 102.317 111.542C102.638 111.527 102.961 111.535 103.283 111.528C103.429 111.528 103.617 111.528 103.655 111.367C103.752 110.961 104.056 111.002 104.347 111.002C105.43 111.002 106.514 111.002 107.598 111.002C107.892 110.99 108.186 111.032 108.464 111.127C108.711 111.22 109.034 111.076 109.217 111.278C109.45 111.537 109.32 111.898 109.328 112.214C109.344 112.918 109.312 113.625 109.339 114.33C109.373 115.224 109.21 116.078 109.004 116.934C108.885 117.358 108.816 117.794 108.798 118.234C108.802 118.616 108.761 118.997 108.676 119.369C108.394 120.507 108.079 121.637 107.774 122.768C107.607 123.392 107.44 124.017 107.262 124.637C107 125.538 106.728 126.438 106.453 127.335C106.358 127.582 106.311 127.845 106.315 128.11C106.285 128.144 106.224 128.198 106.229 128.206C106.28 128.311 106.318 128.245 106.351 128.173Z" fill="#029C54"/>
<path d="M286.602 264.014C285.829 265.664 285.264 267.188 284.358 268.563C283.129 270.43 281.565 271.493 279.224 271.339C277.424 271.22 275.612 271.303 273.805 271.281C271.424 271.252 269.722 270.072 268.607 268.047C267.781 266.533 267.198 264.913 267.194 263.148C267.208 262.804 267.205 262.46 267.184 262.116C267.061 260.854 267.505 259.546 266.889 258.322C265.615 258.157 264.344 257.95 263.067 257.814C261.706 257.671 260.33 257.74 259.013 257.194C256.865 256.3 256.026 255.215 256.003 252.919C255.983 250.687 256.067 248.466 256.242 246.229C256.641 241.156 261.098 238.677 264.551 238.675C266.271 238.675 267.991 238.72 269.711 238.746C270.264 238.746 270.626 238.596 270.897 238.015C273.081 233.341 276.815 231.052 281.951 231.03C284.099 231.022 286.247 230.883 288.395 231.278C290.901 231.743 293.149 232.724 294.958 234.585C295.712 235.36 296.148 236.204 296.072 237.342C295.978 238.711 296.021 240.092 296.022 241.466C296.022 242.302 296.164 242.447 297.053 242.61C297.384 242.673 297.739 242.681 298.076 242.746C300.059 243.122 301.445 244.357 302.604 245.919C302.851 246.274 302.97 246.701 302.943 247.131C302.932 249.538 303.108 251.966 302.841 254.346C302.345 258.758 299.956 261.966 295.971 263.971C295.328 264.301 294.649 264.331 293.962 264.321C291.988 264.291 290.007 264.432 288.043 264.087C287.618 264.014 287.187 264.039 286.602 264.014Z" fill="#029C54"/>
</svg>
