<svg width="165" height="70" viewBox="0 0 165 70" fill="none" xmlns="http://www.w3.org/2000/svg">
<path d="M116.669 15.6318C117.085 15.6107 117.296 15.3636 117.538 15.1778C119.632 13.558 121.953 12.5401 124.412 11.8896C124.937 11.7502 125.459 11.5876 125.984 11.4673C127.227 11.135 128.5 10.9685 129.777 10.971C132.676 11.0154 135.57 10.933 138.474 10.9984C142.585 11.0892 146.573 11.934 150.366 13.7671C152.446 14.7723 154.453 15.9232 156.066 17.7964C156.851 18.7127 157.56 19.7096 158.183 20.7741C158.915 22.0222 159.623 23.2872 160.401 24.5036C161.089 25.5764 161.621 26.7781 162.221 27.9227C162.397 28.2564 162.552 28.6069 162.75 28.9216C163.791 30.5836 164.325 32.4885 164.818 34.4124C164.926 34.8953 164.976 35.3926 164.966 35.8906C164.979 38.7226 165.044 41.5588 164.949 44.3866C164.871 46.7096 164.62 49.0157 163.802 51.2036C163.194 52.8297 162.35 54.196 161.087 55.254C159.47 56.6056 157.91 58.0226 156.116 59.1039C154.692 59.9713 153.213 60.7188 151.691 61.3404C150.022 62.0119 148.342 62.6074 146.629 63.1058C145.868 63.3253 145.085 63.4325 144.3 63.4247C140.957 63.4247 137.615 63.4247 134.275 63.4247C134.088 63.4247 133.881 63.4395 133.685 63.4247C130.467 63.0995 127.223 63.0024 124.059 62.1893C122.623 61.8267 121.208 61.3597 119.825 60.7913C117.805 59.9465 115.779 59.068 114.066 57.5116C113.727 57.2054 113.527 57.3004 113.247 57.7523C112.66 58.7006 112.219 59.7459 111.489 60.6054C110.241 62.1048 108.726 63.2893 107.045 64.0815C105.051 65.0197 103 65.7919 100.906 66.3918C98.3857 67.1014 95.8611 67.8279 93.3403 68.4931C91.2356 69.03 89.1057 69.4312 86.9607 69.6947C82.8964 70.2248 78.819 69.8806 74.749 69.9841C73.0672 69.6124 71.32 69.8024 69.6363 69.3801C69.4418 69.3479 69.2491 69.3035 69.059 69.247C66.512 68.2186 63.7856 67.925 61.2648 66.7994C59.4765 66.5756 57.9479 65.4753 56.2605 64.8988C54.6049 64.3391 53.1885 63.1798 51.6898 62.2379C50.4821 61.4937 49.3461 60.6097 48.3 59.6002C48.1598 59.4421 47.9735 59.347 47.7758 59.3327C47.5781 59.3183 47.3826 59.3856 47.2256 59.522C43.7911 61.9003 40.1134 63.7973 36.2734 65.1712C34.272 65.8998 32.196 66.3728 30.1479 66.9325C29.8081 66.9932 29.4632 67.0095 29.1201 66.9811C26.0724 66.9811 23.0246 67.0359 19.9786 66.9641C17.7587 66.9135 15.6172 66.4531 13.642 65.1353C11.1885 63.4986 8.56303 62.2442 5.94504 60.9814C4.3978 60.2359 2.9552 59.275 1.84522 57.8136C1.65835 57.5623 1.40979 57.3321 1.29767 57.0406C0.675408 55.4124 0.0176313 53.799 0.0269745 51.9596C0.0419238 48.6841 -0.0589563 45.4129 0.0550318 42.1311C0.16902 38.9106 0.667952 35.7745 2.01712 32.8391C3.30287 30.0274 5.02728 27.5013 7.10734 25.3822C8.45091 24.0052 9.82999 22.6642 11.1866 21.3021C13.0385 19.4437 15.165 18.2674 17.469 17.4311C19.5242 16.6703 21.6749 16.2909 23.8374 16.3076C29.0454 16.3773 34.2552 16.3203 39.465 16.3372C40.9338 16.3372 42.4081 16.3731 43.862 16.6708C44.3441 16.7701 44.8206 16.901 45.299 17.0235C45.4902 17.0847 45.6946 17.0662 45.8747 16.9712C46.0548 16.8762 46.1987 16.7111 46.28 16.5061C46.8406 15.4016 47.4143 14.3056 47.9618 13.1884C48.653 11.7796 49.587 10.5416 50.7087 9.54764C52.0486 8.327 53.4407 7.20136 54.8459 6.0842C57.4621 4.01038 60.351 2.72427 63.3969 1.75705C65.4743 1.10118 67.5799 0.565512 69.7055 0.152091C70.1886 0.0560881 70.6782 0.00729625 71.1687 0.0063355C78.5399 -0.00211183 85.9111 -0.00211183 93.2824 0.0063355C93.8714 -0.00626845 94.4587 0.0827485 95.024 0.270315C96.1956 0.68001 97.4158 0.846874 98.5837 1.30303C100.162 1.89745 101.669 2.71185 103.069 3.72741C103.724 4.21313 104.408 4.65448 105.1 5.07262C106.107 5.68083 106.944 6.55093 107.798 7.37032C108.689 8.22984 109.598 9.07244 110.45 9.99109C111.221 10.8358 112.167 11.4694 113.047 12.1663C114.366 13.1905 115.701 14.2316 116.669 15.6318Z" fill="#029C54"/>
</svg>
