<svg width="178" height="35" viewBox="0 0 178 35" fill="none" xmlns="http://www.w3.org/2000/svg">
<path d="M38.9699 5.104C34.6979 2.224 29.0819 0.591998 23.1779 0.591998C17.2739 0.591998 11.6579 2.224 7.43394 5.104C2.82594 8.272 0.28194 12.592 0.28194 17.296C0.28194 22 2.82594 26.32 7.43394 29.488C11.6579 32.416 17.2739 34.048 23.1779 34.048C29.0819 34.048 34.6979 32.416 38.9699 29.488C43.5779 26.32 46.1219 22 46.1219 17.296C46.1219 12.592 43.5779 8.272 38.9699 5.104ZM23.1779 27.664C14.2019 27.664 6.61794 22.912 6.61794 17.296C6.61794 11.68 14.2019 6.928 23.1779 6.928C32.1539 6.928 39.7859 11.68 39.7859 17.296C39.7859 22.912 32.1539 27.664 23.1779 27.664ZM92.6039 14.368C89.3399 11.488 84.0119 10.096 76.3319 10.096C67.6439 10.096 60.5399 10.816 56.4599 11.392V6.88H96.0119V0.495999H50.1239V18.976L53.9159 18.256C53.9639 18.256 63.3719 16.48 76.3319 16.48C89.6279 16.48 89.6279 20.848 89.6279 22.288C89.6279 23.008 89.5319 23.872 88.3799 24.832C87.1319 25.84 83.7719 27.52 75.2279 27.616C57.5159 27.856 56.7479 23.68 56.4119 21.904L50.1719 23.056C51.5639 30.736 58.6679 34.048 73.8839 34.048C74.3159 34.048 74.7959 34 75.2759 34C83.3879 33.904 89.0039 32.512 92.4119 29.776C94.8119 27.856 96.0119 25.312 96.0119 22.288C96.0119 21.04 96.0119 17.392 92.6039 14.368ZM107.756 34.048V27.616H101.372V34.048H107.756ZM120.113 0.447997H120.065L113.105 4.72L116.417 10.144L120.113 7.888V34.048H126.497V0.447997H120.113ZM170.557 5.104C166.285 2.224 160.669 0.591998 154.765 0.591998C148.861 0.591998 143.245 2.224 139.021 5.104C134.413 8.272 131.869 12.592 131.869 17.296C131.869 22 134.413 26.32 139.021 29.488C143.245 32.416 148.861 34.048 154.765 34.048C160.669 34.048 166.285 32.416 170.557 29.488C175.165 26.32 177.709 22 177.709 17.296C177.709 12.592 175.165 8.272 170.557 5.104ZM154.765 27.664C145.789 27.664 138.205 22.912 138.205 17.296C138.205 11.68 145.789 6.928 154.765 6.928C163.741 6.928 171.373 11.68 171.373 17.296C171.373 22.912 163.741 27.664 154.765 27.664Z" fill="#1F2225"/>
</svg>
