<svg width="179" height="35" viewBox="0 0 179 35" fill="none" xmlns="http://www.w3.org/2000/svg">
<path d="M38.7356 5.104C34.4636 2.224 28.8476 0.591998 22.9436 0.591998C17.0396 0.591998 11.4236 2.224 7.19956 5.104C2.59156 8.272 0.0475645 12.592 0.0475645 17.296C0.0475645 22 2.59156 26.32 7.19956 29.488C11.4236 32.416 17.0396 34.048 22.9436 34.048C28.8476 34.048 34.4636 32.416 38.7356 29.488C43.3436 26.32 45.8876 22 45.8876 17.296C45.8876 12.592 43.3436 8.272 38.7356 5.104ZM22.9436 27.664C13.9676 27.664 6.38356 22.912 6.38356 17.296C6.38356 11.68 13.9676 6.928 22.9436 6.928C31.9196 6.928 39.5516 11.68 39.5516 17.296C39.5516 22.912 31.9196 27.664 22.9436 27.664ZM92.3696 14.368C89.1056 11.488 83.7776 10.096 76.0976 10.096C67.4096 10.096 60.3056 10.816 56.2256 11.392V6.88H95.7776V0.495999H49.8896V18.976L53.6816 18.256C53.7296 18.256 63.1376 16.48 76.0976 16.48C89.3936 16.48 89.3936 20.848 89.3936 22.288C89.3936 23.008 89.2976 23.872 88.1456 24.832C86.8976 25.84 83.5376 27.52 74.9936 27.616C57.2816 27.856 56.5136 23.68 56.1776 21.904L49.9376 23.056C51.3296 30.736 58.4336 34.048 73.6496 34.048C74.0816 34.048 74.5616 34 75.0416 34C83.1536 33.904 88.7696 32.512 92.1776 29.776C94.5776 27.856 95.7776 25.312 95.7776 22.288C95.7776 21.04 95.7776 17.392 92.3696 14.368ZM107.522 34.048V27.616H101.138V34.048H107.522ZM119.878 0.447997H119.83L112.87 4.72L116.182 10.144L119.878 7.888V34.048H126.262V0.447997H119.878ZM141.138 27.616C143.394 26.272 147.714 24.496 155.49 22.96C155.97 22.864 156.498 22.768 157.074 22.624C164.706 21.184 176.274 18.976 177.618 11.44C178.386 7.072 175.218 3.184 169.746 1.744C164.706 0.399998 159.378 0.399998 154.194 0.399998H153.954C144.882 0.399998 138.498 2.224 134.994 5.824C132.69 8.176 132.114 10.72 132.018 12.352H138.45C138.546 11.776 138.834 11.056 139.554 10.336C140.85 8.992 144.402 6.784 153.954 6.784H154.194C158.946 6.784 163.89 6.784 168.114 7.936C169.794 8.368 171.234 9.376 171.09 10.336C170.994 10.72 170.706 12.16 166.434 13.744C163.122 14.992 159.09 15.76 155.874 16.384C155.298 16.48 154.722 16.576 154.242 16.672C146.562 18.208 140.754 20.368 136.818 22.96C131.394 26.464 131.634 34 131.634 34H177.954V27.616H141.138Z" fill="#1F2225"/>
</svg>
