<svg width="160" height="35" viewBox="0 0 160 35" fill="none" xmlns="http://www.w3.org/2000/svg">
<path d="M38.9847 5.104C34.7127 2.224 29.0967 0.591998 23.1927 0.591998C17.2887 0.591998 11.6727 2.224 7.44869 5.104C2.84069 8.272 0.296687 12.592 0.296687 17.296C0.296687 22 2.84069 26.32 7.44869 29.488C11.6727 32.416 17.2887 34.048 23.1927 34.048C29.0967 34.048 34.7127 32.416 38.9847 29.488C43.5927 26.32 46.1367 22 46.1367 17.296C46.1367 12.592 43.5927 8.272 38.9847 5.104ZM23.1927 27.664C14.2167 27.664 6.63269 22.912 6.63269 17.296C6.63269 11.68 14.2167 6.928 23.1927 6.928C32.1687 6.928 39.8007 11.68 39.8007 17.296C39.8007 22.912 32.1687 27.664 23.1927 27.664ZM92.6187 14.368C89.3547 11.488 84.0267 10.096 76.3467 10.096C67.6587 10.096 60.5547 10.816 56.4747 11.392V6.88H96.0267V0.495999H50.1387V18.976L53.9307 18.256C53.9787 18.256 63.3867 16.48 76.3467 16.48C89.6427 16.48 89.6427 20.848 89.6427 22.288C89.6427 23.008 89.5467 23.872 88.3947 24.832C87.1467 25.84 83.7867 27.52 75.2427 27.616C57.5307 27.856 56.7627 23.68 56.4267 21.904L50.1867 23.056C51.5787 30.736 58.6827 34.048 73.8987 34.048C74.3307 34.048 74.8107 34 75.2907 34C83.4027 33.904 89.0187 32.512 92.4267 29.776C94.8267 27.856 96.0267 25.312 96.0267 22.288C96.0267 21.04 96.0267 17.392 92.6187 14.368ZM107.771 34.048V27.616H101.387V34.048H107.771ZM120.128 0.447997H120.08L113.12 4.72L116.432 10.144L120.128 7.888V34.048H126.512V0.447997H120.128ZM153.299 0.447997H153.251L146.291 4.72L149.603 10.144L153.299 7.888V34.048H159.683V0.447997H153.299Z" fill="#1F2225"/>
</svg>
