<svg width="317" height="264" viewBox="0 0 317 264" fill="none" xmlns="http://www.w3.org/2000/svg">
<path d="M280.535 37.6417C282.208 36.6019 283.875 35.5571 285.559 34.5253C288.051 32.9966 290.694 31.6319 293.832 30.8051C294.322 30.6761 294.768 30.4701 295.259 30.3311C296.647 29.9312 298.065 29.6513 299.592 29.6033C301.759 29.5353 303.913 29.3034 306.093 29.3873C307.813 29.4543 309.535 29.5383 311.166 29.9652C312.796 30.3921 314.208 31.074 315.183 32.1378C315.946 32.9726 316.016 33.9214 316.126 34.8562C316.456 37.6417 315.673 40.2992 313.976 42.8077C312.371 45.1792 310.695 47.5317 308.937 49.8463C307.286 52.0138 304.647 53.5525 301.47 54.4383C295.212 56.185 288.862 57.7877 282.273 58.8295C278.478 59.4293 274.623 59.7553 270.719 59.9492C265.852 60.1922 260.987 60.0782 256.124 60.1702C252.946 60.2312 249.861 59.9302 246.799 59.3804C245.714 59.1854 244.6 59.0674 243.51 58.8854C242.928 58.784 242.313 58.8382 241.785 59.0374C238.573 60.1682 235.348 61.282 232.129 62.4077C231.661 62.5717 231.214 62.7647 230.757 62.9446C229.144 63.5805 227.823 64.3934 227.286 65.7011C227.185 65.95 226.964 66.174 226.807 66.412C226.724 66.5595 226.577 66.6851 226.387 66.7713C226.197 66.8575 225.973 66.9 225.747 66.8929C224.024 66.8929 222.3 66.8902 220.576 66.8849C220.031 66.8849 219.578 66.6849 219.104 66.5289C217.133 65.8941 215.252 65.1292 213.194 64.6113C211.693 64.2344 210.939 63.4675 210.993 62.3118C211.04 61.312 211.026 60.3122 210.993 59.3184C210.972 58.5925 211.365 58.0336 212.031 57.4777C215.369 54.6913 217.566 51.5069 218.526 47.9246C218.669 47.4167 218.615 46.8778 218.583 46.355C218.468 44.0456 217.714 41.7739 216.362 39.6663C214.728 37.1108 212.594 34.7783 210.562 32.3927C209.91 31.6279 209.221 30.867 208.728 30.0512C207.786 28.4965 207.149 26.8858 207.331 25.1582C207.402 24.3711 207.402 23.5817 207.331 22.7947C207.243 21.6099 207.913 20.6431 208.993 19.7953C211.313 17.9836 214.257 16.8718 217.542 16.185C218.244 16.038 219.021 16.029 219.766 16.023C222.014 16.003 224.267 15.96 226.512 16.023C231.479 16.17 235.63 17.5137 238.767 20.2822C239.578 20.9762 240.175 21.7807 240.52 22.6447C241.256 24.6193 242.273 26.5439 242.651 28.5895C242.865 29.7463 242.732 30.895 242.815 32.0458C242.831 32.3065 242.87 32.5663 242.932 32.8237C242.942 32.8616 243.239 32.9186 243.296 32.8836C243.514 32.7426 243.709 32.5854 243.878 32.4147C245.837 30.4811 247.453 28.3965 248.845 26.252C250.129 24.2734 251.799 22.4907 253.587 20.7411C254.283 20.0582 255.002 19.3843 255.658 18.6825C256.65 17.6278 257.869 16.6871 259.271 15.894C260.489 15.1942 261.706 14.4943 262.967 13.8374C265.312 12.6137 267.931 11.9118 270.891 11.9148C273.14 11.9148 275.391 11.9488 277.637 11.9008C279.139 11.8752 280.626 12.1094 281.968 12.5827C283.591 13.1317 285.089 13.846 286.413 14.7023C288.647 16.144 289.46 18.0426 289.568 20.0902C289.667 21.9258 289.594 23.7675 289.588 25.6061C289.577 26.3958 289.339 27.1758 288.888 27.8996C287.89 29.5493 286.636 31.094 284.995 32.4857C283.189 34.0324 281.546 35.6521 280.535 37.6417Z" fill="#F55B1D"/>
<path d="M68.8895 109.54C70.2844 110.973 72.2177 111.822 74.1345 112.663C76.5404 113.714 79.2395 114.185 81.9007 114.675C83.4157 114.953 84.9801 114.758 86.5116 114.635C87.6199 114.545 88.7265 114.441 89.8348 114.354C94.3404 114.002 98.2581 112.675 101.527 110.283C101.96 109.967 102.388 109.646 102.8 109.314C104.843 107.667 104.834 107.671 103.009 105.817C102.186 104.985 101.386 104.136 100.611 103.273C99.2379 101.747 98.2646 100.094 98.039 98.2297C97.6356 94.915 97.4067 91.6027 98.2597 88.303C98.7982 86.2172 99.974 84.3525 101.632 82.6564C102.879 81.3825 104.452 80.6206 106.655 80.6893C108.796 80.7555 110.948 80.6893 113.094 80.7305C115.011 80.7717 116.653 81.3688 117.632 82.6252C118.275 83.4495 118.798 84.3738 118.966 85.3554C119.086 86.0661 119.274 86.773 119.328 87.4862C119.513 89.9554 119.702 92.4258 119.796 94.8975C119.931 98.4395 118.528 101.694 116.42 104.804C115.123 106.716 114.648 106.428 117.244 107.839C119.597 109.122 122.105 109.626 124.972 109.39C126.675 109.245 128.36 108.994 130.009 108.641C132.57 108.105 135.154 107.623 137.749 107.162C139.778 106.801 141.848 106.97 143.905 107.011C144.272 107.019 144.578 107.189 144.583 107.491C144.605 108.661 144.605 109.832 144.583 111.003C144.583 111.295 144.287 111.462 143.936 111.53C142.854 111.738 141.764 111.92 140.687 112.136C138.449 112.583 136.231 113.094 133.977 113.487C131.375 113.939 128.717 114.08 126.049 114.089C123.908 114.097 121.754 114.089 119.607 114.089C116.621 114.097 113.81 113.663 111.383 112.242C110.864 111.938 110.467 112.057 110.077 112.414C109.364 113.065 108.651 113.718 107.877 114.325C104.583 116.902 100.577 118.293 95.89 118.786C90.1887 119.375 84.426 119.548 78.6812 119.302C72.8813 119.069 67.6479 117.506 63.3992 114.344C63.0945 114.115 62.7932 113.883 62.4671 113.673C62.3379 113.586 62.1737 113.535 62.0012 113.528C61.8287 113.52 61.658 113.558 61.5169 113.633C60.6392 114.042 59.7516 114.44 58.9035 114.882C57.0575 115.846 55.0649 116.607 53.0739 117.373C50.9891 118.173 48.8302 118.754 46.4704 118.881C42.4391 119.101 38.4127 119.209 34.4127 118.675C32.2966 118.392 30.2744 117.838 28.2686 117.259C26.9973 116.89 26.8771 116.914 26.0817 117.682C23.106 120.555 19.9211 123.283 16.3773 125.763C15.8734 126.117 15.3678 126.469 14.8408 126.802C14.2446 127.188 13.4833 127.395 12.7 127.384C10.8886 127.384 9.09359 127.398 7.29038 127.373C6.24962 127.359 6.03554 127.208 6.01908 126.481C5.99053 125.179 5.99381 123.875 6.02895 122.571C6.04377 122.019 6.42417 121.774 7.15863 121.71C7.24312 121.697 7.32963 121.693 7.41554 121.699C9.53658 121.994 10.8968 121.123 12.3015 120.067C14.6235 118.318 16.7083 116.416 18.8705 114.564C19.847 113.726 19.8124 113.661 18.7667 112.783C17.8446 112.01 16.8944 111.256 15.9557 110.495C12.7381 107.864 10.0962 104.86 8.13023 101.596C7.13195 99.9307 6.61106 98.1241 6.60202 96.2951C6.57402 94.9212 6.60202 93.5574 6.60202 92.1885C6.58061 88.6352 8.04296 85.4029 10.3237 82.3567C10.9577 81.5086 11.7021 80.7068 12.3987 79.8862C13.0139 79.1763 13.7724 78.5441 14.6465 78.0128C15.4454 77.5221 16.4084 77.2095 17.4279 77.1098C21.2781 76.6577 25.148 76.7938 28.9981 76.8887C31.6099 76.9537 33.9813 77.8279 36.0611 79.0469C37.4473 79.8448 38.3627 81.0251 38.6087 82.3317C39.277 85.4184 39.5406 88.5478 39.3958 91.6739C39.2676 94.7351 38.7072 97.777 37.7244 100.748C36.4761 104.415 34.8853 107.992 32.1254 111.194C31.5539 111.857 31.6511 112.053 32.6046 112.352C34.5807 112.976 36.6276 113.47 38.6696 113.975C40.9372 114.532 43.083 114.358 45.176 113.626C47.1242 112.945 49.0789 112.261 50.9397 111.451C53.0196 110.543 55.004 109.505 57.0081 108.5C57.8529 108.077 57.8957 107.957 57.4247 107.217C55.2444 103.8 54.6252 100.176 54.5017 96.4125C54.337 90.9633 56.7742 86.2147 60.5947 81.7572C61.5301 80.6643 62.4358 79.564 63.7121 78.661C64.7001 77.9616 65.764 77.5532 67.1703 77.6106C68.7117 77.6743 70.2613 77.6381 71.806 77.6244C72.846 77.6009 73.8655 77.8471 74.696 78.3225C77.9896 80.2147 80.3165 82.5066 80.16 85.8525C80.0596 87.9982 80.3593 90.1552 79.8521 92.2884C79.0122 95.8205 77.876 99.2938 76.0299 102.606C75.3244 103.874 74.3174 105.033 73.0592 106.024C71.6446 107.147 70.314 108.334 68.8895 109.54ZM33.3374 90.2014C33.1727 89.2022 33.008 88.233 32.8796 87.2626C32.6276 85.288 31.2641 83.8729 29.0788 82.8775C28.4182 82.574 27.7284 82.3084 27.0154 82.0832C23.4897 80.9841 21.2649 81.4112 18.8754 83.6943C18.1327 84.405 17.558 85.218 16.8878 85.9699C15.0269 88.0395 13.8857 90.33 13.0804 92.7493C12.6909 93.8206 12.7789 94.9596 13.3307 95.9891C15.7746 100.592 19.5127 104.522 24.178 107.965C24.537 108.231 24.9256 108.203 25.2517 107.87C27.1686 105.927 28.5765 103.78 29.7194 101.521C31.2262 98.5439 32.2858 95.4478 32.8779 92.2909C33.0031 91.584 33.1842 90.8821 33.3374 90.2014ZM60.7084 96.4162C60.7726 96.8034 60.794 97.1319 60.8879 97.4479C61.3819 99.1015 61.9978 100.741 62.9579 102.268C64.0974 104.077 64.1666 104.335 66.0867 102.554C66.3041 102.353 66.5379 102.16 66.7767 101.973C68.7874 100.398 70.0703 98.5245 71.0402 96.4637C72.1156 94.1856 72.687 91.8176 73.5861 89.512C74.1345 88.0919 73.6964 86.9591 72.7216 85.845C72.1423 85.1987 71.5034 84.5844 70.8097 84.0066C69.7689 83.1198 69.372 83.1323 68.3741 84.0178C68.2621 84.1177 68.1534 84.2189 68.0447 84.3238C64.806 87.6222 62.4277 91.3595 61.0377 95.3346C60.9142 95.7093 60.8105 96.0915 60.7084 96.4162ZM109.453 101.912C110.146 100.96 110.77 100.254 111.205 99.4837C112.697 96.7809 114.258 94.0782 113.288 91.0182C113.189 90.706 113.262 90.3638 113.184 90.0453C112.891 88.8163 112.361 87.6335 111.394 86.6294C110.284 85.4791 109.278 85.4753 108.053 86.5544C105.868 88.4778 104.623 90.7472 104.018 93.2214C103.795 94.1344 104.053 95.0186 104.481 95.8992C105.545 98.0699 107.33 99.8833 109.453 101.908V101.912Z" fill="#029C54"/>
<path d="M28.5265 36.4379C27.8666 36.4379 27.2506 36.3939 26.6786 36.3939C25.8867 36.3939 24.8747 36.3939 23.7748 36.3939C19.8149 36.4379 11.4993 36.4819 9.21146 34.238C8.90347 33.93 8.77148 33.666 8.77148 33.2261C8.77148 32.0821 8.77148 29.6622 26.2826 29.6622C35.0382 29.6622 37.8981 31.6421 38.69 32.5221C39.042 32.8741 39.218 33.2261 39.262 33.446H44.9817C44.9377 32.3461 44.5858 30.7182 43.2218 29.0903C40.45 25.7024 34.7742 23.9865 26.2826 23.9865C13.6112 23.9865 3.13975 24.6905 3.13975 33.2261C3.13975 35.162 3.84372 36.9219 5.20765 38.2418C8.85948 41.8936 16.1191 42.1136 23.8188 42.0696C24.8747 42.0696 25.7987 42.0256 26.5026 42.0696C27.1186 42.0696 27.7786 42.0696 28.4825 42.0696C35.4782 42.1576 39.57 42.7296 39.57 45.5455C39.57 47.1294 37.2821 49.0653 26.5466 49.0653C19.331 49.0653 15.2832 48.5813 12.4233 47.3494C9.91542 46.2934 9.25546 45.7215 9.07946 44.8415H3.40374C3.75572 49.0213 6.2196 50.8692 10.2234 52.5851C13.8312 54.125 18.407 54.741 26.5466 54.741C32.1344 54.741 45.2457 54.741 45.2457 45.5455C45.2457 36.5259 34.3342 36.4819 28.5265 36.4379ZM85.8965 23.8985L71.0692 48.4053L55.8459 23.8985H50.1262V54.697H55.7579V34.546L68.3413 54.697H73.885L85.9405 34.81V54.697H91.6162V23.8985H85.8965ZM102.143 54.697V23.8985H96.5111V54.697H102.143ZM112.651 23.8985H107.019V54.697H145.297V49.0653H112.651V23.8985ZM148.248 54.741H190.398V49.0653H153.923V40.5297H181.466V34.854H153.923V29.6622H190.398V23.9865H148.248V54.741Z" fill="#1F2225"/>
<path d="M189.566 110.924L179.446 85.4927H179.402H173.33L163.431 110.924L153.311 85.4927H147.24L159.515 116.291H167.435L176.41 93.2364L185.606 116.291H193.569L205.537 85.4927H199.421L189.566 110.924ZM216.056 116.291V85.4927H210.425V116.291H216.056ZM220.932 91.1685H240.291V116.291H245.967V91.1685H265.37V85.4927H220.932V91.1685ZM306.978 96.6242H275.828V85.4927H270.196V116.291H275.828V102.3H306.978V116.291H312.654V85.4927H306.978V96.6242Z" fill="#1F2225"/>
<path d="M3.13975 174.63H45.2897V168.954H8.81548V160.418H36.3582V154.743H8.81548V149.551H45.2897V143.875H3.13975V174.63ZM90.4757 169.218L80.3562 143.787H80.3122H74.2405L64.3409 169.218L54.2214 143.787H48.1497L60.4251 174.586H68.3447L77.3203 151.531L86.5159 174.586H94.4795L106.447 143.787H100.331L90.4757 169.218ZM148.117 154.919H116.966V143.787H111.335V174.586H116.966V160.594H148.117V174.586H153.793V143.787H148.117V154.919ZM180.62 143.787L158.665 174.586H165.484L169.884 168.514H198.131L202.487 174.586H209.482L187.483 143.787H180.62ZM173.932 162.838L184.008 148.715L194.083 162.838H173.932Z" fill="#1F2225"/>
<path d="M282.892 137.47C283.651 136.516 284.432 135.638 285.09 134.682C286.302 132.922 287.734 131.327 289.083 129.672C289.436 129.246 289.82 128.847 290.234 128.476C290.925 127.849 291.735 127.485 292.718 127.498C294.134 127.518 295.558 127.411 296.964 127.525C299.05 127.693 300.9 128.566 302.602 129.683C304.48 130.922 306.064 132.48 307.572 134.106C308.512 135.115 309.368 136.198 310.221 137.278C312.71 140.428 313.969 144.082 314.867 147.876C314.941 148.208 314.979 148.547 314.979 148.887C315.006 151.805 315.084 154.725 314.572 157.621C314.317 159.1 313.682 160.494 312.723 161.679C312.045 162.533 311.164 162.98 309.988 162.961C305.033 162.909 300.069 163.072 295.126 162.831C290.246 162.597 285.367 162.644 280.491 162.463C278.797 162.401 277.098 162.258 275.421 162.053C270.861 161.498 266.248 161.433 261.712 160.597C260.329 160.337 258.843 160.727 257.436 160.597C254.621 160.337 252.565 160.688 249.743 160.597C247.623 160.541 245.672 160.575 243.578 160.896C237.189 161.844 229.9 161.004 223.455 160.896C222.555 160.879 221.584 161.223 220.744 160.896C220.211 160.896 219.592 160.569 219.042 159.991C218.723 159.963 218.55 159.429 218.526 159.13C218.357 156.637 217.759 154.511 218.107 152.015C218.328 150.419 218.86 148.861 219.279 147.293C219.788 145.397 221.044 144.096 222.856 143.251C225.401 142.063 227.964 140.885 230.728 140.259C234.175 139.481 237.728 139.233 241.256 139.524C244.146 139.729 246.998 140.285 249.743 141.179C250.317 141.369 250.728 141.179 251.007 140.735C251.738 139.565 252.714 138.581 253.61 137.534C254.959 135.956 256.414 134.489 258.108 133.256C259.54 132.216 261.106 131.481 262.977 131.517C264.47 131.545 265.951 131.528 267.437 131.517C271.889 131.5 275.936 132.671 279.517 135.245C280.6 136.006 281.728 136.7 282.892 137.47Z" fill="#FA8AA7"/>
<path d="M27.712 241.736C24.864 239.816 21.12 238.728 17.184 238.728C13.248 238.728 9.504 239.816 6.688 241.736C3.616 243.848 1.92 246.728 1.92 249.864C1.92 253 3.616 255.88 6.688 257.992C9.504 259.944 13.248 261.032 17.184 261.032C21.12 261.032 24.864 259.944 27.712 257.992C30.784 255.88 32.48 253 32.48 249.864C32.48 246.728 30.784 243.848 27.712 241.736ZM17.184 256.776C11.2 256.776 6.144 253.608 6.144 249.864C6.144 246.12 11.2 242.952 17.184 242.952C23.168 242.952 28.256 246.12 28.256 249.864C28.256 253.608 23.168 256.776 17.184 256.776ZM63.332 247.912C61.156 245.992 57.604 245.064 52.484 245.064C46.692 245.064 41.956 245.544 39.236 245.928V242.92H65.604V238.664H35.012V250.984L37.54 250.504C37.572 250.504 43.844 249.32 52.484 249.32C61.348 249.32 61.348 252.232 61.348 253.192C61.348 253.672 61.284 254.248 60.516 254.888C59.684 255.56 57.444 256.68 51.748 256.744C39.94 256.904 39.428 254.12 39.204 252.936L35.044 253.704C35.972 258.824 40.708 261.032 50.852 261.032C51.14 261.032 51.46 261 51.78 261C57.188 260.936 60.932 260.008 63.204 258.184C64.804 256.904 65.604 255.208 65.604 253.192C65.604 252.36 65.604 249.928 63.332 247.912ZM73.2975 261.032V256.744H69.0415V261.032H73.2975ZM81.3993 238.632H81.3673L76.7273 241.48L78.9353 245.096L81.3993 243.592V261.032H85.6553V238.632H81.3993ZM114.892 241.736C112.044 239.816 108.3 238.728 104.364 238.728C100.428 238.728 96.6845 239.816 93.8685 241.736C90.7965 243.848 89.1005 246.728 89.1005 249.864C89.1005 253 90.7965 255.88 93.8685 257.992C96.6845 259.944 100.428 261.032 104.364 261.032C108.3 261.032 112.044 259.944 114.892 257.992C117.964 255.88 119.66 253 119.66 249.864C119.66 246.728 117.964 243.848 114.892 241.736ZM104.364 256.776C98.3805 256.776 93.3245 253.608 93.3245 249.864C93.3245 246.12 98.3805 242.952 104.364 242.952C110.348 242.952 115.436 246.12 115.436 249.864C115.436 253.608 110.348 256.776 104.364 256.776Z" fill="#1F2225"/>
<path d="M221.712 241.736C218.864 239.816 215.12 238.728 211.184 238.728C207.248 238.728 203.504 239.816 200.688 241.736C197.616 243.848 195.92 246.728 195.92 249.864C195.92 253 197.616 255.88 200.688 257.992C203.504 259.944 207.248 261.032 211.184 261.032C215.12 261.032 218.864 259.944 221.712 257.992C224.784 255.88 226.48 253 226.48 249.864C226.48 246.728 224.784 243.848 221.712 241.736ZM211.184 256.776C205.2 256.776 200.144 253.608 200.144 249.864C200.144 246.12 205.2 242.952 211.184 242.952C217.168 242.952 222.256 246.12 222.256 249.864C222.256 253.608 217.168 256.776 211.184 256.776ZM257.332 247.912C255.156 245.992 251.604 245.064 246.484 245.064C240.692 245.064 235.956 245.544 233.236 245.928V242.92H259.604V238.664H229.012V250.984L231.54 250.504C231.572 250.504 237.844 249.32 246.484 249.32C255.348 249.32 255.348 252.232 255.348 253.192C255.348 253.672 255.284 254.248 254.516 254.888C253.684 255.56 251.444 256.68 245.748 256.744C233.94 256.904 233.428 254.12 233.204 252.936L229.044 253.704C229.972 258.824 234.708 261.032 244.852 261.032C245.14 261.032 245.46 261 245.78 261C251.188 260.936 254.932 260.008 257.204 258.184C258.804 256.904 259.604 255.208 259.604 253.192C259.604 252.36 259.604 249.928 257.332 247.912ZM267.297 261.032V256.744H263.041V261.032H267.297ZM275.399 238.632H275.367L270.727 241.48L272.935 245.096L275.399 243.592V261.032H279.655V238.632H275.399ZM289.436 256.744C290.94 255.848 293.82 254.664 299.004 253.64C299.324 253.576 299.676 253.512 300.06 253.416C305.148 252.456 312.86 250.984 313.756 245.96C314.268 243.048 312.156 240.456 308.508 239.496C305.148 238.6 301.596 238.6 298.14 238.6H297.98C291.932 238.6 287.676 239.816 285.34 242.216C283.804 243.784 283.42 245.48 283.356 246.568H287.644C287.708 246.184 287.9 245.704 288.38 245.224C289.244 244.328 291.612 242.856 297.98 242.856H298.14C301.308 242.856 304.604 242.856 307.42 243.624C308.54 243.912 309.5 244.584 309.404 245.224C309.34 245.48 309.148 246.44 306.3 247.496C304.092 248.328 301.404 248.84 299.26 249.256C298.876 249.32 298.492 249.384 298.172 249.448C293.052 250.472 289.18 251.912 286.556 253.64C282.94 255.976 283.1 261 283.1 261H313.98V256.744H289.436Z" fill="#1F2225"/>
<path d="M168.694 188.767V224.366H173.644V188.767H168.694ZM145.252 203.933C145.252 211.734 149.212 216.605 154.597 216.605C159.943 216.605 163.863 211.734 163.863 203.933C163.863 196.172 159.943 191.301 154.597 191.301C149.212 191.301 145.252 196.172 145.252 203.933ZM150.004 203.933C150.004 198.627 151.865 195.736 154.597 195.736C157.29 195.736 159.151 198.627 159.151 203.933C159.151 209.239 157.29 212.17 154.597 212.17C151.865 212.17 150.004 209.239 150.004 203.933ZM178.423 204.488V208.408H191.926V211.774H196.836V208.408H210.537V204.488H178.423ZM180.521 220.525L182.105 224.207C188.005 223.653 192.203 221.594 194.341 218.783C196.519 221.634 200.756 223.613 206.656 224.207L208.24 220.525C200.558 219.852 196.915 216.921 196.915 213.912V213.239H191.886V213.912C191.886 216.763 188.085 219.812 180.521 220.525ZM181.63 195.934C181.63 200.092 186.62 202.587 194.46 202.587C202.34 202.587 207.29 200.092 207.29 195.934C207.29 191.697 202.34 189.242 194.46 189.242C186.62 189.242 181.63 191.697 181.63 195.934ZM186.699 195.934C186.699 193.915 189.51 192.885 194.46 192.885C199.41 192.885 202.221 193.915 202.221 195.934C202.221 197.875 199.41 198.904 194.46 198.904C189.51 198.904 186.699 197.875 186.699 195.934ZM238.322 188.807V224.287H242.955V188.807H238.322ZM211.871 214.031L214.801 217.634C218.048 215.615 220.147 212.09 221.374 207.933C222.562 211.734 224.661 214.902 227.789 216.763L230.64 213.239C225.532 210.269 223.711 204.25 223.711 198.31V196.41H229.017V192.45H213.138V196.41H218.959V198.31C218.959 204.408 217.019 210.784 211.871 214.031ZM226.483 205.002H231.155V222.663H235.709V189.44H231.155V201.003H226.483V205.002Z" fill="#1F2225"/>
<path d="M263.804 189.656V205.478H266.004V189.656H263.804ZM253.385 196.397C253.385 199.864 255.145 202.028 257.539 202.028C259.915 202.028 261.657 199.864 261.657 196.397C261.657 192.947 259.915 190.783 257.539 190.783C255.145 190.783 253.385 192.947 253.385 196.397ZM255.497 196.397C255.497 194.038 256.325 192.754 257.539 192.754C258.736 192.754 259.563 194.038 259.563 196.397C259.563 198.755 258.736 200.057 257.539 200.057C256.325 200.057 255.497 198.755 255.497 196.397ZM278.192 189.691V205.46H280.374V197.91H282.416V196.115H280.374V189.691H278.192ZM267.72 201.025L267.984 202.785C270.642 202.785 274.232 202.785 277.558 202.134L277.382 200.568C276.221 200.726 274.989 200.832 273.757 200.902V199.617C275.411 199.301 276.502 198.227 276.502 196.749C276.502 194.989 274.918 193.81 272.666 193.81C270.413 193.81 268.829 194.989 268.829 196.749C268.829 198.227 269.92 199.301 271.575 199.617V200.99C270.184 201.025 268.864 201.025 267.72 201.025ZM268.002 193.141H277.294V191.434H273.757V189.762H271.575V191.434H268.002V193.141ZM270.888 196.749C270.888 195.904 271.61 195.446 272.666 195.446C273.739 195.446 274.443 195.904 274.443 196.749C274.443 197.611 273.739 198.069 272.666 198.069C271.61 198.069 270.888 197.611 270.888 196.749ZM287.476 190.624C285.03 190.624 283.182 192.226 283.182 194.461C283.182 196.397 284.519 197.84 286.42 198.227V200.497C285.065 200.515 283.78 200.515 282.654 200.515L282.918 202.292C285.575 202.292 289.113 202.292 292.386 201.676L292.21 200.11C291.048 200.269 289.817 200.357 288.585 200.427V198.209C290.45 197.805 291.752 196.379 291.752 194.461C291.752 192.226 289.905 190.624 287.476 190.624ZM285.311 194.461C285.311 193.211 286.226 192.454 287.476 192.454C288.708 192.454 289.623 193.211 289.623 194.461C289.623 195.728 288.708 196.485 287.476 196.485C286.226 196.485 285.311 195.728 285.311 194.461ZM293.055 205.443H295.219V197.699H297.349V195.886H295.219V189.674H293.055V205.443ZM263.153 207.691V217.177H265.335V213.376H267.465V211.598H265.335V207.691H263.153ZM252.963 210.842H262.238V209.117H258.683V207.568H256.501V209.117H252.963V210.842ZM253.737 214.168C253.737 215.875 255.321 217.001 257.609 217.001C259.88 217.001 261.463 215.875 261.463 214.168C261.463 212.496 259.88 211.334 257.609 211.334C255.321 211.334 253.737 212.496 253.737 214.168ZM255.128 223.284H265.335V217.881H255.128V223.284ZM255.832 214.168C255.832 213.376 256.536 212.954 257.609 212.954C258.648 212.954 259.369 213.376 259.369 214.168C259.369 214.977 258.648 215.417 257.609 215.417C256.536 215.417 255.832 214.977 255.832 214.168ZM257.257 221.56V219.606H263.206V221.56H257.257ZM271.698 209.487H268.16V211.229H269.85C269.744 214.291 269.269 216.702 267.65 219.166L269.339 220.081C271.328 216.949 271.698 213.411 271.698 209.487ZM271.152 219.94L272.842 220.891C273.933 219.166 274.514 217.318 274.848 215.365H276.414V222.739H278.456V208.026H276.414V213.622H275.059C275.182 212.267 275.218 210.877 275.218 209.487H272.173V211.229H273.37C273.317 214.432 272.947 217.248 271.152 219.94ZM279.459 223.46H281.518V207.691H279.459V223.46ZM286.419 214.643V216.385H292.421V217.881H294.603V216.385H300.692V214.643H286.419ZM287.352 221.771L288.056 223.407C290.678 223.161 292.544 222.246 293.494 220.996C294.462 222.264 296.345 223.143 298.968 223.407L299.671 221.771C296.257 221.472 294.638 220.169 294.638 218.832V218.532H292.403V218.832C292.403 220.099 290.714 221.454 287.352 221.771ZM287.845 210.842C287.845 212.69 290.062 213.798 293.547 213.798C297.049 213.798 299.249 212.69 299.249 210.842C299.249 208.959 297.049 207.867 293.547 207.867C290.062 207.867 287.845 208.959 287.845 210.842ZM290.098 210.842C290.098 209.944 291.347 209.487 293.547 209.487C295.747 209.487 296.996 209.944 296.996 210.842C296.996 211.704 295.747 212.162 293.547 212.162C291.347 212.162 290.098 211.704 290.098 210.842ZM311.507 207.656V223.478H313.69V215.329H316.013V213.534H313.69V207.656H311.507ZM301.986 219.676H303.306C306.069 219.676 308.216 219.606 310.61 219.166L310.399 217.371C308.322 217.741 306.439 217.846 304.151 217.864V210.894H309.325V209.152H301.986V219.676Z" fill="#1F2225"/>
<line x1="131" y1="251.5" x2="185" y2="251.5" stroke="#1F2225" stroke-width="3"/>
<path d="M5.87776 12.8297L6.03175 14.0308H12.8536V12.8297H7.77187C9.89696 10.9201 12.6688 8.62566 12.6688 6.26957C12.6688 4.19067 11.2521 2.72774 9.2348 2.72774C7.80267 2.72774 6.35513 3.6979 5.75456 5.06843L6.97111 5.6074C7.38688 4.63725 8.32624 3.95968 9.2348 3.95968C10.4667 3.95968 11.3137 4.91444 11.3137 6.26957C11.3137 8.22528 8.11065 10.6892 5.87776 12.8297ZM17.9427 12.9375C16.3258 12.9375 15.217 11.0895 15.217 8.44087C15.217 5.79219 16.3258 3.95968 17.9427 3.95968C19.5442 3.95968 20.653 5.79219 20.653 8.44087C20.653 11.0895 19.5442 12.9375 17.9427 12.9375ZM13.8619 8.44087C13.8619 11.7825 15.5558 14.1232 17.9427 14.1232C20.3296 14.1232 22.0081 11.7825 22.0081 8.44087C22.0081 5.11463 20.3296 2.75854 17.9427 2.75854C15.5558 2.75854 13.8619 5.11463 13.8619 8.44087ZM23.1766 12.8297L23.3306 14.0308H30.1525V12.8297H25.0707C27.1958 10.9201 29.9677 8.62566 29.9677 6.26957C29.9677 4.19067 28.5509 2.72774 26.5336 2.72774C25.1015 2.72774 23.654 3.6979 23.0534 5.06843L24.2699 5.6074C24.6857 4.63725 25.6251 3.95968 26.5336 3.95968C27.7656 3.95968 28.6125 4.91444 28.6125 6.26957C28.6125 8.22528 25.4095 10.6892 23.1766 12.8297ZM36.9662 8.25608C37.8594 7.65551 38.383 6.65455 38.383 5.80759C38.383 4.02128 36.9508 2.77394 34.9489 2.77394C32.9162 2.77394 31.4995 4.03668 31.4995 5.85379H32.8546C32.8546 4.74505 33.717 3.97508 34.9489 3.97508C36.1809 3.97508 37.0432 4.74505 37.0432 5.83839C37.0432 6.90094 36.1501 7.65551 34.8873 7.65551H34.0712V8.84125H34.8873C36.2425 8.84125 37.2126 9.65741 37.2126 10.8278C37.2126 12.0443 36.2425 12.9067 34.8565 12.9067C33.486 12.9067 32.5312 12.0443 32.5312 10.8278H31.1761C31.1761 12.7527 32.7006 14.1078 34.8565 14.1078C37.0278 14.1078 38.537 12.7681 38.537 10.874C38.537 9.9346 37.9672 8.85665 36.9662 8.25608ZM49.2252 1.5882V3.31292H45.4986V4.43706H49.2252V5.88459H45.4986V7.02414H49.2252V11.6439H50.6265V1.5882H49.2252ZM40.1704 9.68821H41.2176C43.2195 9.68821 45.052 9.59581 47.1771 9.21083L47.0385 8.04049C45.0982 8.39467 43.3889 8.50246 41.5872 8.51786V2.54295H40.1704V9.68821ZM41.8644 14.8932H50.9653V13.7382H43.2657V10.7662H41.8644V14.8932ZM65.2436 1.5728V15.2011H66.6449V1.5728H65.2436ZM55.9733 7.37832C55.9733 10.2888 57.4208 12.1521 59.4535 12.1521C61.4708 12.1521 62.9337 10.2888 62.9337 7.37832C62.9337 4.45246 61.4708 2.61995 59.4535 2.61995C57.4208 2.61995 55.9733 4.45246 55.9733 7.37832ZM57.3284 7.37832C57.3284 5.22242 58.2062 3.88269 59.4535 3.88269C60.7008 3.88269 61.5786 5.22242 61.5786 7.37832C61.5786 9.53421 60.7008 10.8893 59.4535 10.8893C58.2062 10.8893 57.3284 9.53421 57.3284 7.37832ZM77.6536 1.6036V15.1857H79.0703V8.48707H81.0876V7.30132H79.0703V1.6036H77.6536ZM68.3678 11.4899L68.568 12.6603C70.9087 12.6603 74.0656 12.6603 76.976 12.1059L76.8682 11.0895C75.7595 11.2435 74.5583 11.3359 73.3726 11.3975V10.0578C74.8971 9.8422 75.8981 8.91824 75.8981 7.59391C75.8981 6.06938 74.5737 5.06843 72.6642 5.06843C70.7547 5.06843 69.4304 6.06938 69.4304 7.59391C69.4304 8.91824 70.4313 9.8422 71.9559 10.0578V11.4437C70.6623 11.4899 69.4304 11.4899 68.3678 11.4899ZM68.6142 4.32927H76.6988V3.20512H73.3726V1.6344H71.9559V3.20512H68.6142V4.32927ZM70.7701 7.59391C70.7701 6.70075 71.5247 6.14638 72.6642 6.14638C73.8038 6.14638 74.5583 6.70075 74.5583 7.59391C74.5583 8.47167 73.8038 9.02604 72.6642 9.02604C71.5247 9.02604 70.7701 8.47167 70.7701 7.59391ZM94.8423 1.5882V6.97794H93.0868V1.88078H91.7779V14.4774H93.0868V8.14828H94.8423V15.1703H96.1821V1.5882H94.8423ZM85.11 11.8903H86.0032C87.9589 11.8903 89.3448 11.8287 90.9925 11.5053L90.8385 10.3504C89.4218 10.6276 88.1591 10.7046 86.4959 10.72V4.37546H90.1302V3.23592H85.11V11.8903ZM97.6586 8.22528V9.36482H109.932V8.22528H104.48V6.77775H108.5V5.6382H100.584V3.34371H108.407V2.21957H99.1985V6.77775H103.079V8.22528H97.6586ZM99.1061 12.7219C99.1061 14.2926 100.862 15.1703 103.772 15.1703C106.667 15.1703 108.438 14.2926 108.438 12.7219C108.438 11.1511 106.667 10.258 103.772 10.258C100.862 10.258 99.1061 11.1511 99.1061 12.7219ZM100.523 12.7219C100.523 11.8441 101.724 11.3513 103.772 11.3513C105.82 11.3513 107.006 11.8441 107.006 12.7219C107.006 13.615 105.82 14.0924 103.772 14.0924C101.724 14.0924 100.523 13.615 100.523 12.7219ZM120.863 1.5882V15.1703H122.203V1.5882H120.863ZM110.453 11.4591L111.316 12.5063C112.64 11.6747 113.549 10.1502 114.026 8.36387C114.504 10.0116 115.397 11.3975 116.675 12.1829L117.522 11.1511C115.643 10.0578 114.704 7.7171 114.704 5.37642V4.28307H117.029V3.12812H110.854V4.28307H113.333V5.37642C113.333 7.8249 112.363 10.2888 110.453 11.4591ZM116.013 7.57851H118.138V14.4928H119.447V1.89618H118.138V6.42357H116.013V7.57851Z" fill="#1F2225"/>
</svg>
