<svg width="390" height="97" viewBox="0 0 390 97" fill="none" xmlns="http://www.w3.org/2000/svg">
<mask id="mask0_892_8033" style="mask-type:alpha" maskUnits="userSpaceOnUse" x="0" y="0" width="390" height="97">
<rect width="390" height="96.2658" fill="#2D2D2D"/>
</mask>
<g mask="url(#mask0_892_8033)">
<rect width="390" height="96.2658" fill="#1F2225"/>
<path d="M157.795 15.9269C157.795 15.6977 157.795 15.4676 157.795 15.2375C157.8 14.7782 157.788 14.318 157.82 13.8596C157.851 13.387 158.715 13.261 158.623 12.7135C158.596 12.5504 158.812 12.4764 158.973 12.4552C159.264 12.4171 159.559 12.4035 159.853 12.4147C160.726 12.4508 161.764 12.1502 162.433 12.5584C163.102 12.9665 163.032 13.8049 163.205 14.4661C163.484 15.5319 164.166 16.3615 165.107 17.1734C166.904 18.7224 168.95 20.0042 171.151 21.1599C171.967 21.5875 172.802 21.8052 173.791 21.7647C174.848 21.7215 175.91 21.7585 176.97 21.7647C177.382 21.7647 177.638 21.9101 177.649 22.254C177.655 22.5757 177.678 22.8984 177.656 23.2184C177.623 23.7191 177.906 24.3124 177.5 24.6959C177.095 25.0794 176.308 24.956 175.682 25.038C175.056 25.12 174.42 25.1914 173.906 25.5749C173.621 25.7891 173.209 25.9187 172.828 26.0359C171.043 26.5878 169.593 27.524 168.16 28.4805C166.849 29.3568 165.855 30.4385 164.968 31.5819C164.479 32.2131 164.24 32.8999 164.034 33.6316C163.762 34.612 163.573 35.6053 163.469 36.6052C163.441 36.8696 163.192 37.016 162.875 37.0195C161.874 37.0301 160.874 37.026 159.874 37.0072C159.756 37.003 159.644 36.9688 159.553 36.9099C159.462 36.851 159.399 36.7706 159.372 36.681C159.024 35.8056 158.611 34.9319 158.807 33.9948C159.004 33.0577 158.475 32.408 157.575 31.8702C155.804 30.8079 154.052 29.7289 152.273 28.6754C152.056 28.5475 151.732 28.5043 151.45 28.4761C150.925 28.4231 150.397 28.3937 149.868 28.388C149.19 28.3827 148.727 28.2187 148.709 27.6139C148.714 27.5216 148.672 27.4314 148.593 27.3628C148.513 27.2942 148.403 27.2527 148.284 27.2472C147.994 27.2146 147.703 27.1802 147.416 27.1317C147.107 27.0797 146.869 26.9466 146.867 26.6768C146.867 25.8958 146.867 25.1147 146.881 24.3336C146.876 24.2407 146.918 24.15 146.997 24.0806C147.076 24.0111 147.187 23.9681 147.306 23.9607C149.001 23.8355 150.583 23.1673 152.335 23.3542C152.84 23.4071 153.227 23.2396 153.578 22.953C154.917 21.8538 156.123 20.66 157.18 19.3871C157.709 18.7739 157.952 18.0374 157.867 17.3013C157.823 16.8446 157.859 16.3826 157.859 15.9233L157.795 15.9269Z" fill="#2D2D2D"/>
<path d="M1.08492 75.1358C1.38667 75.0456 1.40478 74.8968 1.42439 74.7687C1.4772 74.4151 1.49681 74.0588 1.52246 73.7043C1.60695 72.593 1.64921 71.4798 1.77896 70.3667C1.91022 69.2346 2.13652 68.1116 2.26024 66.9741C2.38999 65.796 2.53332 64.6143 2.95577 63.4561C3.03172 63.1997 3.13247 62.9461 3.25752 62.6966C3.45214 62.3583 3.8233 62.1247 4.48564 62.1445C4.96235 62.1691 5.43819 62.0918 5.82842 61.9262C6.2207 61.7584 6.69897 61.7133 7.18629 61.7143C8.97264 61.7143 10.759 61.6989 12.5438 61.7206C14.7164 61.7467 16.8951 62.6821 17.4789 63.9026C17.6102 64.1732 17.7807 64.4438 17.8622 64.7235C17.9436 64.9878 18.0417 65.2214 18.443 65.3883C18.552 65.4412 18.6408 65.5075 18.7032 65.5826C18.7657 65.6578 18.8004 65.7401 18.8051 65.824C18.8956 66.3409 19.0752 66.8505 19.0722 67.3764C19.0541 69.6544 19.0541 71.9321 19.0722 74.2094C19.0722 74.4972 18.7976 74.8977 19.3181 75.0492C19.7541 75.1764 20.1464 74.8436 20.5251 74.6884C22.1153 74.0426 23.8157 73.5564 25.7061 73.311C26.3267 73.2332 26.9595 73.196 27.5936 73.2C29.8567 73.2 32.1198 73.2298 34.3829 73.1892C35.7951 73.1639 37.0488 73.4174 38.2347 73.8089C39.2565 74.1288 40.1613 74.5674 40.8961 75.0988C41.1285 75.2747 41.2899 75.438 41.2869 75.669C41.2763 76.9255 41.2869 78.183 41.2869 79.4404C41.2869 79.849 41.0787 80.2342 40.8886 80.6203C40.5627 81.2788 40.2066 81.931 39.9834 82.6048C39.8302 82.9976 39.6192 83.3816 39.3527 83.7522C38.805 84.5911 38.2966 85.4426 37.6493 86.2554C36.7139 87.4281 35.7589 88.6133 34.4644 89.6642C32.6086 91.1706 30.6789 92.6464 28.5984 94.0473C27.6479 94.6886 26.5042 95.2019 25.4089 95.7486C23.8816 96.5039 22.2423 97.1745 20.5115 97.752C19.5084 98.0894 18.4411 98.3535 17.3326 98.5386C16.189 98.7316 15.0423 98.9147 13.9319 99.1754C13.2657 99.3312 12.5544 99.4063 11.8392 99.3964C10.2928 99.3811 8.74481 99.3901 7.19684 99.3964C6.72279 99.3936 6.25053 99.3612 5.78768 99.2999C5.1691 99.2241 4.72251 99.1132 4.42981 98.7181C4.22462 98.4339 3.7373 98.2003 3.29826 98.0046C2.69796 97.7305 2.18444 97.3945 1.78196 97.0123C1.1498 96.4278 0.250603 95.9903 -0.542997 95.4933C-0.656157 95.4263 -0.79294 95.3754 -0.943314 95.3442C-1.09369 95.313 -1.25384 95.3022 -1.41203 95.3129C-1.7681 95.3219 -1.98988 95.2272 -2.16641 95.0422C-2.441 94.7536 -2.74425 94.4794 -2.97358 94.1736C-3.59757 93.353 -4.37447 92.5771 -5.28951 91.8607C-6.3317 91.0524 -7.20187 90.1697 -7.88002 89.2331C-8.25058 88.7091 -8.70002 88.2064 -9.2228 87.7311C-10.288 86.7569 -11.1344 85.7078 -11.9717 84.6597C-12.9283 83.4608 -13.7641 82.2313 -14.5592 80.9919C-14.9424 80.3957 -15.2367 79.7787 -15.5988 79.177C-16.6307 77.4631 -17.6597 75.742 -18.7264 74.0353C-19.1458 73.3615 -19.2771 72.6561 -19.5049 71.9606C-19.8066 71.045 -19.7387 70.1213 -19.7433 69.1976C-19.7433 68.3199 -19.7433 67.4423 -19.7433 66.5646C-19.7433 66.1415 -19.6663 66.0946 -19.0115 66.0928C-16.7107 66.0865 -14.4038 66.0396 -12.109 66.1108C-10.902 66.1469 -9.72672 66.3354 -8.67513 66.7973C-6.95214 67.5541 -5.57919 68.4859 -4.35861 69.517C-3.94673 69.8643 -3.50618 70.2007 -3.10033 70.5507C-2.785 70.8213 -2.49682 71.1073 -2.20865 71.3905C-1.69568 71.8966 -1.20383 72.4116 -0.680298 72.9141C-0.156763 73.4165 0.158554 73.9857 0.537249 74.5324C0.69265 74.7443 0.826929 74.9644 1.08492 75.1358Z" fill="#2D2D2D"/>
<path d="M253.12 11.5981C253.405 11.5315 253.569 11.3134 253.789 11.1672C254.265 10.8505 254.727 10.5135 255.187 10.1795C255.387 10.0315 255.56 9.84731 255.764 9.70409C256.676 9.06107 257.441 8.29088 258.208 7.51951C258.497 7.2289 258.835 6.97753 259.148 6.70653C259.324 6.5538 259.496 6.39869 259.668 6.2424C259.89 6.04093 260.098 5.8264 260.21 5.55957C260.277 5.39792 260.405 5.35811 260.578 5.35929C261.262 5.36227 261.944 5.3593 262.628 5.36286C262.712 5.36286 262.833 5.36939 262.871 5.41634C263.027 5.60116 263.24 5.56373 263.445 5.56848C263.463 5.57028 263.481 5.57028 263.498 5.56848C264.027 5.46508 264.398 5.71408 264.745 6.01241C264.973 6.20852 265.196 6.41177 265.316 6.67741C265.599 7.29725 265.916 7.90638 266.045 8.57436C266.08 8.72707 266.1 8.88217 266.104 9.0379C266.104 9.67854 266.091 10.3198 266.108 10.9598C266.117 11.2878 265.981 11.5238 265.7 11.7264C265.046 12.1969 264.355 12.6236 263.631 13.0029C262.98 13.3384 262.361 13.7221 261.783 14.1499C261.316 14.4982 260.85 14.8553 260.303 15.1115C260.227 15.15 260.156 15.1962 260.092 15.2493C259.684 15.5679 259.276 15.8858 258.874 16.2091C258.717 16.3351 258.546 16.4421 258.382 16.5573C257.778 16.984 257.079 17.2871 256.495 17.7394C256.377 17.8315 256.254 17.9177 256.136 18.0127C256.053 18.0793 256.07 18.1554 256.172 18.191C256.519 18.2998 256.862 18.4174 257.213 18.5084C257.786 18.6569 258.338 18.8513 258.892 19.0432C259.296 19.1919 259.709 19.322 260.128 19.4331C260.534 19.5256 260.946 19.5982 261.361 19.6506C261.878 19.7261 262.397 19.7885 262.916 19.8509C263.488 19.9198 264.065 19.9239 264.64 19.9543C265.373 19.9929 266.105 20.069 266.811 20.2478C267.436 20.4006 268.02 20.6632 268.53 21.0204C268.593 21.0747 268.664 21.1209 268.741 21.1577C268.991 21.2492 269.056 21.4132 269.05 21.6414C269.037 22.2042 269.05 22.767 269.043 23.3298C269.043 23.5829 269.01 23.6269 268.727 23.678C268.405 23.7375 268.209 23.9015 268.049 24.1451C267.759 24.5902 267.444 25.0217 267.149 25.4638C267.067 25.6012 266.995 25.7434 266.935 25.8894C266.898 25.9933 266.854 26.0947 266.801 26.193C266.486 26.6524 266.606 26.6049 266.037 26.609C265.469 26.6132 264.881 26.6061 264.306 26.609C264.096 26.6108 263.889 26.5687 263.701 26.486C262.85 26.1243 261.995 25.7695 261.137 25.4216C260.929 25.3393 260.715 25.27 260.497 25.2142C259.777 25.0223 259.047 24.8577 258.333 24.6473C257.454 24.39 256.551 24.1998 255.684 23.9074C255.652 23.8986 255.617 23.9009 255.587 23.914C255.526 23.9419 255.542 23.9954 255.562 24.037C255.663 24.2527 255.761 24.469 255.873 24.6818C256.457 25.8168 257.042 26.9513 257.628 28.0852C258.112 29.0212 258.603 29.9542 259.084 30.8908C259.522 31.7418 259.95 32.5982 260.389 33.4462C260.494 33.6437 260.546 33.8601 260.541 34.0785C260.533 34.6413 260.531 35.2041 260.541 35.7663C260.545 35.969 260.459 36.0819 260.248 36.1532C259.92 36.2631 259.603 36.3945 259.28 36.5151C259.037 36.6048 258.784 36.675 258.553 36.7831C258.164 36.9636 257.728 37.0458 257.291 37.0208C256.767 36.9982 256.241 37.0107 255.716 37.0173C255.516 37.0173 255.404 36.943 255.319 36.7796C254.692 35.5589 254.054 34.343 253.421 33.1247C252.65 31.6374 251.882 30.149 251.115 28.6593C250.507 27.4826 249.898 26.3065 249.288 25.1311C249.229 25.0187 249.16 24.9112 249.088 24.7899C248.955 24.8303 248.963 24.9397 248.946 25.011C248.821 25.5286 248.709 26.0492 248.592 26.5686C248.474 27.1035 248.423 27.6437 248.27 28.1732C248.137 28.6379 248.084 29.124 248.043 29.606C247.993 30.2157 247.844 30.8082 247.726 31.4067C247.695 31.5445 247.645 31.6785 247.577 31.8054C247.1 32.7664 246.86 33.7921 246.534 34.7947C246.529 34.8097 246.524 34.8246 246.518 34.8392C246.46 34.97 246.55 35.1417 246.426 35.2404C246.287 35.3521 246.093 35.2933 245.919 35.2945C245.359 35.2998 244.798 35.2945 244.237 35.2945C244.08 35.3012 243.924 35.2781 243.777 35.2267C243.345 35.0591 242.907 34.9046 242.471 34.7447C242.371 34.7163 242.273 34.6807 242.18 34.6384C241.58 34.3091 241.66 34.4363 241.655 33.8937C241.651 33.5187 241.67 33.1432 241.65 32.7688C241.625 32.1426 241.754 31.5192 242.028 30.9425C242.175 30.6256 242.298 30.3004 242.397 29.9691C242.472 29.7136 242.597 29.4705 242.687 29.2167C242.941 28.4703 243.2 27.7245 243.429 26.9709C243.615 26.3553 243.762 25.7295 243.924 25.1079C243.936 25.0787 243.941 25.0476 243.937 25.0167C243.934 24.9859 243.922 24.9561 243.904 24.9296C243.87 24.9265 243.835 24.9298 243.802 24.9394C243.769 24.9489 243.739 24.9644 243.713 24.9849C243.314 25.2386 242.919 25.4977 242.515 25.7443C241.966 26.0789 241.4 26.3891 240.822 26.6827C240.18 27.0027 239.582 27.3898 239.043 27.8356C238.698 28.1244 238.326 28.3853 237.965 28.6557C237.107 29.2961 236.319 30.0072 235.61 30.7797C235.584 30.811 235.55 30.8365 235.512 30.8543C235.473 30.8722 235.43 30.8818 235.386 30.8825C235.333 30.8825 235.281 30.8861 235.228 30.8861C234.545 30.8861 233.862 30.8813 233.179 30.889C233.083 30.8936 232.987 30.8786 232.899 30.845C232.811 30.8114 232.732 30.7602 232.669 30.6953C232.179 30.2074 231.716 29.7005 231.372 29.1163C231.267 28.938 231.147 28.7597 231.059 28.5755C230.874 28.2039 230.783 27.8002 230.793 27.3935C230.813 26.8937 230.815 26.3927 230.793 25.8935C230.778 25.5821 230.863 25.3634 231.186 25.203C231.519 25.0366 231.825 24.8226 232.141 24.6271C232.69 24.289 233.167 23.8753 233.646 23.4641C233.8 23.3375 233.967 23.2243 234.145 23.1259C234.713 22.7925 235.277 22.455 235.784 22.0449C236.114 21.7862 236.479 21.5664 236.872 21.3912C237.229 21.226 237.582 21.0465 237.958 20.9223C238.42 20.7696 238.851 20.5658 239.29 20.3714C239.933 20.0898 240.603 19.8526 241.183 19.4652C241.249 19.4188 241.332 19.3849 241.402 19.3386C241.59 19.215 241.584 19.1009 241.377 19.0414C241.065 18.9391 240.746 18.8563 240.421 18.7936C239.528 18.6474 238.623 18.5672 237.736 18.3913C237.446 18.3314 237.152 18.2903 236.856 18.2683C236.416 18.2403 235.998 18.1245 235.568 18.0549C235.31 18.0116 235.06 17.9314 234.83 17.8172C234.071 17.447 233.244 17.2431 232.427 17.0132C231.975 16.8881 231.552 16.6918 231.178 16.4337C231.087 16.3735 231.013 16.2938 230.965 16.2018C230.917 16.1098 230.896 16.0085 230.903 15.9072C230.913 15.2975 230.907 14.6883 230.906 14.0786C230.903 13.9531 230.94 13.8294 231.012 13.722C231.283 13.3015 231.485 12.8486 231.612 12.3772C231.694 12.0931 231.777 11.8061 231.85 11.5184C231.873 11.4275 231.914 11.3401 231.943 11.2504C231.994 11.0911 232.113 11.0311 232.295 11.0317C232.978 11.0353 233.662 11.0317 234.344 11.0353C234.622 11.0353 234.701 11.122 234.717 11.3835C234.729 11.5541 234.739 11.7252 234.75 11.8958C234.936 11.9796 235.117 12.0741 235.308 12.1448C236.921 12.7498 238.551 13.3126 240.244 13.7191C241.345 13.9738 242.414 14.3324 243.43 14.7888C243.523 14.8316 243.617 14.8743 243.713 14.913C243.775 14.9379 243.846 14.9688 243.908 14.9254C243.97 14.8821 243.944 14.8066 243.917 14.7567C243.4 13.7654 242.879 12.7765 242.364 11.7853C241.849 10.794 241.34 9.79977 240.827 8.80732C240.49 8.15519 240.151 7.50386 239.811 6.85332C239.705 6.65592 239.652 6.43922 239.656 6.22041C239.666 5.64217 239.656 5.06334 239.662 4.48511C239.662 4.29672 239.699 4.27235 239.905 4.25334C239.957 4.24858 240.01 4.25333 240.062 4.24917C240.32 4.22659 240.346 4.20223 240.359 3.95679C240.365 3.83199 240.363 3.70659 240.365 3.5818C240.362 3.53449 240.377 3.48776 240.408 3.449C240.438 3.41025 240.483 3.38169 240.533 3.36786C241.063 3.20621 241.593 3.04457 242.124 2.89243C242.21 2.87498 242.298 2.86916 242.385 2.87519C243.051 2.87519 243.717 2.88173 244.383 2.87044C244.616 2.86688 244.724 2.95839 244.813 3.13608C245.227 3.96273 245.653 4.78463 246.079 5.60771C246.662 6.74278 247.247 7.87746 247.832 9.01175C247.912 9.16745 247.985 9.32672 248.064 9.48302C248.1 9.55314 248.135 9.62683 248.238 9.64347C248.39 9.37307 248.417 9.07296 248.46 8.78295C248.617 7.71338 248.97 6.67414 249.505 5.70695C249.772 5.2323 250 4.74138 250.189 4.23789C250.34 3.82189 250.502 3.41005 250.493 2.96256C250.49 2.80745 250.546 2.76287 250.708 2.75634C250.9 2.74861 251.093 2.75277 251.285 2.74921C251.373 2.74921 251.485 2.74921 251.508 2.66363C251.566 2.44731 251.748 2.4693 251.921 2.4693C252.569 2.4693 253.217 2.4693 253.865 2.4693C254.041 2.46298 254.216 2.48554 254.383 2.53586C254.531 2.58519 254.724 2.50852 254.833 2.61609C254.972 2.75396 254.894 2.94591 254.9 3.1135C254.909 3.4879 254.89 3.86408 254.906 4.23848C254.926 4.71391 254.829 5.16794 254.706 5.62316C254.634 5.84841 254.593 6.08039 254.583 6.3143C254.585 6.51723 254.56 6.71968 254.509 6.9175C254.341 7.52248 254.152 8.1233 253.971 8.72471C253.871 9.05632 253.771 9.38852 253.664 9.71835C253.508 10.1973 253.345 10.6757 253.181 11.1529C253.124 11.2842 253.096 11.424 253.098 11.5648C253.08 11.5826 253.044 11.6117 253.047 11.6159C253.078 11.6718 253.1 11.6367 253.12 11.5981Z" fill="#2D2D2D"/>
<path d="M206.809 72.6375C208.214 73.8489 209.644 74.2305 210.961 74.6888C218.734 77.3903 226.857 79.3326 235.232 80.2815C242.303 81.0481 249.479 81.0066 256.535 80.1583C263.751 79.3225 270.99 79.3649 278.24 79.4093C279.167 79.4093 280.09 79.6253 281.018 79.7303C282.113 79.8535 282.649 80.3078 282.626 81.2083C282.582 82.8941 282.626 84.58 282.582 86.2558C282.561 86.9766 282.028 87.4793 281.085 87.4551C278.152 87.3763 275.157 87.9013 272.299 87.0977C271.532 86.9082 270.719 86.8626 269.926 86.9644C267.524 87.1663 265.099 87.2653 262.725 87.5863C258.986 88.0931 255.231 88.0264 251.471 88.0305C246.902 88.0305 242.332 87.98 237.763 88.0305C227.55 88.1657 217.772 86.488 208.222 83.8047C205.062 82.9184 201.882 82.0683 198.962 80.7338C197.882 80.2391 196.952 80.3158 196.078 81.0427C191.347 84.9838 185.512 87.8589 180.146 91.1882C176.688 93.3344 172.861 94.7114 168.431 95.0344C166.964 95.1415 165.508 95.3635 164.05 95.5775C159.803 96.2014 155.522 96.3104 151.216 96.2519C147.185 96.1994 143.149 96.2983 139.121 96.2277C131.74 96.1005 124.359 95.9632 116.986 95.7007C111.144 95.4988 106.036 93.821 101.828 90.5421C100.902 89.8214 100.379 89.0763 100.469 88.0507C100.539 87.4199 100.539 86.7856 100.469 86.1548C99.6782 80.5238 103.106 76.2011 107.621 72.2862C110.139 70.1037 112.984 68.1553 115.595 66.0273C117.734 64.2849 119.767 62.4597 121.798 60.6365C122.501 60.0046 123.06 59.2737 123.676 58.5832C126.117 55.8474 126.833 53.0228 125.658 49.643C124.068 45.0659 122.445 40.5332 119.834 36.2408C118.074 33.2653 115.226 30.7659 111.652 29.0592C109.147 27.8477 106.907 26.2669 103.881 25.8408C103.108 25.7298 102.281 25.4835 101.529 25.5662C98.3226 25.9176 95.2636 26.7312 92.2715 27.6741C91.9551 27.7731 91.6928 27.9556 91.53 28.1901C91.3672 28.4246 91.3141 28.6963 91.3799 28.9582C91.4701 29.4791 91.5164 30.0081 91.6376 30.5229C93.2019 36.6829 92.3257 42.9156 92.5215 49.116C92.5421 49.5381 92.4856 49.9602 92.354 50.3698C91.3721 53.3252 89.9256 56.1736 88.0476 58.8497C85.8906 61.8782 82.4707 63.5944 78.3808 64.6523C74.5151 65.6618 70.5335 66.0656 66.4848 66.0939C62.3176 66.1262 58.1504 66.0333 53.9883 66.1222C50.5273 66.1969 47.7182 65.0763 45.19 63.4349C43.4788 62.3224 42.4609 60.8828 42.5098 59.0334C42.5794 56.5076 42.533 53.9859 42.5279 51.448C42.5279 49.7116 43.2237 48.1085 44.2958 46.6468C49.0892 40.1072 54.8878 34.2258 62.748 29.7396C65.9952 27.8861 69.2552 26.0448 72.5179 24.1913C72.6596 23.311 71.8324 22.8446 71.2293 22.3742C67.8172 19.6808 64.2324 17.1449 60.1168 15.1057C58.9802 14.5424 57.8746 13.9387 56.8103 13.2886C52.9833 10.989 48.512 9.90073 43.9247 9.01438C42.4726 8.74617 40.9501 8.83717 39.5667 9.27484C33.8971 10.9668 28.5856 13.2139 23.5087 15.8023C22.3773 16.3797 21.3516 17.0803 21.264 18.2776C21.2675 18.4094 21.2361 18.5402 21.172 18.662C21.1079 18.7839 21.0124 18.894 20.8914 18.9855C20.7704 19.0771 20.6266 19.1481 20.469 19.1941C20.3114 19.2401 20.1434 19.2601 19.9754 19.2528C17.5607 19.2811 15.1408 19.2891 12.726 19.2427C12.5218 19.2485 12.3183 19.2217 12.1278 19.164C11.9372 19.1064 11.7636 19.0191 11.6174 18.9073C11.4711 18.7956 11.3553 18.6618 11.277 18.514C11.1987 18.3662 11.1594 18.2075 11.1617 18.0474C11.0947 15.9416 11.1153 13.8358 11.1075 11.7279C11.1075 11.1566 11.5225 10.7184 12.0121 10.3712C13.0945 9.5898 14.1279 8.72768 15.3624 8.11794C19.3308 6.14244 23.4781 4.39673 27.7712 2.89475C30.9653 1.76578 34.4368 1.19992 37.9406 1.23714C40.7625 1.26742 43.5871 1.27146 46.4064 1.23714C52.4907 1.1631 58.4743 2.45804 63.6474 4.96828C71.1211 8.53588 78.0484 12.7112 83.7335 18.0131C84.1639 18.4169 84.6072 18.8207 85.0504 19.2064C85.2297 19.3642 85.4652 19.4762 85.7267 19.5281C85.9881 19.5799 86.2633 19.5691 86.5168 19.4971C87.424 19.3073 88.3208 19.0549 89.2254 18.8914C92.3643 18.314 95.5084 17.8092 98.7607 17.894C101.312 17.9626 103.869 17.9525 106.42 17.894C110.884 17.7766 115.269 18.8312 118.88 20.8902C119.093 21.0184 119.316 21.1357 119.548 21.2415C125.382 23.6361 128.599 27.6781 130.869 32.3077C133.289 37.2382 135.034 42.3039 135.828 47.5573C135.934 48.3952 135.981 49.2371 135.969 50.0791C135.987 52.3 135.771 54.5209 136.021 56.7136C136.482 60.7819 134.457 64.1153 131.475 67.2124C128.15 70.6565 124.417 73.8466 120.326 76.7402C117.749 78.5775 115.151 80.4309 113.368 82.8376C112.412 84.1277 112.492 84.5053 114.126 85.4179C117.325 87.2017 121.097 88.2506 125.016 88.4464C133.996 88.9195 143.002 88.9869 151.991 88.6483C155.058 88.5352 158.084 87.8831 161.145 87.5762C164.447 87.2451 167.33 86.1629 169.951 84.6547C173.954 82.3429 177.889 79.9625 181.842 77.6023C182.481 77.2176 183.094 76.8064 183.677 76.3707C186.458 74.3234 186.432 74.3315 184.095 71.8844C180.427 68.0483 178.755 63.6549 178.592 58.9183C178.464 55.2336 178.698 51.5388 178.52 47.8582C178.389 45.1527 179.878 43.1418 182.386 41.5871C185.649 39.5394 189.487 38.1297 193.584 37.4744C200.385 36.376 207.242 36.6547 214.054 36.9918C219.88 37.2785 224.071 39.7135 226.581 43.8969C226.968 44.5656 227.154 45.295 227.125 46.0289C227.125 47.8198 227.024 49.6167 227.156 51.4016C227.272 52.9804 226.617 54.3069 225.455 55.5042C221.634 59.4453 217.784 63.3689 213.907 67.275C213.087 68.0968 212.02 68.7711 211.049 69.496C209.696 70.5317 208.322 71.5271 206.809 72.6375ZM83.2877 42.6956C82.8934 39.3279 82.2723 36.2226 81.0456 33.2062C80.7595 32.5036 80.056 32.3481 79.1385 32.8508C76.6181 34.2359 74.1208 35.6458 71.6468 37.0807C64.0958 41.466 58.4158 47.1172 53.7461 53.4347C52.6895 54.8621 52.8183 55.3568 54.4239 56.3643C55.8954 57.287 57.4778 58.0825 59.3204 58.4822C60.0781 58.6478 60.9156 58.8214 61.6656 58.7346C64.8355 58.3651 67.9667 57.9008 70.9948 56.9801C74.4059 55.9677 77.2497 54.0424 79.0225 51.5449C80.9013 48.9868 82.1821 46.2288 83.1253 43.376C83.2078 43.0852 83.2696 42.7844 83.2877 42.6956ZM205.876 44.337C200.057 44.7792 195.148 46.356 190.947 49.1705C189.95 49.8368 189.269 50.8039 188.491 51.6579C187.931 52.2638 187.7 53.0189 187.849 53.7577C188.416 56.8004 189.432 59.7542 191.31 62.4516C192.264 63.8185 193.679 64.9935 194.944 66.2171C195.308 66.5664 195.913 66.5704 196.377 66.2453C197.779 65.2641 199.096 64.2001 200.562 63.2855C202.762 61.9004 204.73 60.3035 206.42 58.5327C208.526 56.3501 210.69 54.2039 212.814 52.0315C213.631 51.1956 214.412 50.3396 215.195 49.4835C215.533 49.112 215.6 48.7021 215.237 48.3226C212.814 45.7948 209.448 44.6782 205.879 44.337H205.876Z" fill="#2D2D2D"/>
<path d="M293.384 37.4352C293.092 37.0453 292.709 36.7146 292.26 36.465C290.93 35.6319 289.801 34.6195 288.706 33.5793C287.949 32.8329 287.353 31.9729 286.944 31.0408C286.566 30.2252 286.249 29.3864 285.958 28.5431C285.599 27.5165 285.407 26.4508 285.386 25.3773C285.353 23.4982 285.361 21.6177 285.386 19.7386C285.397 18.542 285.792 17.3724 286.526 16.3642C287.795 14.6127 289.448 13.1001 291.389 11.9145C292.312 11.3455 293.356 11.0756 294.402 10.8597C295.233 10.6861 296.121 10.6219 296.977 10.5066C299.896 10.1157 302.82 10.4045 305.738 10.3053C306.659 10.2918 307.567 10.4932 308.37 10.8889C309.843 11.5614 311.322 12.2223 312.91 12.6746C313.163 12.7395 313.404 12.8379 313.623 12.9664C314.656 13.617 315.917 13.9103 316.925 14.6062C317.284 14.8556 317.577 14.7302 317.633 14.2969C317.771 13.2567 318.326 12.3259 318.597 11.3207C318.75 10.7503 319.164 10.2674 319.628 9.87202C320.279 9.30538 320.99 8.79439 321.751 8.34599C323.468 7.36123 325.232 6.43776 326.983 5.49676C327.874 5.01117 328.821 4.6106 329.809 4.3019C331.254 3.86423 332.694 3.40905 334.12 2.92907C335.068 2.61103 336.058 2.46369 337.046 2.32364C338.077 2.17774 339.126 2.13689 340.161 2.01289C341.37 1.867 342.58 1.72109 343.776 1.50663C345.488 1.2011 347.233 1.06215 348.979 1.09231C351.164 1.13024 353.349 1.13024 355.536 1.09231C355.928 1.07116 356.321 1.12113 356.69 1.23911C357.059 1.35708 357.396 1.54052 357.681 1.77799C358.112 2.15968 358.619 2.46873 359.177 2.68981C359.549 2.41971 359.878 2.10717 360.156 1.76048C361.504 0.201401 363.079 -1.19597 364.841 -2.39595C365.361 -2.74615 365.852 -3.12785 366.311 -3.53826C367.301 -4.40569 368.394 -5.17749 369.571 -5.84042C371.22 -6.77996 372.861 -7.72826 374.505 -8.67217C375.165 -9.05088 375.879 -9.35019 376.63 -9.5621C378.041 -9.96038 379.413 -10.5016 380.896 -10.6577C382.493 -10.8255 384.071 -11.1348 385.7 -11.1056C387.842 -11.0657 389.983 -11.0657 392.126 -11.1056C393.941 -11.1348 395.674 -10.7701 397.416 -10.4053C398.695 -10.1473 399.907 -9.68224 400.992 -9.03398C401.256 -8.90066 401.493 -8.72899 401.692 -8.52628C402.663 -7.37812 403.486 -6.15263 403.885 -4.75937C404.55 -2.46013 405.274 -0.165272 405.637 2.18503C405.816 3.35215 406.041 4.51928 405.994 5.72142C405.924 7.52317 405.984 9.32785 405.974 11.1311C405.964 12.8818 405.243 14.4209 404.069 15.7996C403.804 16.1023 403.558 16.418 403.333 16.7449C402.804 17.494 402.227 18.2163 401.605 18.9085C400.056 20.7234 398.033 22.0335 395.871 23.2137C395.314 23.5172 394.781 23.8527 394.242 24.181C394.205 24.2009 394.175 24.2291 394.155 24.2627C394.134 24.2963 394.124 24.334 394.126 24.372C394.128 24.41 394.141 24.4469 394.164 24.479C394.188 24.5111 394.22 24.5371 394.259 24.5545C395.78 25.1541 397.13 26.0017 398.52 26.7954C399.04 27.0806 399.485 27.4595 399.826 27.907C400.046 28.1929 400.307 28.4532 400.601 28.6817C401.843 29.6694 402.762 30.8803 403.748 32.0547C404.159 32.5493 404.515 33.0759 404.939 33.5647C406.119 34.9127 406.831 36.4971 407.843 37.9283C407.983 38.1239 408.077 38.3422 408.119 38.5702C408.214 39.11 408.48 39.5914 408.711 40.0889C409.404 41.5395 409.754 43.0985 409.74 44.6713C409.715 46.3593 409.692 48.0487 409.74 49.7352C409.8 51.6654 409.462 53.5459 409.065 55.425C408.626 57.4981 407.993 59.5259 407.381 61.5611C407.153 62.3014 406.818 63.0128 406.383 63.678C405.927 64.3827 405.26 64.9648 404.455 65.3616C404.005 65.5933 403.572 65.8481 403.156 66.1246C402.194 66.7359 401.097 67.1196 399.971 67.4245C398.009 67.9555 395.973 68.2152 393.956 68.4997C392.758 68.6689 391.539 68.7783 390.337 68.9665C389.991 69.0079 389.642 69.0231 389.293 69.0118C386.407 69.0118 383.521 69.0015 380.636 69.0205C379.807 69.0245 378.987 68.8581 378.244 68.5347C376.986 68.0066 375.769 67.3968 374.513 66.8803C372.894 66.2136 371.391 65.3484 369.714 64.7911C369.505 64.7332 369.307 64.6466 369.129 64.5344C368.243 63.907 367.18 63.5015 366.302 62.8785C365.109 62.028 363.696 61.4751 362.507 60.6245C362.312 60.4786 362.091 60.5603 361.992 60.785C361.456 61.9988 360.881 63.2024 360.399 64.4323C359.795 65.9685 358.86 67.3311 357.879 68.6981C357.087 69.8025 356.233 70.8587 355.373 71.9194C354.633 72.8312 353.711 73.5913 352.87 74.4199C352.761 74.5438 352.621 74.6438 352.461 74.7117C351.362 75.0794 350.394 75.676 349.262 76.0058C347.234 76.5981 345.247 77.2983 343.245 77.9592C341.285 78.6055 339.335 79.2547 337.319 79.777C334.883 80.4102 332.401 80.8187 329.939 81.3308C329.47 81.4203 328.992 81.4609 328.512 81.4519C325.32 81.4519 322.128 81.4606 318.938 81.4519C317.264 81.4752 315.631 80.9971 314.308 80.0965C313.682 79.6807 313.09 79.2279 312.534 78.7412C311.281 77.6179 309.801 76.7104 308.607 75.5316C307.942 74.8722 307.244 74.2376 306.573 73.584C306.424 73.4432 306.303 73.282 306.214 73.1069C305.519 71.6991 304.92 70.2577 304.762 68.72C304.667 67.8052 304.365 66.9138 304.413 65.9831C304.425 65.7321 304.262 65.471 304.17 65.2171C304.159 65.1706 304.137 65.1267 304.105 65.0883C304.073 65.05 304.032 65.018 303.985 64.9947C303.937 64.9714 303.885 64.9571 303.831 64.953C303.777 64.9488 303.723 64.9548 303.672 64.9706C302.117 65.3441 300.564 65.719 299.017 66.1085C298.763 66.1677 298.524 66.2666 298.31 66.4003C297.185 67.1444 295.843 67.5397 294.623 68.132C293.259 68.7958 291.742 69.2073 290.19 69.499C288.443 69.8302 286.658 69.9825 284.87 69.9528C282.423 69.9075 279.974 69.944 277.526 69.9396C276.871 69.9358 276.217 69.9846 275.572 70.0855C274.968 70.1796 274.357 70.2284 273.743 70.2314C271.471 70.2475 269.198 70.2314 266.927 70.2314C266.274 70.2167 265.623 70.1522 264.982 70.0388C263.255 69.7777 261.584 69.3356 259.917 68.8936C257.809 68.354 255.896 67.3442 254.366 65.9626C253.79 65.4327 253.417 64.7577 253.302 64.0325C253.081 62.8611 252.984 61.6744 253.011 60.4874C253.049 58.531 253.065 56.5731 253.011 54.6182C252.967 53.1709 253.343 51.8054 253.814 50.4486C254.415 48.7329 255.386 47.2142 256.986 46.0471C257.184 45.8963 257.362 45.7265 257.518 45.5409C257.976 45.031 258.572 44.6297 259.252 44.3737C261.263 43.5451 263.316 42.8039 265.336 41.9913C265.417 41.9626 265.496 41.9285 265.571 41.8892C268.001 40.5091 270.699 39.7928 273.541 39.4572C274.664 39.3244 275.745 39.0443 276.847 38.8386C278.81 38.471 280.776 38.116 282.744 37.7736C283.132 37.7164 283.525 37.692 283.918 37.7007C285.535 37.6919 287.153 37.7007 288.771 37.7007C289.687 37.7007 290.599 37.7007 291.505 37.5314C292.046 37.4264 292.629 37.4687 293.384 37.4352Z" fill="#2D2D2D"/>
</g>
</svg>
