<svg width="130" height="25" viewBox="0 0 130 25" fill="none" xmlns="http://www.w3.org/2000/svg">
<path d="M47.1657 7.9295C48.51 5.93408 50.2678 4.19828 52.3403 2.81976C54.215 1.53788 56.4859 0.832676 58.8264 0.805508C62.4724 0.723497 66.1196 0.914085 69.7316 1.37537C73.5668 1.89128 77.2858 2.9696 80.7455 4.56879C81.706 5.00945 82.5581 5.64732 83.4621 6.19407C83.9469 6.12198 84.2919 5.81733 84.616 5.52628C87.3029 3.11217 90.6842 2.14381 94.2901 1.84323C98.3104 1.5034 102.359 1.56862 106.364 2.03772C108.819 2.32605 111.271 2.57359 113.687 3.09313C115.806 3.55147 117.808 4.33486 119.811 5.09786C120.458 5.3376 121.063 5.66544 121.604 6.0703C124.561 8.36064 127.473 10.6945 129.39 13.8621C129.58 14.1749 129.784 14.47 129.778 14.8413C129.751 16.6828 129.913 18.5257 129.629 20.3645C129.48 21.2839 129.034 21.7708 128.047 22.2047C125.26 23.4219 122.361 23.4682 119.402 23.3376C119.324 23.3376 119.253 23.3172 119.171 23.3091C117.788 23.1635 116.279 23.2873 115.055 22.8045C113.448 22.1721 112.023 21.1153 110.602 20.1401C109.371 19.279 108.197 18.3525 107.085 17.3656C105.638 16.0796 103.983 15.0053 102.178 14.1803C101.056 13.673 100 13.6649 98.8357 14.111C97.2744 14.708 96.0729 15.6574 95.0767 16.8692C94.4239 17.6607 93.8039 18.4781 93.1139 19.2425C91.4917 21.0446 89.4456 22.0211 86.8286 21.9082C84.5833 21.8103 82.3335 21.7912 80.0868 21.7028C77.4374 21.6034 74.8815 20.78 72.7487 19.339C70.5182 17.8552 68.0038 16.9644 65.4507 16.1089C64.676 15.8478 63.9771 15.8736 63.192 16.03C60.9096 16.4816 59.3007 17.7328 58.1201 19.4846C57.3022 20.6991 56.3223 21.7885 55.3454 22.8915C54.2837 24.0897 52.8934 24.5794 51.2742 24.6419C48.2506 24.7504 45.2224 24.6207 42.2231 24.2543C40.6886 24.0734 39.276 23.4002 37.9109 22.7433C36.4731 22.0524 35.0753 21.2907 33.6761 20.5359C31.4754 19.3513 29.2658 18.1762 27.0993 16.9399C25.4637 16.0015 23.6184 15.6995 21.7775 15.5798C20.3873 15.4874 19.046 15.9987 17.8565 16.7209C16.1078 17.7818 14.3874 18.8603 13.3123 20.593C12.6834 21.6049 11.7258 21.9531 10.4068 21.9354C7.7675 21.8892 5.1356 21.828 2.52601 21.4335C1.10448 21.2186 0.694092 20.8378 0.350601 19.592C-0.0716858 18.0565 -0.0285645 16.4938 0.0532074 14.9433C0.161758 13.0392 0.460648 11.1352 0.616776 9.23108C0.720856 7.95942 1.33199 6.91898 2.21078 5.99822C3.83864 4.28367 5.83888 2.89785 8.08422 1.92892C10.2373 0.998636 12.3592 0.460053 14.7621 0.581098C16.9925 0.693983 19.2572 0.445091 21.5039 0.485893C27.196 0.593338 32.7914 1.36993 38.131 3.19377C40.9562 4.1567 43.713 5.33859 46.0401 7.18011C46.3286 7.40724 46.6557 7.59357 47.1657 7.9295Z" fill="#F55B1D"/>
</svg>
