<svg width="230" height="115" viewBox="0 0 230 115" fill="none" xmlns="http://www.w3.org/2000/svg">
<path d="M85.3664 71.1909C85.0581 70.7954 84.6699 70.8118 84.3089 70.7664C83.6014 70.6776 82.8957 70.585 82.1864 70.5179C79.7229 70.2858 77.2577 70.079 74.7978 69.8377C70.299 69.3933 65.8183 68.8111 61.3739 67.9295C58.1086 67.2784 54.8324 66.6489 51.5599 66.0105C50.535 65.794 49.4987 65.6353 48.456 65.5352C47.7442 65.4741 47.0375 65.3638 46.3409 65.2051C43.2189 64.5104 40.0715 64.0406 36.8625 64.1168C36.4797 64.1258 36.0988 64.1168 35.7178 64.0968C35.5977 64.099 35.4813 64.0551 35.3926 63.9741C35.3039 63.8932 35.2495 63.7813 35.2407 63.6615C35.226 63.5678 35.2175 63.4733 35.2153 63.3785C35.2153 61.4703 35.2044 59.5694 35.2153 57.6539C35.2153 56.8994 35.3496 56.7815 36.1768 56.7742C37.8947 56.7561 39.6126 56.7398 41.3286 56.7742C43.1896 56.7851 45.0433 56.541 46.8379 56.0487C50.4823 55.1109 54.1268 54.1767 57.7639 53.21C59.8356 52.6658 61.8836 52.0273 63.9516 51.4632C66.6727 50.7231 69.3829 50.0121 72.1003 49.2865L73.6658 48.8603C72.7588 48.3161 71.8101 48.122 70.8867 47.9624C69.3339 47.694 67.821 47.2713 66.2881 46.9358C64.055 46.4478 61.8002 46.0579 59.6052 45.4012C57.0492 44.6376 54.4605 43.9919 51.8519 43.4423C50.085 43.0704 48.3127 42.7167 46.4932 42.6224C45.4048 42.568 44.3345 42.2596 43.2479 42.1308C39.6978 41.7263 36.1858 41.0806 32.6938 40.3514C29.5253 39.6887 26.3858 38.8961 23.2753 37.9734C21.824 37.5417 20.3383 37.1681 18.8599 36.7998C17.0567 36.35 15.2118 36.1215 13.3724 35.8657C12.3819 35.7297 11.3769 35.6535 10.3992 35.4793C9.554 35.3348 8.69662 35.2741 7.83953 35.298C7.01776 35.3125 6.24136 35.0513 5.44318 34.9207C3.7289 34.6413 1.35795 33.9557 0.0990025 33.4043C0.059168 33.318 0.0322613 33.2263 0.0191729 33.1322C0.00828862 31.1768 -0.00621756 29.2197 0.00285267 27.2643C0.00285267 26.5642 0.13709 26.4535 0.862709 26.4281C1.43413 26.4082 2.00737 26.4281 2.58061 26.4281C3.43871 26.4445 4.29641 26.3789 5.14204 26.2322C5.61271 26.1622 6.08857 26.1331 6.56427 26.1452C8.61414 26.1161 10.6749 26.2721 12.7121 26.0291C14.6132 25.8042 16.5216 26.0001 18.4136 25.7425C20.1152 25.5103 21.8385 25.6318 23.5292 25.309C23.9086 25.265 24.2912 25.2565 24.6721 25.2836C28.1079 25.2836 31.5437 25.309 34.9777 25.2709C36.5105 25.2527 38.0217 25.4432 39.5291 25.6228C41.842 25.9003 44.1459 26.2758 46.4425 26.6676C47.43 26.832 48.4012 27.0827 49.3449 27.4167C51.5581 28.2148 53.8655 28.5522 56.1639 28.9349C57.9 29.2251 59.6451 29.4591 61.3884 29.7094C62.6237 29.8908 63.8645 29.7439 65.1017 29.7511C65.4537 29.7511 65.626 29.4736 65.4645 29.1743C65.1217 28.5485 64.7879 27.9046 64.3906 27.3206C62.4714 24.4728 60.514 21.6522 58.6092 18.7954C57.3938 16.9706 56.2347 15.1077 55.0719 13.2485C53.8619 11.3113 52.6555 9.37409 51.2624 7.56385C51.013 7.27435 50.873 6.90655 50.8669 6.5245C50.876 4.61631 50.8669 2.71537 50.8778 0.799918C50.8778 0.165062 51.0229 0.0163248 51.6252 0.0126971C53.5807 -0.0036278 55.5381 0.0126971 57.4936 0C57.9036 0 58.2483 0.105204 58.4823 0.455282C58.7163 0.805359 59.0972 0.857962 59.4909 0.859776C60.4904 0.859776 61.4972 0.79629 62.4804 1.04116C64.797 1.63611 67.0155 2.45054 69.089 3.68579C72.6572 5.80439 76.1529 8.03908 79.6486 10.2629C82.2953 11.9534 85.0418 13.4916 87.8445 14.93C91.5741 16.8436 95.2821 18.8135 98.8176 21.0754C100.062 21.8717 101.37 22.5664 102.627 23.3409C104.331 24.3875 106.014 25.4686 107.706 26.5333C107.988 26.7147 108.267 26.8961 108.557 27.0594C108.6 27.0793 108.646 27.0883 108.693 27.0857C108.739 27.0831 108.785 27.0689 108.824 27.0445C108.864 27.02 108.897 26.986 108.921 26.9455C108.944 26.905 108.957 26.8594 108.958 26.8127C108.976 26.5261 108.978 26.2413 108.984 25.9547C109.014 23.8579 109.005 21.7592 109.091 19.6624C109.151 18.1876 109.359 16.7226 109.711 15.2891C110.164 13.439 110.68 11.6033 111.189 9.76589C111.553 8.37693 112.275 7.10779 113.283 6.08554C113.641 5.70206 114.054 5.37326 114.507 5.10968C115.846 4.38413 116.798 3.2686 117.756 2.14581C117.909 1.96442 118.057 1.78304 118.201 1.58895C118.35 1.37406 118.552 1.20145 118.787 1.08796C119.023 0.974467 119.284 0.923972 119.545 0.9414C121.359 0.975863 123.173 0.957724 124.987 0.952283C125.395 0.952283 125.736 1.02484 125.921 1.44928C125.993 1.57143 126.092 1.6747 126.212 1.75039C127.28 2.5503 128.327 3.38287 129.426 4.13563C133.684 7.06866 137.506 10.506 141.118 14.1899C142.117 15.2111 143.091 16.2523 144.02 17.3461C144.978 18.4743 146.162 19.3867 147.34 20.27C150.046 22.2979 152.648 24.471 155.548 26.234C157.289 27.3207 158.876 28.6373 160.265 30.1484C161.33 31.2802 161.368 31.2929 162.59 30.3515C163.889 29.3821 165.255 28.5073 166.679 27.7341C167.301 27.384 167.895 26.9832 168.504 26.6095C170.051 25.6651 171.655 24.817 173.306 24.0701C175.174 23.223 177.01 22.3161 178.803 21.3166C179.597 20.8814 180.417 20.4961 181.259 20.163C183.381 19.3069 185.415 18.2548 187.564 17.4549C189.489 16.7293 191.448 16.1507 193.409 15.563C194.136 15.3238 194.9 15.2187 195.664 15.2529C195.948 15.2912 196.237 15.282 196.519 15.2256C197.832 14.8629 199.171 14.9826 200.509 14.9753C203.087 14.9626 205.663 14.9753 208.239 14.9753C208.62 14.9753 209.003 14.9753 209.382 15.0062C209.502 15.008 209.618 15.0565 209.703 15.1413C209.789 15.2262 209.838 15.341 209.841 15.4615C209.859 15.652 209.865 15.8434 209.861 16.0346C209.861 17.7034 209.85 19.374 209.861 21.0427C209.872 21.2741 209.829 21.505 209.735 21.7165C209.64 21.928 209.497 22.1142 209.317 22.2598C208.404 23.1027 207.555 24.0121 206.777 24.9807C205.641 26.4009 204.357 27.6688 203.06 28.9349C201.456 30.5003 199.911 32.1255 198.325 33.709C196.511 35.5229 194.659 37.3259 192.84 39.1506C192.234 39.7583 191.664 40.4022 191.095 41.0443C191.055 41.099 191.03 41.1623 191.02 41.2289C191.01 41.2954 191.017 41.3634 191.038 41.427C191.086 41.4746 191.142 41.5116 191.205 41.5357C191.267 41.5597 191.334 41.5703 191.401 41.5667C191.639 41.5675 191.877 41.5475 192.112 41.5068C194.088 41.2021 196.058 40.8666 198.039 40.5999C200.014 40.2948 202.007 40.1251 204.005 40.092C208.54 40.0812 213.075 40.1084 217.61 40.0757C218.85 40.0702 220.086 40.2066 221.295 40.482C222.461 40.7194 223.608 41.0426 224.727 41.4488C225.988 41.9331 227.283 42.1744 228.598 42.3829C229.097 42.4609 229.217 42.5535 229.22 42.9852C229.233 44.8933 229.22 46.7943 229.22 48.7097C229.232 48.8765 229.197 49.0433 229.118 49.1907C229.039 49.3381 228.92 49.46 228.774 49.5423C227.005 50.5943 225.509 52.0291 223.787 53.1356C223.473 53.3479 223.171 53.5761 222.88 53.8194C221.998 54.5495 221.055 55.2014 220.059 55.7675C219.557 56.0396 219.08 56.3606 218.608 56.6744C216.718 57.9605 214.822 59.2393 212.95 60.5525C211.566 61.5229 210.031 62.1669 208.44 62.6729C207.618 62.9154 206.814 63.2185 206.037 63.5799C205.915 63.6542 205.785 63.715 205.65 63.7612C203.689 64.2183 201.915 65.1797 200.036 65.8545C197.836 66.6471 195.753 67.7101 193.651 68.724C193.202 68.9399 193.177 69.1122 193.449 69.5003C193.61 69.7365 193.784 69.963 193.972 70.1787C194.764 71.0693 195.548 71.9672 196.364 72.8361C198.224 74.8186 200.078 76.8048 201.975 78.7511C204.803 81.6533 207.635 84.5555 210.525 87.4015C213.346 90.173 216.119 93.0009 219.212 95.4841C219.844 95.992 220.417 96.5724 221.026 97.1166C221.298 97.3487 221.51 97.6418 221.646 97.9719C221.783 98.302 221.839 98.6597 221.81 99.0157C221.757 100.539 221.795 102.068 221.795 103.594C221.795 103.786 221.795 103.977 221.786 104.167C221.752 104.711 221.625 104.856 221.106 104.869C220.199 104.889 219.292 104.869 218.385 104.882C218.004 104.882 217.621 104.882 217.24 104.894C217.059 104.894 216.83 104.894 216.738 105.101C216.453 105.707 215.913 105.645 215.392 105.645C213.721 105.645 212.05 105.645 210.382 105.645C209.905 105.663 209.43 105.588 208.983 105.422C206.091 104.261 203.024 103.772 200 103.117C196.408 102.371 192.858 101.439 189.362 100.327C185.785 99.1553 182.179 98.0707 178.585 96.9497C178.449 96.9056 178.309 96.8722 178.168 96.8499C178.05 96.8248 177.928 96.8466 177.826 96.9107C177.724 96.9747 177.652 97.0759 177.623 97.1927C177.552 97.5173 177.517 97.8489 177.52 98.1813C177.509 99.3748 177.52 100.567 177.52 101.76C177.543 102.141 177.539 102.523 177.506 102.903C177.081 105.749 177.277 108.613 177.235 111.468C177.235 111.851 177.235 112.232 177.221 112.614C177.225 112.686 177.215 112.757 177.19 112.824C177.166 112.891 177.127 112.952 177.077 113.003C177.028 113.055 176.968 113.095 176.902 113.122C176.835 113.148 176.764 113.161 176.693 113.158C176.502 113.171 176.312 113.175 176.121 113.175C174.451 113.175 172.782 113.164 171.111 113.175C170.392 113.189 169.692 112.949 169.134 112.496C167.517 111.238 165.868 110.013 164.276 108.729C163.312 107.954 162.429 107.078 161.486 106.275C160.254 105.226 158.999 104.203 157.754 103.168C157.601 103.055 157.458 102.929 157.326 102.792C155.906 101.118 154.21 99.7086 152.791 98.0217C151.661 96.6703 150.433 95.3916 149.275 94.0693C148.626 93.3711 148.063 92.5977 147.597 91.7656C147.013 90.661 146.115 89.7831 145.373 88.7927C145.301 88.6973 145.209 88.619 145.104 88.5632C144.998 88.5074 144.881 88.4755 144.762 88.4698C144.053 88.41 143.343 88.3302 142.634 88.2884C142.063 88.2467 141.858 88.4698 141.965 89.0684C142.181 90.2855 142.433 91.4972 142.669 92.7125C143.316 96.0338 144.222 99.2996 145.377 102.48C145.921 104.002 146.284 105.589 147.01 107.055C147.121 107.317 147.173 107.601 147.164 107.886C147.175 109.794 147.175 111.702 147.164 113.61C147.164 114.172 147.035 114.303 146.494 114.308C144.586 114.324 142.678 114.327 140.769 114.318C140.087 114.306 139.428 114.07 138.892 113.648C137.402 112.532 136.071 111.218 134.935 109.743C133.52 107.949 132.174 106.101 130.814 104.265C129.721 102.821 128.545 101.441 127.293 100.133C124.158 96.7937 120.824 93.6521 117.678 90.329C115.848 88.3955 113.932 86.5199 112.379 84.3433C112.017 83.8263 111.864 83.8118 111.291 84.0676C110.943 84.2235 110.605 84.4013 110.262 84.5718C107.706 85.8524 105.16 87.1511 102.589 88.4063C100.7 89.3197 98.6806 89.9318 96.6026 90.2202C93.6348 90.6592 90.6378 90.8715 87.6376 90.8551C87.2113 90.8551 86.785 90.9186 86.3587 90.9548C85.6476 91.0129 84.9365 91.1362 84.2254 91.1217C82.8812 91.0999 81.5751 91.3394 80.2563 91.5389C78.5184 91.8019 76.7642 91.9688 75.0191 92.2028C72.6609 92.5202 70.2935 92.7887 67.9552 93.2167C66.1793 93.5414 64.4396 94.0711 62.6945 94.5409C62.3369 94.6658 61.9641 94.7415 61.5861 94.7658C59.7721 94.7658 57.958 94.7658 56.144 94.7658C55.3785 94.7658 55.2769 94.6678 55.2714 93.9749C55.2587 92.0667 55.2714 90.1658 55.2714 88.2503C55.2714 87.8876 55.3548 87.5901 55.6959 87.4105C56.9657 86.7412 58.0542 85.827 59.1825 84.9509C59.6679 84.5673 60.1795 84.2182 60.7136 83.9061C63.7321 82.1684 66.8214 80.5704 69.9452 79.0322C71.4418 78.2958 72.8949 77.4723 74.3679 76.6887C77.0219 75.2775 79.7556 74.0314 82.4785 72.7617C83.4769 72.3066 84.4419 71.7817 85.3664 71.1909Z" fill="#FFF258"/>
</svg>
