<svg width="156" height="90" viewBox="0 0 156 90" fill="none" xmlns="http://www.w3.org/2000/svg">
<path d="M115.103 35.2961C115.189 35.3751 115.307 35.4371 115.443 35.4752C115.58 35.5134 115.729 35.5262 115.876 35.5122C119.887 35.5339 123.881 35.8511 127.783 36.4578C128.764 36.5972 129.72 36.8047 130.634 37.0769C132.656 37.696 134.696 38.3195 136.747 38.9107C138.319 39.368 139.715 40.0239 141.186 40.596C142.658 41.168 144.172 41.6856 145.592 42.318C150.271 44.4062 153.455 47.162 154.735 50.8164C155.088 51.8296 155.654 52.8075 155.827 53.856C155.916 54.3142 155.969 54.7751 155.984 55.2369C155.984 57.2089 155.957 59.1824 156 61.1544C156 62.003 155.89 62.8502 155.672 63.6867C155.567 64.2254 155.319 64.7479 154.94 65.2308C154.174 66.144 153.412 67.0602 152.572 67.9469C152.214 68.3014 151.77 68.6153 151.257 68.8763C147.05 71.1101 142.314 72.4321 136.814 72.4204C132.975 72.4204 129.133 72.4571 125.294 72.4071C121.996 72.366 118.7 72.2307 115.458 71.7718C114.534 71.6492 113.6 71.5604 112.661 71.5057C111.606 71.4197 110.572 71.2462 109.583 70.9895C107.869 70.5778 106.079 70.3219 104.38 69.8601C100.997 68.9395 97.6945 67.9278 94.6594 66.5631C93.6889 66.122 92.6037 65.7984 91.6287 65.3661C90.0179 64.6514 88.4566 63.8955 86.8705 63.1514C86.4863 62.972 86.1021 62.7926 85.6978 62.6338C85.2934 62.475 85.0642 62.5294 84.8733 62.8205C84.3857 63.5646 83.9117 64.3146 83.4197 65.0587C81.6764 67.694 79.2972 70.0925 76.9046 72.488C75.7454 73.6527 74.658 74.8512 73.5168 76.0174C71.5863 78.0089 69.3548 79.8682 66.8557 81.5673C65.9907 82.1555 65.0809 82.7025 64.1598 83.2437C60.4125 85.4319 56.5214 87.4995 52.19 89.1848C50.8421 89.7127 49.4784 90.0377 47.8563 89.9965C45.2593 89.9289 42.6578 89.9847 40.0562 89.9759C38.2814 89.9759 36.5246 89.8774 34.8644 89.4112C32.8843 88.8803 31.1844 87.9823 29.9736 86.8274C29.1596 86.057 28.7203 85.1436 28.7132 84.2069C28.7132 81.5011 28.5919 78.7894 28.7537 76.0865C28.857 74.363 29.1603 72.6262 30.1016 70.9748C30.4521 70.3616 30.6902 69.7204 30.9553 69.0881C31.8989 66.8455 33.3434 64.7308 34.916 62.647C35.8147 61.4338 36.5021 60.1471 37.6119 58.9986C38.6858 57.8868 39.5979 56.7148 40.6156 55.5854C41.5142 54.5913 42.6375 53.6898 43.7294 52.7751C44.9276 51.7683 46.1512 50.7786 47.4003 49.8061C49.6199 48.0796 51.2824 46.1297 52.864 44.1371C53.5087 43.3283 53.511 43.218 52.2349 42.6165C51.1903 42.1253 49.9704 41.7989 48.7752 41.4592C45.7917 40.6136 42.66 40.0504 39.6114 39.3313C37.6595 38.8876 35.6364 38.5915 33.5816 38.4489C32.474 38.3651 31.3889 38.1622 30.2948 38.0078C28.0482 37.6857 25.8017 37.3254 23.6809 36.7446C21.3444 36.1034 18.9631 35.5019 16.7906 34.6314C16.1782 34.3996 15.5433 34.1942 14.89 34.0167C13.1624 33.5167 11.4056 33.0593 9.69817 32.5314C6.89668 31.6608 4.3558 30.5491 2.50911 28.88C0.98593 27.5124 -0.0295188 26.0242 0.00193333 24.2772C0.0446184 21.8787 0.062591 19.4802 0.00193333 17.0832C-0.0429983 15.5141 0.698363 14.1421 1.90028 12.8185C4.26369 10.2098 7.63357 8.34804 11.6976 6.95836C13.6319 6.29808 15.5168 5.57604 17.4286 4.8834C19.3405 4.19077 21.4837 3.83195 23.6157 3.52314C24.2552 3.44754 24.905 3.41599 25.5545 3.42902C30.2724 3.42902 35.0082 3.41579 39.735 3.42902C40.7372 3.43731 41.7373 3.49284 42.7274 3.59519C44.1854 3.74225 45.6659 3.6746 47.1217 3.8746C51.7587 4.51429 56.3012 5.3231 60.3765 6.96278C61.2963 7.31103 62.165 7.71421 62.9713 8.16717C63.7936 8.65392 64.5821 9.18332 64.9933 9.90684C65.2179 10.3024 65.474 10.7259 65.8919 11.0259C66.6153 11.5347 66.7052 12.1053 66.667 12.7391C66.6378 13.2406 66.667 13.7435 66.7029 14.245C66.7159 14.2777 66.7404 14.308 66.7743 14.3335C66.8082 14.359 66.8507 14.3791 66.8984 14.392C66.9522 14.399 67.0076 14.3984 67.0611 14.3902C67.1145 14.3821 67.1647 14.3667 67.2084 14.345C68.7428 13.5053 70.2345 12.6333 71.879 11.8847C72.1714 11.7541 72.4451 11.6065 72.6968 11.4436C75.0625 9.85978 77.8257 8.61274 80.5845 7.34953C82.6065 6.41867 84.6284 5.47604 86.6975 4.57459C88.5131 3.77863 90.4476 3.10557 92.4712 2.5658C94.0011 2.15699 95.4906 1.68346 97.0362 1.30406C99.0848 0.819373 101.197 0.45952 103.347 0.22908C104.8 0.066463 106.272 -0.00836052 107.746 0.00555499C110.406 0.0261428 113.066 0.0349662 115.723 0.00555499C119.084 -0.0300621 122.444 0.105639 125.772 0.411429C128.452 0.657013 131.164 0.80701 133.779 1.30847C136.363 1.80111 138.737 2.49374 140.66 3.79225C141.986 4.68782 143.199 5.61721 144.107 6.71719C145.271 8.11431 145.864 9.68467 145.827 11.2759C145.798 13.0538 145.814 14.8332 145.827 16.6126C145.844 18.0546 145.123 19.4588 143.781 20.6022C143.008 21.2816 142.208 21.9493 141.496 22.661C140.254 23.9036 138.576 24.8668 136.969 25.8962C134.033 27.7639 130.573 29.1888 127.455 30.8961C126.8 31.2264 126.093 31.5108 125.348 31.7447C122.164 32.8461 118.967 33.9299 115.777 35.024C115.568 35.0902 115.382 35.1799 115.103 35.2961Z" fill="#D3F44B"/>
</svg>
