<svg width="38" height="38" viewBox="0 0 38 38" fill="none" xmlns="http://www.w3.org/2000/svg">
<path d="M18.2443 37.9901C16.1394 37.982 14.0378 38.0516 11.9418 37.5996C9.84581 37.1477 7.87581 36.3507 6.17449 34.7475C5.66944 34.2714 5.12761 33.8489 4.61365 33.3782C2.47083 31.3952 0.90329 28.9282 0.199796 25.7445C0.157682 25.6152 0.128138 25.4806 0.111729 25.3433C0.0570995 22.4016 -0.182607 19.4599 0.273382 16.5302C0.359229 15.9779 0.510847 15.4404 0.587775 14.8882C1.19427 10.4996 3.38503 7.44426 6.34617 5.04541C7.76542 3.89547 9.33965 3.16271 10.9763 2.57036C12.3142 2.08497 13.5918 1.36692 15.0178 1.24925C15.3522 1.22117 15.6867 0.981824 15.9799 0.763869C16.8094 0.134073 17.7124 -0.0183638 18.6701 0.00169344C20.134 0.0324478 21.599 0.0230878 23.0639 0.00169344C24.5668 -0.0143523 25.9448 0.381444 27.1957 1.45651C27.8715 2.01271 28.596 2.47859 29.3563 2.84581C30.5493 3.45689 31.6251 4.30998 32.7244 5.10559C33.5829 5.72736 34.2173 6.66737 34.7145 7.72773C35.1437 8.64501 35.5763 9.56364 36.0635 10.4355C36.4626 11.1522 36.68 11.9478 36.903 12.742C37.1449 13.6058 37.3256 14.4924 37.6968 15.3C37.8989 15.7323 38.0002 16.2219 37.99 16.7174C37.9298 19.3783 38.164 22.0459 37.7269 24.7001C37.5764 25.6188 37.3635 26.4799 36.9777 27.2594C36.0156 29.205 34.8449 30.9125 33.2406 32.2069C30.9495 34.0481 28.6439 35.8172 26.034 36.9698C24.6644 37.5922 23.2179 37.9361 21.7539 37.9874C20.5878 38.0141 19.416 37.9901 18.2443 37.9901Z" fill="#029C54"/>
</svg>
